<?xml version="1.0" encoding="UTF-8" standalone="no"?>
<svg
   xmlns:dc="http://purl.org/dc/elements/1.1/"
   xmlns:cc="http://creativecommons.org/ns#"
   xmlns:rdf="http://www.w3.org/1999/02/22-rdf-syntax-ns#"
   xmlns:svg="http://www.w3.org/2000/svg"
   xmlns="http://www.w3.org/2000/svg"
   viewBox="0 0 1122.52 793.70667"
   height="793.70667"
   width="1122.52"
   xml:space="preserve"
   id="svg2"
   version="1.1"><metadata
     id="metadata8"><rdf:RDF><cc:Work
         rdf:about=""><dc:format>image/svg+xml</dc:format><dc:type
           rdf:resource="http://purl.org/dc/dcmitype/StillImage" /></cc:Work></rdf:RDF></metadata><defs
     id="defs6"><clipPath
       id="clipPath18"
       clipPathUnits="userSpaceOnUse"><path
         id="path16"
         d="m 170.54,98.583 c 0,-11.273 118.035,-20.415 263.638,-20.415 v 0 c 145.604,0 263.637,9.142 263.637,20.415 v 0 c 0,11.269 -118.033,20.412 -263.637,20.412 v 0 c -145.603,0 -263.638,-9.143 -263.638,-20.412" /></clipPath><radialGradient
       id="radialGradient34"
       spreadMethod="pad"
       gradientTransform="matrix(263.61621,0,0,-20.415466,434.17773,98.582031)"
       gradientUnits="userSpaceOnUse"
       r="1"
       cy="0"
       cx="0"
       fy="0"
       fx="0"><stop
         id="stop28"
         offset="0"
         style="stop-opacity:1;stop-color:#ffffff" /><stop
         id="stop30"
         offset="0.939392"
         style="stop-opacity:0;stop-color:#ffffff" /><stop
         id="stop32"
         offset="1"
         style="stop-opacity:0;stop-color:#ffffff" /></radialGradient><mask
       id="mask36"
       height="1"
       width="1"
       y="0"
       x="0"
       maskUnits="userSpaceOnUse"><g
         id="g46"><g
           id="g44"><g
             id="g42"><g
               id="g40"><path
                 id="path38"
                 style="fill:url(#radialGradient34);stroke:none"
                 d="M -32767,32767 H 32767 V -32767 H -32767 Z" /></g></g></g></g></mask><radialGradient
       id="radialGradient58"
       spreadMethod="pad"
       gradientTransform="matrix(263.61621,0,0,-20.415466,434.17773,98.582031)"
       gradientUnits="userSpaceOnUse"
       r="1"
       cy="0"
       cx="0"
       fy="0"
       fx="0"><stop
         id="stop52"
         offset="0"
         style="stop-opacity:1;stop-color:#c6c7c9" /><stop
         id="stop54"
         offset="0.939392"
         style="stop-opacity:1;stop-color:#ffffff" /><stop
         id="stop56"
         offset="1"
         style="stop-opacity:1;stop-color:#ffffff" /></radialGradient><linearGradient
       id="linearGradient82"
       spreadMethod="pad"
       gradientTransform="matrix(208.47307,0,0,-208.47307,329.9458,306.10742)"
       gradientUnits="userSpaceOnUse"
       y2="0"
       x2="1"
       y1="0"
       x1="0"><stop
         id="stop74"
         offset="0"
         style="stop-opacity:1;stop-color:#acdbf3" /><stop
         id="stop76"
         offset="0.70580629"
         style="stop-opacity:1;stop-color:#5c9dd1" /><stop
         id="stop78"
         offset="0.903305"
         style="stop-opacity:1;stop-color:#5c9dd1" /><stop
         id="stop80"
         offset="1"
         style="stop-opacity:1;stop-color:#5c9dd1" /></linearGradient><clipPath
       id="clipPath92"
       clipPathUnits="userSpaceOnUse"><path
         id="path90"
         d="M 0,595.28 H 841.89 V 0 H 0 Z" /></clipPath><linearGradient
       id="linearGradient116"
       spreadMethod="pad"
       gradientTransform="matrix(-102.02924,-44.383881,-44.383881,102.02925,604.67871,299.08545)"
       gradientUnits="userSpaceOnUse"
       y2="0"
       x2="1"
       y1="0"
       x1="0"><stop
         id="stop110"
         offset="0"
         style="stop-opacity:1;stop-color:#ebf2fa" /><stop
         id="stop112"
         offset="0.78135988"
         style="stop-opacity:1;stop-color:#6cb3df" /><stop
         id="stop114"
         offset="1"
         style="stop-opacity:1;stop-color:#6cb3df" /></linearGradient><linearGradient
       id="linearGradient140"
       spreadMethod="pad"
       gradientTransform="matrix(57.461487,-30.664185,-30.664185,-57.461487,533.04687,422.69141)"
       gradientUnits="userSpaceOnUse"
       y2="0"
       x2="1"
       y1="0"
       x1="0"><stop
         id="stop132"
         offset="0"
         style="stop-opacity:1;stop-color:#aecae7" /><stop
         id="stop134"
         offset="0.66296823"
         style="stop-opacity:1;stop-color:#5e9dd1" /><stop
         id="stop136"
         offset="0.84848"
         style="stop-opacity:1;stop-color:#5e9dd1" /><stop
         id="stop138"
         offset="1"
         style="stop-opacity:1;stop-color:#5e9dd1" /></linearGradient><linearGradient
       id="linearGradient162"
       spreadMethod="pad"
       gradientTransform="matrix(-221.99571,-234.99539,-234.99539,221.99571,510.51758,456.83008)"
       gradientUnits="userSpaceOnUse"
       y2="0"
       x2="1"
       y1="0"
       x1="0"><stop
         id="stop156"
         offset="0"
         style="stop-opacity:1;stop-color:#296db0" /><stop
         id="stop158"
         offset="0.53343291"
         style="stop-opacity:1;stop-color:#00458f" /><stop
         id="stop160"
         offset="1"
         style="stop-opacity:1;stop-color:#00458f" /></linearGradient><clipPath
       id="clipPath172"
       clipPathUnits="userSpaceOnUse"><path
         id="path170"
         d="M 0,595.28 H 841.89 V 0 H 0 Z" /></clipPath></defs><g
     transform="matrix(1.3333333,0,0,-1.3333333,0,793.70667)"
     id="g10"><g
       id="g12"><g
         clip-path="url(#clipPath18)"
         id="g14"><g
           id="g20"><g
             id="g22" /><g
             mask="url(#mask36)"
             id="g48"><g
               id="g50"><path
                 id="path60"
                 style="fill:url(#radialGradient58);stroke:none"
                 d="m 170.54,98.583 c 0,-11.273 118.035,-20.415 263.638,-20.415 v 0 c 145.604,0 263.637,9.142 263.637,20.415 v 0 c 0,11.269 -118.033,20.412 -263.637,20.412 v 0 c -145.603,0 -263.638,-9.143 -263.638,-20.412" /></g></g></g></g></g><g
       id="g62"><g
         id="g64"><g
           id="g70"><g
             id="g72"><path
               id="path84"
               style="fill:url(#linearGradient82);stroke:none"
               d="M 279.022,442.157 V 175.144 L 572.187,149.49 549.661,462.724 Z" /></g></g></g></g><g
       id="g86"><g
         clip-path="url(#clipPath92)"
         id="g88"><g
           transform="translate(566.8262,147.2471)"
           id="g94"><path
             id="path96"
             style="fill:#002d6d;fill-opacity:1;fill-rule:nonzero;stroke:none"
             d="M 0,0 C 0.208,0.006 0.412,0.013 0.604,0.03 0.657,0.035 0.709,0.045 0.762,0.051 0.959,0.072 1.15,0.1 1.329,0.136 2.906,0.434 4.305,1.187 5.36,2.243 L 2.466,5.482 C 2.415,5.542 2.373,5.6 2.32,5.659 l -14.824,16.57 c -2.789,3.118 -8.492,5.667 -12.674,5.667 h -251.732 -7.052 -4.855 c 0.598,-0.699 1.38,-1.359 2.146,-1.822 0.633,-0.367 2.375,-1.203 2.375,-1.203 l 49.333,-21.908 c 3.85,-1.634 10.421,-2.971 14.603,-2.971 H -0.214 c 0.009,0 0.016,0.001 0.025,0.001 0.005,0 0.012,-0.001 0.019,-0.001 C -0.112,-0.008 -0.058,0 0,0" /></g></g></g><g
       id="g98"><g
         id="g100"><g
           id="g106"><g
             id="g108"><path
               id="path118"
               style="fill:url(#linearGradient116);stroke:none"
               d="m 549.661,182.191 c 0.033,-4.182 2.307,-10.151 5.1,-13.265 v 0 l 14.377,-16.027 c 0.01,-0.011 0.019,-0.019 0.029,-0.029 v 0 l 3.02,-3.38 c 1.254,1.257 2.029,2.937 2.029,4.789 v 0 c 0,0.075 -0.01,0.147 -0.013,0.223 v 0 c 0.004,0.114 0.013,0.221 0.013,0.341 v 0 201.84 l -24.555,53.929 z" /></g></g></g></g><g
       id="g120"><g
         id="g122"><g
           id="g128"><g
             id="g130"><path
               id="path142"
               style="fill:url(#linearGradient140);stroke:none"
               d="m 549.661,462.724 v -55.111 l 24.555,-57.58 v 43.036 c 0,2.307 -0.728,3.692 -0.728,3.692 v 0 l -24.079,67.888 z" /></g></g></g></g><g
       id="g144"><g
         id="g146"><g
           id="g152"><g
             id="g154"><path
               id="path164"
               style="fill:url(#linearGradient162);stroke:none"
               d="m 542.106,469.687 -258.838,-20.93 c -4.167,-0.353 -7.576,-4.063 -7.576,-8.246 v 0 -258.912 c 0,-2.507 0.885,-4.78 2.317,-6.455 v 0 h 5.286 6.621 l 69.323,0.001 c -11.705,13.472 -21.141,29.275 -27.675,46.7 v 0 l 75.964,0.766 c 13.225,-13.787 31.305,-22.367 51.412,-22.441 v 0 c 42.17,-0.152 77.216,37.068 77.216,82.973 v 0 c 0,45.912 -35.046,81.793 -77.216,80.036 v 0 c -22.796,-0.953 -42.992,-12.751 -56.485,-30.451 v 0 l -73.143,-2.471 c 18.764,57.917 68.978,102.018 129.628,105.778 v 0 c 33.616,2.087 65.207,-8.549 90.721,-28.422 v 0 55.111 c 0,3.967 -3.048,6.989 -6.917,6.99 v 0 c -0.211,0 -0.423,-0.009 -0.638,-0.027" /></g></g></g></g><g
       id="g166"><g
         clip-path="url(#clipPath172)"
         id="g168"><g
           transform="translate(330.3374,289.3408)"
           id="g174"><path
             id="path176"
             style="fill:#002d6d;fill-opacity:1;fill-rule:nonzero;stroke:none"
             d="m 0,0 -8.193,-17.081 -8.131,-0.226 -3.861,2.099 -4.212,14.344 v -26.003 l -10.292,-0.241 -4.079,2.096 4.079,44.352 6.917,2.585 3.95,-2.098 11.555,-24.286 11.679,25.325 7.668,2.604 3.54,-2.103 V -26.04 L 0,-26.291 l -3.667,2.102 z" /></g><g
           transform="translate(350.5903,311.8213)"
           id="g178"><path
             id="path180"
             style="fill:#002d6d;fill-opacity:1;fill-rule:nonzero;stroke:none"
             d="M 0,0 7.214,2.576 10.515,0.472 V -9.094 L 0,-9.521 -3.425,-7.418 Z M 10.515,-13.193 V -48.047 L 0,-48.293 -3.425,-46.19 0,-22.785 l -4.475,-0.155 -3.479,2.102 3.479,7.062 11.689,2.687 z" /></g><g
           transform="translate(367.1431,311.8789)"
           id="g182"><path
             id="path184"
             style="fill:#002d6d;fill-opacity:1;fill-rule:nonzero;stroke:none"
             d="m 0,0 7.566,2.585 3.101,-2.107 v -36.826 c 0,-0.689 0.207,-1.256 0.614,-1.708 0.408,-0.446 0.92,-0.656 1.532,-0.642 l 0.659,2.209 3.032,-2.109 v -8.975 c -0.823,-0.151 -1.662,-0.291 -2.523,-0.403 -0.736,-0.107 -1.534,-0.207 -2.393,-0.295 -0.858,-0.089 -1.674,-0.143 -2.449,-0.161 -2.77,-0.065 -4.985,0.821 -6.648,2.657 C 0.829,-43.942 0,-41.473 0,-38.367 Z" /></g><g
           transform="translate(390.0669,313.5967)"
           id="g186"><path
             id="path188"
             style="fill:#002d6d;fill-opacity:1;fill-rule:nonzero;stroke:none"
             d="M 0,0 8.06,2.602 10.886,0.491 V -9.243 L 0,-9.689 -2.956,-7.58 Z M 10.886,-13.415 V -48.88 L 0,-49.14 -2.956,-47.03 0,-23.184 l -4.634,-0.162 -3.012,2.109 3.012,7.215 12.694,2.717 z" /></g><g
           transform="translate(418.2817,274.583)"
           id="g190"><path
             id="path192"
             style="fill:#002d6d;fill-opacity:1;fill-rule:nonzero;stroke:none"
             d="m 0,0 9.557,0.266 c 1.707,0.047 2.562,1.008 2.562,2.888 v 13.029 c 0,0.701 -0.215,1.283 -0.643,1.737 -0.426,0.455 -0.959,0.671 -1.6,0.646 L 7.638,18.488 C 6.83,18.459 5.982,18.358 5.089,18.185 4.196,18.016 3.37,17.82 2.605,17.609 1.715,17.391 0.847,17.123 0,16.814 Z m 0,-9.459 v -11.904 l -11.051,-0.204 -2.751,2.11 2.751,46.696 7.148,2.501 2.635,-2.113 0.634,-3.481 c 1.1,0.835 2.286,1.585 3.557,2.241 1.103,0.553 2.334,1.086 3.696,1.582 1.361,0.502 2.767,0.781 4.218,0.839 l 2.884,0.114 c 2.914,0.116 5.256,-0.755 7.021,-2.619 1.765,-1.867 2.65,-4.401 2.65,-7.609 V 2.417 c 0,-3.541 -0.916,-6.334 -2.748,-8.382 -1.828,-2.051 -4.352,-3.109 -7.563,-3.187 z" /></g><g
           transform="translate(471.9531,292.5537)"
           id="g194"><path
             id="path196"
             style="fill:#002d6d;fill-opacity:1;fill-rule:nonzero;stroke:none"
             d="M 0,0 C 0,1.911 -0.887,2.834 -2.654,2.771 L -10.58,2.487 c -1.755,-0.061 -2.631,-1.043 -2.631,-2.944 v -14.254 c 0,-1.904 0.876,-2.826 2.631,-2.779 l 7.926,0.217 C -0.887,-17.225 0,-16.248 0,-14.332 Z m 11.678,-15.084 c 0,-3.6 -0.949,-6.445 -2.845,-8.533 -1.895,-2.081 -4.509,-3.162 -7.837,-3.24 l -15.189,-0.354 c -3.28,-0.074 -5.839,0.87 -7.688,2.84 -1.846,1.963 -2.767,4.721 -2.767,8.266 V 0.211 c 0,3.549 0.921,6.359 2.767,8.442 1.849,2.087 4.408,3.197 7.688,3.327 L 0.996,12.584 C 4.324,12.718 6.938,11.803 8.833,9.84 10.729,7.871 11.678,5.088 11.678,1.485 Z" /></g><g
           transform="translate(489.8594,317.3662)"
           id="g198"><path
             id="path200"
             style="fill:#002d6d;fill-opacity:1;fill-rule:nonzero;stroke:none"
             d="m 0,0 10.229,2.656 1.628,-2.125 v -38.826 c 0,-0.728 0.228,-1.327 0.68,-1.798 0.454,-0.471 1.026,-0.697 1.706,-0.678 l 2.55,2.239 1.552,-2.126 v -9.463 c -0.915,-0.164 -1.849,-0.311 -2.806,-0.43 -0.817,-0.115 -1.705,-0.219 -2.658,-0.314 -0.955,-0.096 -1.863,-0.153 -2.725,-0.176 -3.079,-0.071 -5.541,0.861 -7.388,2.793 C 0.922,-46.318 0,-43.717 0,-40.441 Z" /></g><g
           transform="translate(326.6704,291.4424)"
           id="g202"><path
             id="path204"
             style="fill:#ffffff;fill-opacity:1;fill-rule:nonzero;stroke:none"
             d="m 0,0 -8.29,-17.083 -8.228,-0.227 -8.169,16.441 v -26.002 l -10.414,-0.242 v 46.448 l 10.996,0.488 11.693,-24.284 11.818,25.327 11.341,0.502 V -26.039 L 0,-26.291 Z" /></g><g
           transform="translate(347.165,313.9248)"
           id="g206"><path
             id="path208"
             style="fill:#ffffff;fill-opacity:1;fill-rule:nonzero;stroke:none"
             d="M 0,0 10.64,0.473 V -9.093 L 0,-9.521 Z M 10.64,-13.192 V -48.045 L 0,-48.294 v 25.508 l -4.529,-0.155 v 9.164 z" /></g><g
           transform="translate(363.9146,313.9854)"
           id="g210"><path
             id="path212"
             style="fill:#ffffff;fill-opacity:1;fill-rule:nonzero;stroke:none"
             d="m 0,0 10.794,0.479 v -36.825 c 0,-0.689 0.208,-1.258 0.621,-1.708 0.413,-0.446 0.932,-0.658 1.551,-0.642 l 3.734,0.1 v -8.974 c -0.832,-0.153 -1.682,-0.291 -2.553,-0.406 -0.745,-0.106 -1.552,-0.205 -2.421,-0.294 -0.869,-0.089 -1.695,-0.144 -2.477,-0.161 -2.804,-0.066 -5.045,0.821 -6.728,2.655 C 0.839,-43.943 0,-41.473 0,-38.367 Z" /></g><g
           transform="translate(387.1113,315.7061)"
           id="g214"><path
             id="path216"
             style="fill:#ffffff;fill-opacity:1;fill-rule:nonzero;stroke:none"
             d="M 0,0 11.016,0.492 V -9.242 L 0,-9.689 Z M 11.016,-13.414 V -48.879 L 0,-49.14 v 25.956 l -4.69,-0.163 v 9.325 z" /></g><g
           transform="translate(415.6616,276.6963)"
           id="g218"><path
             id="path220"
             style="fill:#ffffff;fill-opacity:1;fill-rule:nonzero;stroke:none"
             d="m 0,0 9.67,0.268 c 1.727,0.046 2.592,1.007 2.592,2.888 v 13.028 c 0,0.701 -0.216,1.284 -0.648,1.738 -0.434,0.454 -0.973,0.669 -1.62,0.646 L 7.729,18.489 C 6.911,18.459 6.052,18.358 5.148,18.184 4.245,18.017 3.409,17.82 2.636,17.61 1.735,17.391 0.857,17.122 0,16.814 Z m 0,-9.459 v -11.904 l -11.182,-0.207 v 48.808 l 9.899,0.389 0.641,-3.481 c 1.113,0.835 2.313,1.585 3.599,2.241 1.116,0.554 2.362,1.086 3.741,1.583 1.376,0.502 2.801,0.781 4.268,0.838 l 2.919,0.116 c 2.948,0.117 5.317,-0.756 7.103,-2.618 1.786,-1.867 2.682,-4.401 2.682,-7.609 V 2.42 c 0,-3.542 -0.927,-6.334 -2.781,-8.383 -1.849,-2.05 -4.402,-3.109 -7.653,-3.187 z" /></g><g
           transform="translate(469.9707,294.6748)"
           id="g222"><path
             id="path224"
             style="fill:#ffffff;fill-opacity:1;fill-rule:nonzero;stroke:none"
             d="m 0,0 c 0,1.91 -0.896,2.833 -2.686,2.771 l -8.019,-0.286 c -1.775,-0.061 -2.662,-1.044 -2.662,-2.944 v -14.254 c 0,-1.904 0.887,-2.826 2.662,-2.779 l 8.019,0.219 C -0.896,-17.226 0,-16.25 0,-14.334 Z m 11.817,-15.084 c 0,-3.599 -0.96,-6.445 -2.879,-8.532 -1.917,-2.081 -4.562,-3.164 -7.93,-3.243 l -15.37,-0.354 c -3.318,-0.076 -5.909,0.869 -7.779,2.839 -1.868,1.963 -2.8,4.72 -2.8,8.266 V 0.208 c 0,3.548 0.932,6.359 2.8,8.442 1.87,2.087 4.461,3.196 7.779,3.329 l 15.37,0.605 c 3.368,0.134 6.013,-0.781 7.93,-2.743 1.919,-1.97 2.879,-4.752 2.879,-8.355 z" /></g><g
           transform="translate(488.0898,319.4893)"
           id="g226"><path
             id="path228"
             style="fill:#ffffff;fill-opacity:1;fill-rule:nonzero;stroke:none"
             d="m 0,0 11.998,0.533 v -38.828 c 0,-0.726 0.231,-1.325 0.689,-1.797 0.459,-0.471 1.037,-0.697 1.726,-0.678 l 4.15,0.115 v -9.464 c -0.925,-0.164 -1.87,-0.31 -2.838,-0.43 -0.829,-0.116 -1.726,-0.219 -2.692,-0.314 -0.966,-0.096 -1.885,-0.154 -2.756,-0.176 -3.115,-0.072 -5.606,0.86 -7.476,2.792 C 0.933,-46.317 0,-43.717 0,-40.441 Z" /></g></g></g><text
       id="text232"
       style="font-variant:normal;font-weight:bold;font-stretch:normal;font-size:19.99921417px;font-family:Helvetica;-inkscape-font-specification:Helvetica-Bold;writing-mode:lr-tb;fill:#88bce2;fill-opacity:1;fill-rule:nonzero;stroke:none"
       transform="matrix(0.91978113,0.02194086,0.02385094,-0.99975927,291.7843,238.0983)"><tspan
         id="tspan230"
         y="0"
         x="0 12.359514 27.298927 42.238342 48.298103 62.137558 68.197319 79.816864 91.436409 103.05595">PARIS 2019</tspan></text>
</g></svg>