<svg width="655" height="640" viewBox="0 0 655 640" fill="none" xmlns="http://www.w3.org/2000/svg">
<g style="mix-blend-mode:overlay" opacity="0.6">
<path fill-rule="evenodd" clip-rule="evenodd" d="M488.48 343.652L487.376 343.645C487.379 343.097 487.381 342.549 487.381 342C487.381 341.451 487.379 340.903 487.376 340.355L488.48 340.348C488.484 340.898 488.485 341.449 488.485 342C488.485 342.551 488.484 343.102 488.48 343.652ZM488.439 337.051L487.335 337.072C487.315 335.979 487.288 334.888 487.254 333.799L488.357 333.765C488.391 334.859 488.419 335.954 488.439 337.051ZM488.235 330.488L487.131 330.536C487.084 329.446 487.029 328.356 486.968 327.269L488.071 327.207C488.132 328.299 488.187 329.393 488.235 330.488ZM487.865 323.917L486.764 323.993C486.689 322.903 486.607 321.815 486.518 320.728L487.619 320.638C487.708 321.729 487.79 322.822 487.865 323.917ZM487.332 317.371L486.233 317.475C486.13 316.388 486.021 315.303 485.905 314.22L487.003 314.103C487.12 315.19 487.229 316.28 487.332 317.371ZM486.632 310.828L485.536 310.959C485.406 309.875 485.269 308.792 485.126 307.711L486.221 307.566C486.365 308.651 486.502 309.739 486.632 310.828ZM485.769 304.317L484.676 304.476C484.519 303.395 484.355 302.317 484.185 301.241L485.275 301.068C485.447 302.149 485.611 303.232 485.769 304.317ZM484.739 297.818L483.651 298.005C483.466 296.928 483.275 295.854 483.077 294.782L484.163 294.581C484.361 295.658 484.554 296.737 484.739 297.818ZM483.546 291.358L482.463 291.573C482.251 290.501 482.033 289.433 481.808 288.366L482.888 288.138C483.114 289.209 483.334 290.283 483.546 291.358ZM482.187 284.92L481.11 285.162C480.871 284.097 480.625 283.034 480.373 281.973L481.447 281.718C481.7 282.783 481.947 283.85 482.187 284.92ZM480.667 278.53L479.596 278.799C479.33 277.74 479.057 276.683 478.778 275.629L479.845 275.346C480.125 276.405 480.4 277.466 480.667 278.53ZM478.981 272.17L477.918 272.466C477.624 271.414 477.325 270.366 477.019 269.319L478.079 269.009C478.386 270.06 478.687 271.113 478.981 272.17ZM477.137 265.865L476.081 266.189C475.761 265.144 475.435 264.102 475.102 263.064L476.153 262.727C476.487 263.77 476.815 264.816 477.137 265.865ZM475.129 259.599L474.082 259.95C473.735 258.914 473.382 257.882 473.023 256.853L474.066 256.489C474.427 257.523 474.781 258.56 475.129 259.599ZM472.965 253.397L471.927 253.774C471.554 252.747 471.175 251.723 470.789 250.702L471.822 250.312C472.209 251.337 472.59 252.366 472.965 253.397ZM470.639 247.242L469.612 247.645C469.213 246.629 468.808 245.617 468.397 244.607L469.419 244.191C469.832 245.204 470.239 246.221 470.639 247.242ZM468.162 241.159L467.145 241.588C466.72 240.581 466.288 239.577 465.851 238.577L466.863 238.134C467.302 239.139 467.735 240.147 468.162 241.159ZM465.526 235.129L464.52 235.585C464.07 234.59 463.614 233.6 463.152 232.612L464.152 232.144C464.616 233.136 465.074 234.131 465.526 235.129ZM462.741 229.179L461.747 229.66C461.271 228.676 460.79 227.696 460.302 226.719L461.29 226.225C461.78 227.206 462.263 228.191 462.741 229.179ZM459.802 223.293L458.82 223.799C458.321 222.829 457.815 221.863 457.303 220.9L458.278 220.382C458.792 221.349 459.3 222.319 459.802 223.293ZM456.718 217.491L455.749 218.021C455.224 217.063 454.694 216.109 454.157 215.158L455.118 214.615C455.657 215.57 456.191 216.528 456.718 217.491ZM453.484 211.763L452.529 212.318C451.981 211.375 451.427 210.435 450.867 209.5L451.815 208.933C452.377 209.872 452.933 210.816 453.484 211.763ZM450.109 206.123L449.169 206.702C448.596 205.772 448.018 204.846 447.434 203.924L448.366 203.333C448.953 204.259 449.534 205.189 450.109 206.123ZM446.59 200.568L445.664 201.17C445.069 200.256 444.468 199.346 443.862 198.44L444.779 197.826C445.388 198.736 445.992 199.65 446.59 200.568ZM442.933 195.105L442.023 195.731C441.404 194.832 440.78 193.936 440.15 193.045L441.052 192.408C441.684 193.303 442.311 194.202 442.933 195.105ZM439.138 189.736L438.244 190.384C437.603 189.501 436.957 188.623 436.306 187.749L437.191 187.089C437.845 187.967 438.494 188.849 439.138 189.736ZM435.209 184.464L434.332 185.135C433.669 184.269 433 183.406 432.326 182.548L433.195 181.866C433.872 182.728 434.543 183.594 435.209 184.464ZM431.148 179.293L430.289 179.986C429.604 179.137 428.914 178.292 428.219 177.451L429.07 176.748C429.768 177.592 430.461 178.44 431.148 179.293ZM426.959 174.227L426.117 174.941C425.411 174.109 424.699 173.281 423.983 172.458L424.816 171.733C425.535 172.56 426.25 173.391 426.959 174.227ZM422.643 169.267L421.819 170.003C421.092 169.189 420.361 168.379 419.624 167.575L420.438 166.829C421.178 167.637 421.913 168.45 422.643 169.267ZM418.203 164.418C417.453 163.619 416.698 162.825 415.938 162.036L415.142 162.802C415.899 163.588 416.651 164.378 417.398 165.174L418.203 164.418ZM413.643 159.682L412.857 160.458C412.09 159.682 411.319 158.91 410.542 158.143L411.318 157.358C412.098 158.128 412.873 158.902 413.643 159.682ZM408.965 155.063L408.199 155.858C407.413 155.101 406.622 154.349 405.826 153.602L406.582 152.797C407.381 153.547 408.175 154.303 408.965 155.063ZM404.171 150.562L403.426 151.376C402.621 150.64 401.812 149.908 400.998 149.181L401.733 148.358C402.55 149.087 403.363 149.822 404.171 150.562ZM399.267 146.184L398.542 147.017C397.719 146.301 396.891 145.59 396.059 144.884L396.773 144.042C397.609 144.751 398.44 145.465 399.267 146.184ZM394.253 141.93L393.549 142.781C392.708 142.086 391.863 141.396 391.014 140.712L391.707 139.852C392.56 140.539 393.408 141.232 394.253 141.93ZM389.135 137.806L388.453 138.674C387.594 138 386.732 137.331 385.865 136.668L386.536 135.791C387.406 136.457 388.273 137.129 389.135 137.806ZM383.912 133.809L383.252 134.695C382.378 134.043 381.499 133.397 380.616 132.756L381.265 131.862C382.151 132.506 383.034 133.155 383.912 133.809ZM378.592 129.948L377.955 130.85C377.064 130.22 376.169 129.596 375.269 128.977L375.895 128.068C376.798 128.689 377.697 129.316 378.592 129.948ZM373.174 126.221L372.56 127.139C371.654 126.532 370.744 125.931 369.83 125.336L370.433 124.411C371.351 125.008 372.265 125.612 373.174 126.221ZM367.667 122.634L367.076 123.567C366.154 122.983 365.228 122.404 364.298 121.832L364.877 120.891C365.811 121.466 366.741 122.047 367.667 122.634ZM362.067 119.186L361.5 120.133C360.565 119.573 359.626 119.019 358.683 118.471L359.237 117.516C360.185 118.067 361.128 118.623 362.067 119.186ZM356.385 115.882L355.842 116.843C354.891 116.307 353.937 115.776 352.979 115.251L353.51 114.282C354.472 114.81 355.43 115.343 356.385 115.882ZM350.618 112.722L350.1 113.697C349.137 113.185 348.171 112.679 347.201 112.18L347.707 111.198C348.681 111.7 349.651 112.208 350.618 112.722ZM344.775 109.71L344.282 110.698C343.305 110.21 342.324 109.729 341.34 109.253L341.821 108.259C342.809 108.737 343.794 109.221 344.775 109.71ZM338.856 106.848L338.388 107.848C337.4 107.386 336.41 106.93 335.416 106.48L335.871 105.474C336.869 105.926 337.864 106.384 338.856 106.848ZM332.866 104.137L332.424 105.149C331.423 104.712 330.419 104.28 329.412 103.855L329.842 102.838C330.853 103.265 331.861 103.698 332.866 104.137ZM326.81 101.581L326.393 102.603C325.384 102.192 324.371 101.787 323.355 101.389L323.758 100.361C324.779 100.761 325.796 101.168 326.81 101.581ZM320.688 99.1783L320.298 100.211C319.277 99.8255 318.253 99.446 317.226 99.0729L317.603 98.0351C318.634 98.4098 319.663 98.7909 320.688 99.1783ZM314.511 96.9342L314.147 97.9767C313.118 97.6176 312.086 97.2649 311.051 96.9185L311.401 95.8714C312.441 96.2193 313.477 96.5735 314.511 96.9342ZM308.274 94.847C307.23 94.5126 306.184 94.1846 305.135 93.8631L304.811 94.9188C305.856 95.239 306.898 95.5655 307.937 95.8985L308.274 94.847ZM301.991 92.9215L301.681 93.9813C300.635 93.6752 299.586 93.3756 298.534 93.0824L298.83 92.0188C299.887 92.3132 300.94 92.6141 301.991 92.9215ZM295.654 91.1551L295.371 92.2224C294.317 91.9431 293.26 91.6702 292.201 91.4039L292.47 90.3331C293.534 90.6005 294.595 90.8745 295.654 91.1551ZM289.283 89.5533L289.027 90.6275C287.966 90.3752 286.903 90.1294 285.838 89.8902L286.08 88.8128C287.15 89.053 288.217 89.2999 289.283 89.5533ZM282.862 88.1121L282.634 89.1925C281.567 88.9673 280.499 88.7488 279.427 88.5369L279.642 87.4537C280.718 87.6665 281.791 87.886 282.862 88.1121ZM276.419 86.8374L276.218 87.9232C275.146 87.7253 274.072 87.5339 272.996 87.3493L273.182 86.261C274.263 86.4464 275.342 86.6386 276.419 86.8374ZM269.932 85.7247L269.759 86.8152C268.683 86.6447 267.605 86.4809 266.525 86.3237L266.683 85.231C267.768 85.3889 268.851 85.5534 269.932 85.7247ZM263.434 84.7793L263.289 85.8739C262.208 85.7306 261.126 85.594 260.041 85.4641L260.172 84.3678C261.261 84.4982 262.349 84.6354 263.434 84.7793ZM256.897 83.9968L256.78 85.0947C255.697 84.9789 254.612 84.8699 253.525 84.7675L253.629 83.6682C254.72 83.771 255.81 83.8805 256.897 83.9968ZM250.362 83.3813L250.272 84.4819C249.185 84.3933 248.097 84.3115 247.007 84.2365L247.083 83.1349C248.178 83.2103 249.271 83.2924 250.362 83.3813ZM243.793 82.9292L243.731 84.0317C242.644 83.9706 241.554 83.9162 240.464 83.8686L240.512 82.7654C241.607 82.8132 242.701 82.8679 243.793 82.9292ZM237.235 82.6428L237.201 83.7465C236.112 83.7125 235.021 83.6853 233.928 83.6649L233.949 82.5609C235.046 82.5814 236.141 82.6087 237.235 82.6428ZM230.652 82.5198C230.102 82.5164 229.551 82.5146 229 82.5146C228.449 82.5146 227.898 82.5164 227.348 82.5198L227.355 83.624C227.903 83.6205 228.451 83.6188 229 83.6188C229.549 83.6188 230.097 83.6205 230.645 83.624L230.652 82.5198ZM224.051 82.5609L224.072 83.6649C222.979 83.6853 221.888 83.7125 220.799 83.7465L220.765 82.6428C221.859 82.6087 222.954 82.5814 224.051 82.5609ZM217.488 82.7654L217.537 83.8686C216.446 83.9162 215.357 83.9706 214.269 84.0317L214.207 82.9292C215.299 82.8679 216.393 82.8132 217.488 82.7654ZM210.917 83.1349L210.993 84.2365C209.903 84.3115 208.815 84.3933 207.728 84.4819L207.639 83.3813C208.73 83.2924 209.822 83.2103 210.917 83.1349ZM204.371 83.6682L204.475 84.7676C203.388 84.8699 202.303 84.9789 201.22 85.0947L201.103 83.9968C202.19 83.8805 203.28 83.771 204.371 83.6682ZM197.828 84.3678L197.959 85.4641C196.875 85.594 195.792 85.7306 194.711 85.8739L194.566 84.7793C195.651 84.6354 196.739 84.4982 197.828 84.3678ZM191.317 85.231L191.476 86.3237C190.395 86.4809 189.317 86.6447 188.241 86.8152L188.068 85.7247C189.149 85.5534 190.232 85.3889 191.317 85.231ZM184.818 86.261L185.005 87.3493C183.928 87.5339 182.854 87.7253 181.782 87.9232L181.581 86.8374C182.658 86.6386 183.737 86.4464 184.818 86.261ZM178.358 87.4537L178.573 88.5369C177.502 88.7488 176.433 88.9673 175.366 89.1925L175.138 88.1121C176.209 87.886 177.283 87.6665 178.358 87.4537ZM171.921 88.8128L172.162 89.8902C171.097 90.1294 170.034 90.3752 168.973 90.6275L168.718 89.5533C169.783 89.2999 170.85 89.053 171.921 88.8128ZM165.53 90.3331L165.799 91.4039C164.74 91.6702 163.683 91.9431 162.629 92.2224L162.346 91.1551C163.405 90.8746 164.466 90.6005 165.53 90.3331ZM159.17 92.0188L159.466 93.0824C158.415 93.3756 157.366 93.6752 156.319 93.9813L156.009 92.9215C157.06 92.6141 158.114 92.3132 159.17 92.0188ZM152.866 93.8631L153.189 94.9188C152.144 95.2389 151.103 95.5655 150.064 95.8985L149.727 94.847C150.77 94.5126 151.816 94.1846 152.866 93.8631ZM146.599 95.8713L146.95 96.9185C145.915 97.2648 144.882 97.6176 143.853 97.9767L143.49 96.9341C144.523 96.5735 145.56 96.2192 146.599 95.8713ZM140.398 98.035L140.775 99.0729C139.747 99.446 138.723 99.8255 137.702 100.211L137.312 99.1783C138.337 98.7909 139.366 98.4098 140.398 98.035ZM134.242 100.361L134.645 101.388C133.629 101.787 132.617 102.192 131.607 102.603L131.191 101.581C132.205 101.168 133.222 100.761 134.242 100.361ZM128.159 102.838L128.588 103.855C127.581 104.28 126.577 104.712 125.577 105.149L125.134 104.137C126.139 103.698 127.147 103.265 128.159 102.838ZM122.129 105.474C121.131 105.926 120.136 106.384 119.145 106.848L119.613 107.848C120.6 107.386 121.591 106.93 122.585 106.48L122.129 105.474ZM116.179 108.259L116.66 109.253C115.676 109.729 114.696 110.21 113.719 110.698L113.225 109.71C114.207 109.22 115.191 108.737 116.179 108.259ZM110.293 111.198L110.799 112.18C109.829 112.679 108.863 113.185 107.9 113.697L107.382 112.722C108.349 112.208 109.319 111.7 110.293 111.198ZM104.491 114.282L105.021 115.251C104.063 115.776 103.109 116.306 102.158 116.843L101.616 115.882C102.57 115.343 103.529 114.809 104.491 114.282ZM98.7628 117.516L99.3179 118.471C98.3748 119.019 97.4355 119.573 96.5001 120.133L95.933 119.185C96.8725 118.623 97.8158 118.067 98.7628 117.516ZM93.1233 120.891C92.1895 121.466 91.2596 122.047 90.3336 122.634L90.9245 123.566C91.8465 122.982 92.7724 122.404 93.7023 121.831L93.1233 120.891ZM87.5677 124.41L88.1704 125.336C87.2563 125.931 86.3463 126.532 85.4403 127.138L84.826 126.221C85.7359 125.612 86.6498 125.008 87.5677 124.41ZM82.1054 128.067L82.7313 128.977C81.8318 129.596 80.9365 130.22 80.0453 130.85L79.408 129.948C80.303 129.316 81.2021 128.689 82.1054 128.067ZM76.7357 131.862L77.3843 132.756C76.5015 133.397 75.6229 134.043 74.7486 134.695L74.0887 133.809C74.9668 133.155 75.8491 132.506 76.7357 131.862ZM71.4645 135.791L72.1355 136.668C71.2686 137.331 70.4061 138 69.5479 138.674L68.8659 137.805C69.7277 137.128 70.594 136.457 71.4645 135.791ZM66.2936 139.852L66.9865 140.711C66.1371 141.396 65.292 142.086 64.4514 142.781L63.7478 141.93C64.5919 141.232 65.4406 140.539 66.2936 139.852ZM61.227 144.041L61.9413 144.883C61.1091 145.589 60.2814 146.301 59.4583 147.017L58.7334 146.184C59.56 145.465 60.3912 144.75 61.227 144.041ZM56.2674 148.357L57.0028 149.181C56.1888 149.908 55.3794 150.639 54.5747 151.376L53.8291 150.562C54.6372 149.822 55.45 149.087 56.2674 148.357ZM51.4182 152.797L52.174 153.602C51.3785 154.349 50.5877 155.101 49.8017 155.858L49.0358 155.062C49.8251 154.302 50.6193 153.547 51.4182 152.797ZM46.6823 157.357L47.4581 158.143C46.6817 158.91 45.9102 159.681 45.1435 160.458L44.3578 159.682C45.1277 158.902 45.9026 158.127 46.6823 157.357ZM42.0628 162.035L42.8581 162.801C42.1013 163.587 41.3493 164.378 40.6024 165.174L39.7974 164.418C40.5475 163.619 41.3027 162.825 42.0628 162.035ZM37.5621 166.829L38.3765 167.574C37.6398 168.379 36.9081 169.188 36.1815 170.002L35.3578 169.267C36.0875 168.45 36.8223 167.637 37.5621 166.829ZM33.1843 171.733L34.0172 172.458C33.3009 173.281 32.5898 174.109 31.8837 174.941L31.0417 174.227C31.7507 173.391 32.465 172.56 33.1843 171.733ZM28.9303 176.747C28.2323 177.592 27.5395 178.44 26.852 179.293L27.7118 179.986C28.3963 179.137 29.0862 178.292 29.7812 177.451L28.9303 176.747ZM24.8056 181.866L25.674 182.547C25.0001 183.406 24.3315 184.268 23.6682 185.135L22.7912 184.464C23.4573 183.594 24.1288 182.727 24.8056 181.866ZM20.8095 187.088L21.6949 187.748C21.0432 188.623 20.397 189.501 19.7562 190.384L18.8626 189.735C19.5061 188.849 20.1551 187.966 20.8095 187.088ZM16.9485 192.408L17.8503 193.045C17.2204 193.936 16.5961 194.831 15.9773 195.731L15.0676 195.105C15.689 194.202 16.316 193.303 16.9485 192.408ZM13.2212 197.826L14.1388 198.44C13.5322 199.346 12.9312 200.256 12.3359 201.17L11.4106 200.567C12.0085 199.649 12.6121 198.736 13.2212 197.826ZM9.63397 203.333L10.5668 203.924C9.98273 204.846 9.40436 205.772 8.83173 206.702L7.89153 206.123C8.4666 205.189 9.04744 204.259 9.63397 203.333ZM6.18562 208.933L7.13309 209.5C6.57323 210.435 6.0191 211.374 5.47079 212.318L4.51622 211.763C5.06688 210.815 5.62337 209.872 6.18562 208.933ZM2.88176 214.615L3.84329 215.158C3.30663 216.109 2.77582 217.063 2.25089 218.021L1.28253 217.49C1.80971 216.528 2.34279 215.57 2.88176 214.615ZM-0.278046 220.382L0.69696 220.9C0.185318 221.863 -0.320404 222.829 -0.82019 223.799L-1.8017 223.293C-1.29977 222.319 -0.79187 221.349 -0.278046 220.382ZM-3.28946 226.225L-2.30161 226.719C-2.78941 227.695 -3.27122 228.676 -3.74698 229.66L-4.74103 229.179C-4.26324 228.191 -3.77937 227.206 -3.28946 226.225ZM-6.15182 232.144L-5.15172 232.612C-5.61375 233.6 -6.06972 234.59 -6.51956 235.584L-7.52554 235.129C-7.07376 234.131 -6.61583 233.136 -6.15182 232.144ZM-8.86246 238.134L-7.85077 238.577C-8.28825 239.577 -8.71959 240.581 -9.14473 241.588L-10.162 241.158C-9.73502 240.147 -9.30183 239.139 -8.86246 238.134ZM-11.4193 244.19L-10.3967 244.607C-10.8078 245.616 -11.2127 246.629 -11.6114 247.645L-12.6393 247.242C-12.2389 246.221 -11.8322 245.204 -11.4193 244.19ZM-13.8215 250.312L-12.7886 250.702C-13.1744 251.723 -13.5538 252.747 -13.927 253.774L-14.9648 253.397C-14.5901 252.366 -14.209 251.337 -13.8215 250.312ZM-16.0657 256.489L-15.0232 256.853C-15.3823 257.882 -15.735 258.914 -16.0814 259.949L-17.1285 259.599C-16.7806 258.56 -16.4264 257.523 -16.0657 256.489ZM-18.1529 262.726L-17.1014 263.063C-17.4344 264.102 -17.7609 265.144 -18.0811 266.189L-19.1368 265.865C-18.8153 264.816 -18.4873 263.77 -18.1529 262.726ZM-20.0784 269.009L-19.0186 269.319C-19.3247 270.365 -19.6243 271.414 -19.9175 272.466L-20.9811 272.17C-20.6867 271.113 -20.3857 270.06 -20.0784 269.009ZM-21.8448 275.346L-20.7774 275.629C-21.0568 276.683 -21.3296 277.74 -21.5959 278.799L-22.6668 278.53C-22.3994 277.466 -22.1253 276.405 -21.8448 275.346ZM-23.4466 281.718L-22.3724 281.973C-22.6247 283.034 -22.8705 284.097 -23.1097 285.162L-24.187 284.92C-23.9468 283.85 -23.7 282.783 -23.4466 281.718ZM-24.8878 288.138L-23.8074 288.366C-24.0325 289.433 -24.2511 290.501 -24.463 291.573L-25.5462 291.358C-25.3334 290.283 -25.1139 289.209 -24.8878 288.138ZM-26.1625 294.581L-25.0767 294.782C-25.2746 295.854 -25.4659 296.928 -25.6506 298.005L-26.7389 297.818C-26.5535 296.737 -26.3613 295.658 -26.1625 294.581ZM-27.2752 301.068L-26.1846 301.241C-26.3551 302.317 -26.519 303.395 -26.6762 304.476L-27.7688 304.317C-27.611 303.232 -27.4465 302.149 -27.2752 301.068ZM-28.2206 307.566L-27.126 307.711C-27.2693 308.792 -27.4059 309.875 -27.5358 310.959L-28.6321 310.828C-28.5017 309.739 -28.3645 308.651 -28.2206 307.566ZM-29.0031 314.103L-27.9052 314.22C-28.0209 315.303 -28.13 316.388 -28.2323 317.475L-29.3317 317.371C-29.2289 316.28 -29.1194 315.19 -29.0031 314.103ZM-29.6186 320.638L-28.518 320.728C-28.6066 321.815 -28.6884 322.903 -28.7634 323.993L-29.865 323.917C-29.7896 322.822 -29.7075 321.729 -29.6186 320.638ZM-30.0706 327.207L-28.9682 327.269C-29.0293 328.356 -29.0837 329.446 -29.1313 330.537L-30.2345 330.488C-30.1866 329.393 -30.132 328.299 -30.0706 327.207ZM-30.357 333.765L-29.2534 333.799C-29.2873 334.888 -29.3146 335.979 -29.335 337.072L-30.439 337.051C-30.4185 335.954 -30.3911 334.859 -30.357 333.765ZM-30.4801 340.348C-30.4835 340.898 -30.4852 341.449 -30.4852 342C-30.4852 342.551 -30.4835 343.102 -30.4801 343.652L-29.3759 343.645C-29.3793 343.097 -29.381 342.549 -29.381 342C-29.381 341.451 -29.3793 340.903 -29.3759 340.355L-30.4801 340.348ZM-30.439 346.949L-29.335 346.928C-29.3146 348.021 -29.2873 349.112 -29.2534 350.201L-30.357 350.235C-30.3911 349.141 -30.4185 348.046 -30.439 346.949ZM-30.2345 353.512L-29.1313 353.463C-29.0837 354.554 -29.0293 355.644 -28.9682 356.731L-30.0706 356.793C-30.132 355.701 -30.1866 354.607 -30.2345 353.512ZM-29.865 360.083L-28.7634 360.007C-28.6884 361.097 -28.6066 362.185 -28.518 363.272L-29.6186 363.362C-29.7075 362.271 -29.7896 361.178 -29.865 360.083ZM-29.3316 366.629L-28.2323 366.525C-28.13 367.612 -28.0209 368.697 -27.9052 369.78L-29.0031 369.897C-29.1194 368.81 -29.2289 367.72 -29.3316 366.629ZM-28.6321 373.172L-27.5358 373.041C-27.4059 374.125 -27.2693 375.208 -27.126 376.289L-28.2206 376.434C-28.3645 375.349 -28.5017 374.261 -28.6321 373.172ZM-27.7688 379.683L-26.6761 379.524C-26.519 380.605 -26.3551 381.683 -26.1846 382.759L-27.2752 382.932C-27.4465 381.851 -27.611 380.768 -27.7688 379.683ZM-26.7389 386.182L-25.6506 385.995C-25.466 387.072 -25.2746 388.146 -25.0767 389.218L-26.1625 389.419C-26.3613 388.342 -26.5535 387.263 -26.7389 386.182ZM-25.5462 392.642L-24.463 392.427C-24.2511 393.499 -24.0325 394.567 -23.8074 395.634L-24.8878 395.862C-25.1139 394.791 -25.3334 393.717 -25.5462 392.642ZM-24.187 399.08C-23.9468 400.15 -23.7 401.217 -23.4466 402.282L-22.3724 402.027C-22.6247 400.966 -22.8705 399.903 -23.1097 398.838L-24.187 399.08ZM-22.6668 405.47L-21.596 405.201C-21.3297 406.26 -21.0568 407.317 -20.7775 408.371L-21.8448 408.654C-22.1253 407.595 -22.3994 406.534 -22.6668 405.47ZM-20.9811 411.83L-19.9175 411.534C-19.6243 412.585 -19.3247 413.634 -19.0186 414.681L-20.0784 414.991C-20.3858 413.94 -20.6867 412.887 -20.9811 411.83ZM-19.1368 418.135L-18.0811 417.811C-17.761 418.856 -17.4344 419.897 -17.1014 420.936L-18.1529 421.273C-18.4873 420.23 -18.8153 419.184 -19.1368 418.135ZM-17.1285 424.401L-16.0814 424.05C-15.735 425.085 -15.3823 426.118 -15.0232 427.147L-16.0658 427.511C-16.4264 426.477 -16.7807 425.44 -17.1285 424.401ZM-14.9648 430.602L-13.927 430.225C-13.5539 431.253 -13.1744 432.277 -12.7887 433.298L-13.8216 433.688C-14.209 432.663 -14.5901 431.634 -14.9648 430.602ZM-12.6393 436.758L-11.6114 436.355C-11.2128 437.371 -10.8078 438.383 -10.3967 439.393L-11.4194 439.809C-11.8322 438.796 -12.2389 437.778 -12.6393 436.758ZM-10.162 442.841L-9.14479 442.412C-8.71965 443.419 -8.28831 444.423 -7.85083 445.423L-8.86252 445.866C-9.3019 444.861 -9.73508 443.853 -10.162 442.841ZM-7.5256 448.871C-7.07382 449.869 -6.61589 450.864 -6.15189 451.855L-5.15179 451.387C-5.61382 450.4 -6.06978 449.409 -6.51964 448.415L-7.5256 448.871ZM-4.74112 454.821L-3.74704 454.34C-3.2713 455.324 -2.78949 456.304 -2.30168 457.281L-3.28955 457.774C-3.77946 456.793 -4.26334 455.809 -4.74112 454.821ZM-1.80179 460.707C-1.29987 461.681 -0.791962 462.651 -0.278122 463.618L0.696884 463.1C0.185242 462.137 -0.320496 461.171 -0.820282 460.201L-1.80179 460.707ZM1.28242 466.509L2.25078 465.979C2.7757 466.937 3.30652 467.891 3.84317 468.842L2.88164 469.385C2.34268 468.43 1.80959 467.472 1.28242 466.509ZM4.5161 472.237L5.47067 471.682C6.01898 472.625 6.57309 473.565 7.13295 474.5L6.18549 475.067C5.62323 474.128 5.06676 473.184 4.5161 472.237ZM7.89139 477.877L8.83159 477.298C9.40424 478.228 9.98259 479.154 10.5666 480.076L9.63383 480.666C9.0473 479.74 8.46648 478.811 7.89139 477.877ZM11.4105 483.432L12.3357 482.83C12.9311 483.744 13.532 484.654 14.1386 485.56L13.221 486.174C12.6119 485.264 12.0084 484.35 11.4105 483.432ZM15.0674 488.895L15.9771 488.269C16.5959 489.168 17.2203 490.064 17.8501 490.955L16.9484 491.592C16.3159 490.697 15.6889 489.798 15.0674 488.895ZM18.8624 494.264L19.756 493.616C20.3968 494.499 21.043 495.377 21.6947 496.251L20.8093 496.911C20.1549 496.033 19.5059 495.151 18.8624 494.264ZM22.791 499.536L23.668 498.865C24.3313 499.731 24.9999 500.594 25.6738 501.452L24.8054 502.134C24.1286 501.272 23.4571 500.406 22.791 499.536ZM26.8518 504.706L27.7116 504.014C28.3961 504.863 29.086 505.708 29.7811 506.549L28.9301 507.252C28.2321 506.408 27.5393 505.56 26.8518 504.706ZM31.0415 509.773L31.8835 509.059C32.5895 509.891 33.3007 510.719 34.017 511.542L33.1841 512.267C32.4647 511.44 31.7505 510.609 31.0415 509.773ZM35.3576 514.733L36.1813 513.997C36.9079 514.811 37.6396 515.621 38.3763 516.425L37.5619 517.171C36.8221 516.363 36.0873 515.55 35.3576 514.733ZM39.7972 519.582L40.6022 518.826C41.3491 519.622 42.1011 520.412 42.8579 521.198L42.0625 521.964C41.3025 521.175 40.5473 520.381 39.7972 519.582ZM44.3576 524.318L45.1433 523.542C45.9099 524.318 46.6815 525.09 47.4579 525.857L46.682 526.642C45.9023 525.872 45.1275 525.097 44.3576 524.318ZM49.0356 528.937L49.8015 528.142C50.5875 528.899 51.3783 529.651 52.1738 530.398L51.418 531.203C50.6191 530.453 49.8249 529.697 49.0356 528.937ZM53.8289 533.438L54.5745 532.623C55.3792 533.36 56.1885 534.092 57.0025 534.818L56.2672 535.642C55.4498 534.913 54.637 534.178 53.8289 533.438ZM58.7332 537.816L59.458 536.983C60.2812 537.699 61.1089 538.41 61.941 539.116L61.2267 539.958C60.391 539.249 59.5598 538.535 58.7332 537.816ZM63.7476 542.07L64.4512 541.219C65.2918 541.914 66.1368 542.604 66.9862 543.288L66.2934 544.148C65.4403 543.461 64.5917 542.768 63.7476 542.07ZM68.8657 546.194L69.5476 545.326C70.4058 546 71.2684 546.669 72.1353 547.332L71.4643 548.209C70.5937 547.543 69.7275 546.871 68.8657 546.194ZM74.0885 550.191L74.7484 549.305C75.6227 549.957 76.5013 550.603 77.3841 551.244L76.7354 552.137C75.8489 551.494 74.9666 550.845 74.0885 550.191ZM79.4078 554.052L80.0451 553.15C80.9362 553.78 81.8315 554.404 82.731 555.023L82.1052 555.932C81.2019 555.311 80.3027 554.684 79.4078 554.052ZM84.8257 557.779L85.44 556.861C86.346 557.468 87.2561 558.069 88.1702 558.664L87.5675 559.589C86.6495 558.992 85.7356 558.388 84.8257 557.779ZM90.3334 561.366L90.9243 560.433C91.8463 561.017 92.7722 561.596 93.7021 562.168L93.123 563.109C92.1892 562.533 91.2593 561.953 90.3334 561.366ZM95.9328 564.814L96.4998 563.867C97.4353 564.427 98.3746 564.981 99.3176 565.529L98.7626 566.484C97.8156 565.933 96.8723 565.377 95.9328 564.814ZM101.615 568.118L102.158 567.157C103.109 567.693 104.063 568.224 105.021 568.749L104.49 569.717C103.528 569.19 102.57 568.657 101.615 568.118ZM107.382 571.278L107.9 570.303C108.863 570.815 109.829 571.32 110.799 571.82L110.293 572.802C109.319 572.3 108.349 571.792 107.382 571.278ZM113.225 574.289L113.719 573.302C114.696 573.789 115.676 574.271 116.66 574.747L116.179 575.741C115.191 575.263 114.206 574.779 113.225 574.289ZM119.144 577.152C120.136 577.616 121.131 578.074 122.129 578.526L122.585 577.52C121.59 577.07 120.6 576.614 119.612 576.152L119.144 577.152ZM125.134 579.862L125.577 578.851C126.577 579.288 127.581 579.72 128.588 580.145L128.159 581.162C127.147 580.735 126.139 580.302 125.134 579.862ZM131.191 582.419L131.607 581.397C132.617 581.808 133.629 582.213 134.645 582.611L134.242 583.639C133.221 583.239 132.204 582.832 131.191 582.419ZM137.312 584.822L137.702 583.789C138.723 584.174 139.747 584.554 140.774 584.927L140.397 585.965C139.366 585.59 138.337 585.209 137.312 584.822ZM143.489 587.066L143.853 586.023C144.882 586.382 145.915 586.735 146.95 587.081L146.599 588.129C145.56 587.781 144.523 587.426 143.489 587.066ZM149.727 589.153L150.064 588.101C151.103 588.434 152.144 588.761 153.189 589.081L152.865 590.137C151.816 589.815 150.77 589.487 149.727 589.153ZM156.009 591.078L156.319 590.019C157.366 590.325 158.415 590.624 159.466 590.917L159.17 591.981C158.114 591.687 157.06 591.386 156.009 591.078ZM162.346 592.845L162.629 591.777C163.683 592.057 164.74 592.33 165.799 592.596L165.53 593.667C164.466 593.399 163.405 593.125 162.346 592.845ZM168.718 594.447L168.973 593.372C170.034 593.625 171.097 593.871 172.162 594.11L171.92 595.187C170.85 594.947 169.783 594.7 168.718 594.447ZM175.138 595.888L175.366 594.807C176.433 595.033 177.502 595.251 178.573 595.463L178.358 596.546C177.283 596.333 176.209 596.114 175.138 595.888ZM181.581 597.163L181.782 596.077C182.854 596.275 183.928 596.466 185.005 596.651L184.818 597.739C183.737 597.553 182.658 597.361 181.581 597.163ZM188.068 598.275L188.241 597.185C189.317 597.355 190.395 597.519 191.476 597.676L191.317 598.769C190.232 598.611 189.149 598.446 188.068 598.275ZM194.566 599.221L194.711 598.126C195.792 598.269 196.875 598.406 197.96 598.536L197.828 599.632C196.739 599.502 195.651 599.365 194.566 599.221ZM201.103 600.003L201.22 598.905C202.303 599.021 203.388 599.13 204.475 599.232L204.371 600.332C203.28 600.229 202.19 600.119 201.103 600.003ZM207.639 600.619L207.728 599.518C208.815 599.607 209.903 599.688 210.993 599.763L210.917 600.865C209.823 600.79 208.73 600.708 207.639 600.619ZM214.207 601.071L214.269 599.968C215.357 600.029 216.446 600.084 217.537 600.131L217.488 601.235C216.393 601.187 215.299 601.132 214.207 601.071ZM220.765 601.357L220.799 600.253C221.889 600.287 222.98 600.315 224.072 600.335L224.052 601.439C222.954 601.419 221.859 601.391 220.765 601.357ZM227.348 601.48L227.355 600.376C227.696 600.378 228.037 600.38 228.378 600.38C228.585 600.381 228.793 600.381 229 600.381C229.549 600.381 230.097 600.379 230.645 600.376L230.652 601.48C230.102 601.484 229.551 601.485 229 601.485C228.449 601.485 227.898 601.484 227.348 601.48ZM233.949 601.439L233.928 600.335C235.021 600.315 236.112 600.287 237.201 600.253L237.235 601.357C236.141 601.391 235.046 601.419 233.949 601.439ZM240.512 601.234L240.464 600.131C241.554 600.084 242.644 600.029 243.731 599.968L243.793 601.071C242.701 601.132 241.607 601.187 240.512 601.234ZM247.083 600.865L247.007 599.763C248.097 599.688 249.186 599.607 250.272 599.518L250.362 600.619C249.271 600.708 248.178 600.79 247.083 600.865ZM253.629 600.332L253.525 599.232C254.612 599.13 255.697 599.021 256.78 598.905L256.897 600.003C255.81 600.119 254.72 600.229 253.629 600.332ZM260.172 599.632L260.041 598.536C261.126 598.406 262.208 598.269 263.289 598.126L263.434 599.221C262.349 599.365 261.261 599.502 260.172 599.632ZM266.683 598.769L266.525 597.676C267.605 597.519 268.683 597.355 269.759 597.185L269.932 598.275C268.851 598.446 267.768 598.611 266.683 598.769ZM273.182 597.739L272.996 596.651C274.072 596.466 275.146 596.275 276.218 596.077L276.419 597.163C275.342 597.361 274.263 597.553 273.182 597.739ZM279.642 596.546L279.427 595.463C280.499 595.251 281.567 595.033 282.634 594.807L282.862 595.888C281.791 596.114 280.718 596.333 279.642 596.546ZM286.08 595.187L285.838 594.11C286.903 593.871 287.966 593.625 289.027 593.372L289.282 594.447C288.217 594.7 287.15 594.947 286.08 595.187ZM292.47 593.667L292.201 592.596C293.26 592.33 294.317 592.057 295.371 591.777L295.654 592.845C294.595 593.125 293.534 593.399 292.47 593.667ZM298.83 591.981L298.534 590.918C299.586 590.624 300.635 590.325 301.681 590.019L301.991 591.078C300.94 591.386 299.887 591.687 298.83 591.981ZM305.135 590.137C306.184 589.815 307.23 589.487 308.274 589.153L307.936 588.101C306.898 588.434 305.856 588.761 304.811 589.081L305.135 590.137ZM311.401 588.129L311.05 587.081C312.086 586.735 313.118 586.382 314.147 586.023L314.511 587.066C313.477 587.426 312.44 587.781 311.401 588.129ZM317.603 585.965L317.226 584.927C318.253 584.554 319.277 584.174 320.298 583.789L320.688 584.822C319.663 585.209 318.634 585.59 317.603 585.965ZM323.758 583.639L323.355 582.612C324.371 582.213 325.384 581.808 326.393 581.397L326.81 582.419C325.796 582.832 324.779 583.239 323.758 583.639ZM329.841 581.162L329.412 580.145C330.419 579.72 331.423 579.288 332.423 578.851L332.866 579.863C331.861 580.302 330.853 580.735 329.841 581.162ZM335.871 578.526L335.416 577.52C336.41 577.07 337.4 576.614 338.388 576.152L338.856 577.152C337.864 577.616 336.869 578.074 335.871 578.526ZM341.821 575.741L341.34 574.747C342.324 574.271 343.304 573.789 344.281 573.302L344.775 574.29C343.794 574.78 342.809 575.263 341.821 575.741ZM347.707 572.802L347.201 571.82C348.171 571.321 349.137 570.815 350.1 570.303L350.618 571.278C349.651 571.792 348.681 572.3 347.707 572.802ZM353.51 569.718L352.979 568.749C353.937 568.224 354.891 567.694 355.842 567.157L356.385 568.118C355.43 568.657 354.472 569.19 353.51 569.718ZM359.237 566.484L358.682 565.529C359.625 564.981 360.565 564.427 361.5 563.867L362.067 564.815C361.128 565.377 360.184 565.933 359.237 566.484ZM364.877 563.109L364.298 562.168C365.228 561.596 366.154 561.017 367.076 560.433L367.667 561.366C366.741 561.953 365.811 562.534 364.877 563.109ZM370.432 559.59L369.83 558.664C370.744 558.069 371.654 557.468 372.56 556.862L373.174 557.779C372.264 558.388 371.35 558.992 370.432 559.59ZM375.895 555.933L375.269 555.023C376.168 554.404 377.064 553.78 377.955 553.15L378.592 554.052C377.697 554.684 376.798 555.311 375.895 555.933ZM381.264 552.138L380.616 551.244C381.499 550.603 382.377 549.957 383.252 549.305L383.911 550.191C383.033 550.845 382.151 551.494 381.264 552.138ZM386.536 548.209L385.865 547.332C386.732 546.669 387.594 546 388.452 545.326L389.134 546.195C388.272 546.871 387.406 547.543 386.536 548.209ZM391.707 544.148L391.014 543.289C391.863 542.604 392.708 541.914 393.549 541.219L394.252 542.07C393.408 542.768 392.56 543.461 391.707 544.148ZM396.773 539.959L396.059 539.116C396.891 538.41 397.719 537.699 398.542 536.983L399.267 537.816C398.44 538.535 397.609 539.25 396.773 539.959ZM401.733 535.642L400.997 534.819C401.811 534.092 402.621 533.36 403.425 532.624L404.171 533.438C403.363 534.178 402.55 534.913 401.733 535.642ZM406.582 531.203L405.826 530.398C406.622 529.651 407.412 528.899 408.198 528.142L408.964 528.938C408.175 529.698 407.381 530.453 406.582 531.203ZM411.318 526.642L410.542 525.857C411.318 525.09 412.09 524.319 412.857 523.542L413.642 524.318C412.872 525.098 412.098 525.872 411.318 526.642ZM415.937 521.964L415.142 521.199C415.899 520.413 416.651 519.622 417.398 518.826L418.203 519.582C417.453 520.381 416.697 521.175 415.937 521.964ZM420.438 517.171L419.624 516.426C420.36 515.621 421.092 514.812 421.819 513.997L422.642 514.733C421.913 515.55 421.178 516.363 420.438 517.171ZM424.816 512.267L423.983 511.542C424.699 510.719 425.41 509.891 426.116 509.059L426.958 509.773C426.249 510.609 425.535 511.44 424.816 512.267ZM429.07 507.252L428.219 506.549C428.914 505.708 429.604 504.863 430.288 504.014L431.148 504.707C430.461 505.56 429.768 506.408 429.07 507.252ZM433.195 502.134L432.326 501.452C433 500.594 433.669 499.732 434.332 498.865L435.209 499.536C434.543 500.406 433.871 501.273 433.195 502.134ZM437.191 496.912L436.305 496.252C436.957 495.377 437.603 494.499 438.244 493.616L439.138 494.265C438.494 495.151 437.845 496.034 437.191 496.912ZM441.052 491.592L440.15 490.955C440.78 490.064 441.404 489.168 442.023 488.269L442.933 488.895C442.311 489.798 441.684 490.697 441.052 491.592ZM444.779 486.174L443.861 485.56C444.468 484.654 445.069 483.744 445.664 482.83L446.59 483.432C445.992 484.35 445.388 485.264 444.779 486.174ZM448.366 480.667L447.433 480.076C448.017 479.154 448.596 478.228 449.168 477.298L450.109 477.877C449.534 478.811 448.953 479.741 448.366 480.667ZM451.815 475.067L450.867 474.5C451.427 473.565 451.981 472.625 452.529 471.682L453.484 472.237C452.933 473.185 452.377 474.128 451.815 475.067ZM455.118 469.385L454.157 468.842C454.694 467.891 455.224 466.937 455.749 465.979L456.718 466.51C456.19 467.472 455.657 468.43 455.118 469.385ZM458.278 463.618L457.303 463.1C457.815 462.137 458.321 461.171 458.82 460.201L459.802 460.707C459.3 461.681 458.792 462.651 458.278 463.618ZM461.29 457.775C461.78 456.794 462.263 455.809 462.741 454.821L461.747 454.34C461.271 455.324 460.79 456.305 460.302 457.281L461.29 457.775ZM464.152 451.856C464.616 450.864 465.074 449.869 465.526 448.871L464.52 448.416C464.07 449.41 463.614 450.4 463.152 451.388L464.152 451.856ZM466.863 445.866L465.851 445.423C466.288 444.423 466.72 443.419 467.145 442.412L468.162 442.841C467.735 443.853 467.302 444.861 466.863 445.866ZM469.419 439.81L468.397 439.393C468.808 438.384 469.213 437.371 469.612 436.355L470.639 436.758C470.239 437.779 469.832 438.796 469.419 439.81ZM471.822 433.688L470.789 433.298C471.174 432.277 471.554 431.253 471.927 430.226L472.965 430.603C472.59 431.634 472.209 432.663 471.822 433.688ZM474.066 427.511L473.023 427.147C473.382 426.118 473.735 425.085 474.082 424.05L475.129 424.401C474.781 425.44 474.427 426.477 474.066 427.511ZM476.153 421.273L475.102 420.936C475.435 419.898 475.761 418.856 476.081 417.811L477.137 418.135C476.815 419.184 476.487 420.23 476.153 421.273ZM478.079 414.991L477.019 414.681C477.325 413.634 477.624 412.586 477.918 411.534L478.981 411.83C478.687 412.887 478.386 413.94 478.079 414.991ZM479.845 408.654C480.125 407.595 480.4 406.534 480.667 405.47L479.596 405.201C479.33 406.26 479.057 407.317 478.778 408.371L479.845 408.654ZM481.447 402.282C481.7 401.217 481.947 400.15 482.187 399.08L481.11 398.838C480.871 399.903 480.625 400.966 480.373 402.027L481.447 402.282ZM482.888 395.862L481.808 395.634C482.033 394.567 482.251 393.499 482.463 392.427L483.546 392.642C483.334 393.717 483.114 394.791 482.888 395.862ZM484.163 389.419L483.077 389.218C483.275 388.146 483.466 387.072 483.651 385.995L484.739 386.182C484.554 387.263 484.361 388.342 484.163 389.419ZM485.275 382.932L484.185 382.759C484.355 381.683 484.519 380.605 484.676 379.524L485.769 379.683C485.611 380.768 485.447 381.851 485.275 382.932ZM486.221 376.434L485.126 376.289C485.269 375.208 485.406 374.125 485.536 373.041L486.632 373.172C486.502 374.261 486.365 375.349 486.221 376.434ZM487.003 369.897L485.905 369.78C486.021 368.697 486.13 367.612 486.233 366.525L487.332 366.629C487.229 367.72 487.12 368.81 487.003 369.897ZM487.619 363.361L486.518 363.272C486.607 362.185 486.689 361.097 486.764 360.007L487.865 360.083C487.79 361.177 487.708 362.27 487.619 363.361ZM488.071 356.793L486.968 356.731C487.029 355.643 487.084 354.554 487.132 353.463L488.235 353.512C488.187 354.607 488.132 355.701 488.071 356.793ZM488.357 350.235L487.254 350.201C487.288 349.111 487.315 348.02 487.335 346.928L488.439 346.948C488.419 348.046 488.391 349.141 488.357 350.235Z" fill="white"/>
<path fill-rule="evenodd" clip-rule="evenodd" d="M654.992 344.712L653.179 344.7C653.184 343.801 653.187 342.901 653.187 342C653.187 341.099 653.184 340.199 653.179 339.299L654.992 339.288C654.997 340.191 655 341.095 655 342C655 342.904 654.997 343.808 654.992 344.712ZM654.924 333.876C654.89 332.074 654.846 330.276 654.79 328.48L652.978 328.537C653.033 330.325 653.078 332.116 653.112 333.91L654.924 333.876ZM654.588 323.101C654.51 321.303 654.42 319.507 654.319 317.714L652.509 317.816C652.61 319.601 652.699 321.389 652.777 323.18L654.588 323.101ZM653.982 312.313L652.173 312.438C652.05 310.648 651.916 308.861 651.77 307.078L653.577 306.93C653.723 308.722 653.858 310.516 653.982 312.313ZM653.106 301.567L651.301 301.736C651.133 299.952 650.954 298.171 650.764 296.393L652.567 296.201C652.758 297.986 652.937 299.775 653.106 301.567ZM651.958 290.825L650.158 291.04C649.945 289.259 649.72 287.482 649.485 285.708L651.282 285.469C651.518 287.251 651.744 289.036 651.958 290.825ZM650.54 280.135L648.747 280.396C648.489 278.622 648.22 276.852 647.94 275.086L649.73 274.802C650.011 276.576 650.281 278.354 650.54 280.135ZM648.85 269.466L647.063 269.772C646.76 268.005 646.446 266.241 646.121 264.481L647.903 264.152C648.23 265.919 648.545 267.691 648.85 269.466ZM646.891 258.861L645.113 259.213C644.765 257.454 644.406 255.7 644.037 253.949L645.811 253.574C646.182 255.333 646.542 257.095 646.891 258.861ZM644.66 248.292L642.891 248.689C642.499 246.94 642.095 245.194 641.681 243.453L643.445 243.034C643.861 244.782 644.266 246.535 644.66 248.292ZM642.164 237.801L640.406 238.243C639.969 236.504 639.521 234.769 639.063 233.038L640.815 232.574C641.275 234.312 641.725 236.054 642.164 237.801ZM639.397 227.359L637.651 227.846C637.169 226.119 636.678 224.397 636.175 222.679L637.915 222.17C638.42 223.895 638.914 225.625 639.397 227.359ZM636.369 217.009L634.636 217.54C634.11 215.825 633.574 214.115 633.028 212.409L634.754 211.856C635.303 213.569 635.841 215.287 636.369 217.009ZM633.072 206.722L631.353 207.297C630.784 205.598 630.205 203.903 629.616 202.214L631.327 201.616C631.919 203.313 632.501 205.015 633.072 206.722ZM629.52 196.54L627.816 197.159C627.204 195.473 626.581 193.792 625.947 192.115L627.643 191.475C628.279 193.158 628.905 194.847 629.52 196.54ZM625.702 186.434C625.045 184.759 624.377 183.09 623.699 181.425L622.02 182.109C622.695 183.766 623.36 185.429 624.015 187.097L625.702 186.434ZM621.635 176.448L619.965 177.153C619.267 175.499 618.559 173.851 617.841 172.209L619.502 171.483C620.223 173.132 620.934 174.787 621.635 176.448ZM617.307 166.549L615.655 167.297C614.917 165.665 614.168 164.038 613.41 162.417L615.052 161.649C615.813 163.277 616.565 164.91 617.307 166.549ZM612.736 156.781L611.104 157.57C610.323 155.955 609.532 154.345 608.731 152.742L610.353 151.932C611.157 153.542 611.951 155.159 612.736 156.781ZM607.91 147.117L606.299 147.948C605.478 146.356 604.648 144.77 603.808 143.189L605.409 142.338C606.252 143.926 607.086 145.519 607.91 147.117ZM602.847 137.592L601.257 138.463C600.395 136.89 599.524 135.323 598.643 133.763L600.221 132.871C601.106 134.439 601.981 136.012 602.847 137.592ZM597.538 128.188L595.971 129.099C595.071 127.551 594.161 126.009 593.242 124.473L594.797 123.542C595.72 125.085 596.634 126.633 597.538 128.188ZM591.997 118.93L590.453 119.88C589.513 118.354 588.564 116.833 587.605 115.32L589.136 114.35C590.099 115.87 591.053 117.396 591.997 118.93ZM586.219 109.809L584.7 110.798C583.723 109.298 582.736 107.804 581.741 106.316L583.247 105.308C584.247 106.802 585.238 108.302 586.219 109.809ZM580.216 100.841L578.722 101.869C577.706 100.392 576.681 98.9223 575.647 97.4593L577.128 96.413C578.166 97.8823 579.195 99.3585 580.216 100.841ZM573.985 92.0258L572.518 93.0907C571.466 91.6414 570.405 90.199 569.336 88.7636L570.789 87.6803C571.863 89.1218 572.929 90.5704 573.985 92.0258ZM567.536 83.3721L566.096 84.4736C565.007 83.0505 563.909 81.6344 562.803 80.2255L564.229 79.1059C565.34 80.5208 566.442 81.9429 567.536 83.3721ZM560.869 74.8829L559.458 76.0204C558.334 74.6259 557.201 73.2386 556.06 71.8586L557.457 70.7034C558.603 72.0892 559.74 73.4824 560.869 74.8829ZM553.991 66.5649L552.608 67.7376C551.449 66.3714 550.282 65.0126 549.106 63.6613L550.473 62.4713C551.654 63.8283 552.827 65.1929 553.991 66.5649ZM546.905 58.4228L545.553 59.63C544.36 58.2937 543.159 56.9649 541.949 55.6438L543.286 54.4197C544.501 55.7464 545.707 57.0808 546.905 58.4228ZM539.616 50.4617L538.295 51.7026C537.069 50.3966 535.834 49.0983 534.592 47.8079L535.897 46.5506C537.145 47.8464 538.385 49.1502 539.616 50.4617ZM532.13 42.6867L530.84 43.9604C529.581 42.6858 528.314 41.4191 527.04 40.1604L528.314 38.8706C529.594 40.1346 530.866 41.4066 532.13 42.6867ZM524.45 35.1028L523.192 36.4086C521.902 35.166 520.604 33.9316 519.298 32.7053L520.539 31.3838C521.85 32.6152 523.154 33.8549 524.45 35.1028ZM516.58 27.714L515.356 29.0511C514.035 27.8416 512.707 26.6404 511.37 25.4475L512.577 24.0951C513.919 25.2931 515.254 26.4994 516.58 27.714ZM508.529 20.5269L507.339 21.8944C505.988 20.7184 504.629 19.5508 503.263 18.3917L504.435 17.0094C505.807 18.1734 507.172 19.3459 508.529 20.5269ZM500.297 13.5431L499.142 14.9401C497.762 13.799 496.374 12.6665 494.98 11.5426L496.117 10.1311C497.518 11.2598 498.911 12.3972 500.297 13.5431ZM491.894 6.77151L490.775 8.19719C489.366 7.09075 487.95 5.99305 486.527 4.90415L487.628 3.46445C489.057 4.55799 490.479 5.66038 491.894 6.77151ZM483.32 0.211044L482.237 1.66453C480.801 0.594742 479.359 -0.466179 477.91 -1.51816L478.974 -2.98519C480.43 -1.92873 481.878 -0.863297 483.32 0.211044ZM474.587 -6.12754L473.541 -4.64717C472.078 -5.68118 470.608 -6.70615 469.131 -7.72201L470.159 -9.21547C471.642 -8.19528 473.118 -7.16595 474.587 -6.12754ZM465.692 -12.2467L464.684 -10.7404C463.197 -11.7362 461.703 -12.7228 460.202 -13.7002L461.191 -15.2192C462.698 -14.2376 464.199 -13.2468 465.692 -12.2467ZM456.651 -18.1359L455.681 -16.6045C454.167 -17.5634 452.647 -18.5129 451.12 -19.453L452.071 -20.9965C453.604 -20.0524 455.13 -19.0988 456.651 -18.1359ZM447.458 -23.7971L446.527 -22.2417C444.991 -23.1608 443.449 -24.0705 441.901 -24.9706L442.812 -26.5378C444.367 -25.6337 445.916 -24.7202 447.458 -23.7971ZM438.129 -29.2211L437.238 -27.6425C435.677 -28.5236 434.11 -29.395 432.538 -30.2568L433.409 -31.8466C434.988 -30.9811 436.562 -30.1059 438.129 -29.2211ZM428.662 -34.4086L427.811 -32.8079C426.231 -33.6478 424.645 -34.4781 423.052 -35.2986L423.883 -36.9099C425.482 -36.0859 427.075 -35.2521 428.662 -34.4086ZM419.069 -39.3524L418.259 -37.7306C416.655 -38.5315 415.046 -39.3225 413.43 -40.1035L414.22 -41.7355C415.842 -40.9511 417.458 -40.1567 419.069 -39.3524ZM409.351 -44.0516L408.583 -42.4097C406.962 -43.1682 405.336 -43.9168 403.704 -44.6553L404.451 -46.3068C406.09 -45.5651 407.723 -44.8133 409.351 -44.0516ZM399.518 -48.5016L398.791 -46.8407C397.149 -47.559 395.501 -48.2671 393.848 -48.9651L394.553 -50.6351C396.213 -49.9341 397.868 -49.223 399.518 -48.5016ZM389.575 -52.6993L388.891 -51.0204C387.234 -51.6953 385.571 -52.3601 383.904 -53.0146L384.566 -54.702C386.241 -54.0447 387.911 -53.3771 389.575 -52.6993ZM379.526 -56.643L378.885 -54.9473C377.209 -55.5806 375.527 -56.2035 373.841 -56.8161L374.46 -58.52C376.153 -57.9047 377.842 -57.2791 379.526 -56.643ZM369.384 -60.3274L368.787 -58.6158C367.097 -59.2053 365.402 -59.7844 363.703 -60.3531L364.278 -62.0721C365.985 -61.501 367.687 -60.9194 369.384 -60.3274ZM359.144 -63.7539C357.431 -64.3029 355.713 -64.8413 353.991 -65.3692L353.46 -63.636C355.175 -63.1104 356.885 -62.5742 358.591 -62.0276L359.144 -63.7539ZM348.83 -66.9149L348.321 -65.1751C346.603 -65.6776 344.881 -66.1695 343.154 -66.6508L343.641 -68.397C345.375 -67.9136 347.105 -67.4196 348.83 -66.9149ZM338.426 -69.8149L337.962 -68.0626C336.231 -68.5212 334.496 -68.9692 332.757 -69.4064L333.199 -71.1644C334.946 -70.7253 336.688 -70.2755 338.426 -69.8149ZM327.966 -72.4447L327.547 -70.6811C325.806 -71.0953 324.06 -71.4988 322.311 -71.8915L322.708 -73.6602C324.465 -73.2659 326.218 -72.8607 327.966 -72.4447ZM317.425 -74.8107L317.051 -73.037C315.3 -73.4066 313.546 -73.7653 311.787 -74.1132L312.139 -75.8915C313.905 -75.5421 315.667 -75.1818 317.425 -74.8107ZM306.848 -76.9033L306.519 -75.1207C304.759 -75.4457 302.995 -75.7598 301.228 -76.063L301.534 -77.8497C303.309 -77.5452 305.081 -77.2297 306.848 -76.9033ZM296.198 -78.7301L295.914 -76.9397C294.148 -77.2196 292.378 -77.4886 290.604 -77.7466L290.865 -79.5405C292.646 -79.2814 294.424 -79.0112 296.198 -78.7301ZM285.53 -80.2822L285.292 -78.4851C283.518 -78.7204 281.74 -78.9446 279.959 -79.1578L280.175 -80.9578C281.964 -80.7436 283.749 -80.5184 285.53 -80.2822ZM274.799 -81.5668L274.606 -79.7643C272.829 -79.9544 271.047 -80.1334 269.263 -80.3014L269.433 -82.1062C271.225 -81.9375 273.014 -81.7577 274.799 -81.5668ZM264.069 -82.5772L263.922 -80.7704C262.138 -80.9158 260.352 -81.0501 258.562 -81.1733L258.686 -82.9817C260.484 -82.858 262.278 -82.7232 264.069 -82.5772ZM253.285 -83.3194L253.183 -81.5095C251.398 -81.6098 249.61 -81.6991 247.819 -81.7773L247.898 -83.5883C249.697 -83.5098 251.492 -83.4201 253.285 -83.3194ZM242.519 -83.7895L242.463 -81.9777C240.675 -82.0334 238.884 -82.0781 237.09 -82.1116L237.124 -83.9241C238.925 -83.8904 240.724 -83.8455 242.519 -83.7895ZM231.711 -83.9916L231.7 -82.1788C230.801 -82.1844 229.901 -82.1872 229 -82.1872C228.099 -82.1872 227.199 -82.1844 226.299 -82.1788L226.288 -83.9915C227.191 -83.9972 228.095 -84 229 -84C229.904 -84 230.808 -83.9972 231.711 -83.9916ZM220.876 -83.9241L220.91 -82.1116C219.116 -82.0781 217.325 -82.0334 215.537 -81.9776L215.48 -83.7895C217.276 -83.8455 219.074 -83.8904 220.876 -83.9241ZM210.101 -83.5883L210.18 -81.7773C208.389 -81.6991 206.601 -81.6098 204.816 -81.5095L204.714 -83.3194C206.507 -83.4201 208.303 -83.5098 210.101 -83.5883ZM199.313 -82.9817L199.438 -81.1732C197.648 -81.05 195.861 -80.9157 194.078 -80.7704L193.93 -82.5772C195.722 -82.7231 197.516 -82.858 199.313 -82.9817ZM188.567 -82.1062L188.736 -80.3014C186.952 -80.1334 185.171 -79.9543 183.393 -79.7643L183.201 -81.5668C184.986 -81.7576 186.775 -81.9374 188.567 -82.1062ZM177.825 -80.9577L178.04 -79.1578C176.259 -78.9446 174.482 -78.7203 172.708 -78.4851L172.469 -80.2821C174.251 -80.5184 176.036 -80.7436 177.825 -80.9577ZM167.135 -79.5405L167.396 -77.7466C165.622 -77.4886 163.852 -77.2196 162.086 -76.9397L161.802 -78.7301C163.576 -79.0112 165.354 -79.2813 167.135 -79.5405ZM156.466 -77.8496L156.772 -76.063C155.005 -75.7598 153.241 -75.4457 151.481 -75.1207L151.152 -76.9033C152.919 -77.2297 154.691 -77.5452 156.466 -77.8496ZM145.861 -75.8915L146.213 -74.1132C144.454 -73.7653 142.7 -73.4065 140.949 -73.037L140.574 -74.8106C142.333 -75.1818 144.095 -75.5421 145.861 -75.8915ZM135.292 -73.6602L135.689 -71.8915C133.94 -71.4988 132.194 -71.0953 130.453 -70.6811L130.034 -72.4447C131.782 -72.8606 133.535 -73.2658 135.292 -73.6602ZM124.801 -71.1644L125.243 -69.4064C123.504 -68.9692 121.769 -68.5212 120.038 -68.0626L119.574 -69.8149C121.312 -70.2755 123.054 -70.7253 124.801 -71.1644ZM114.359 -68.397L114.846 -66.6508C113.119 -66.1695 111.397 -65.6776 109.679 -65.1751L109.17 -66.9149C110.895 -67.4196 112.625 -67.9136 114.359 -68.397ZM104.009 -65.3692L104.54 -63.636C102.825 -63.1104 101.115 -62.5743 99.4092 -62.0276L98.856 -63.7539C100.569 -64.3029 102.287 -64.8414 104.009 -65.3692ZM93.7217 -62.0722L94.297 -60.3531C92.5977 -59.7845 90.9031 -59.2053 89.2135 -58.6158L88.6163 -60.3274C90.3133 -60.9195 92.0151 -61.5011 93.7217 -62.0722ZM83.5403 -58.52L84.1592 -56.8162C82.4729 -56.2036 80.7915 -55.5806 79.1152 -54.9473L78.4745 -56.6431C80.1581 -57.2791 81.8467 -57.9048 83.5403 -58.52ZM73.4344 -54.7021L74.0966 -53.0147C72.4289 -52.3602 70.7663 -51.6954 69.1089 -51.0205L68.4252 -52.6993C70.0897 -53.3772 71.7594 -54.0448 73.4344 -54.7021ZM63.4476 -50.6352L64.1526 -48.9652C62.4993 -48.2672 60.8514 -47.5591 59.2089 -46.8408L58.4826 -48.5018C60.1322 -49.2231 61.7872 -49.9343 63.4476 -50.6352ZM53.5492 -46.3069L54.2966 -44.6554C52.6647 -43.9169 51.0383 -43.1683 49.4174 -42.4098L48.6491 -44.0517C50.2769 -44.8135 51.9103 -45.5652 53.5492 -46.3069ZM43.7807 -41.7356L44.5699 -40.1037C42.9547 -39.3226 41.3452 -38.5316 39.7415 -37.7308L38.9316 -39.3526C40.5422 -40.1569 42.1586 -40.9512 43.7807 -41.7356ZM34.1174 -36.9101L34.9478 -35.2987C33.3558 -34.4782 31.7696 -33.648 30.1893 -32.808L29.3385 -34.4087C30.9255 -35.2523 32.5185 -36.0861 34.1174 -36.9101ZM24.5915 -31.8467L25.4626 -30.257C23.8898 -29.3952 22.3231 -28.5237 20.7625 -27.6427L19.8713 -29.2212C21.4386 -30.1061 23.012 -30.9813 24.5915 -31.8467ZM15.1881 -26.5379L16.0993 -24.9708C14.551 -24.0706 13.009 -23.1609 11.4733 -22.2418L10.5423 -23.7973C12.0846 -24.7203 13.6332 -25.6339 15.1881 -26.5379ZM5.92955 -20.9967L6.88011 -19.4532C5.35356 -18.5131 3.83342 -17.5636 2.31976 -16.6047L1.3497 -18.1361C2.86983 -19.099 4.39647 -20.0526 5.92955 -20.9967ZM-3.19104 -15.2194L-2.20168 -13.7004C-3.70229 -12.723 -5.19632 -11.7364 -6.68372 -10.7406L-7.69218 -12.2469C-6.19846 -13.247 -4.69806 -14.2378 -3.19104 -15.2194ZM-12.1586 -9.21567L-11.1312 -7.72218C-12.6078 -6.70632 -14.0777 -5.68136 -15.5407 -4.64736L-16.587 -6.12774C-15.1177 -7.16615 -13.6415 -8.19547 -12.1586 -9.21567ZM-20.9742 -2.9854L-19.9093 -1.51836C-21.3586 -0.466377 -22.801 0.594543 -24.2364 1.66434L-25.3197 0.210854C-23.8782 -0.863495 -22.4296 -1.92894 -20.9742 -2.9854ZM-29.6279 3.46426L-28.5264 4.90396C-29.9495 5.99286 -31.3656 7.09055 -32.7745 8.19698L-33.8941 6.7713C-32.4792 5.66016 -31.0571 4.55779 -29.6279 3.46426ZM-38.1171 10.1309L-36.9796 11.5424C-38.3741 12.6663 -39.7614 13.7988 -41.1414 14.9399L-42.2966 13.5429C-40.9108 12.3969 -39.5176 11.2596 -38.1171 10.1309ZM-46.4351 17.0092L-45.2624 18.3915C-46.6286 19.5506 -47.9874 20.7182 -49.3387 21.8942L-50.5288 20.5267C-49.1717 19.3457 -47.8071 18.1732 -46.4351 17.0092ZM-54.5772 24.0949L-53.37 25.4473C-54.7063 26.6402 -56.0351 27.8414 -57.3562 29.0509L-58.5803 27.7138C-57.2536 26.4992 -55.9192 25.2929 -54.5772 24.0949ZM-62.5383 31.3836L-61.2974 32.7051C-62.6034 33.9314 -63.9017 35.1658 -65.1921 36.4084L-66.4494 35.1026C-65.1536 33.8547 -63.8498 32.615 -62.5383 31.3836ZM-70.3133 38.8704L-69.0396 40.1602C-70.3142 41.4189 -71.5809 42.6856 -72.8396 43.9602L-74.1294 42.6864C-72.8654 41.4064 -71.5934 40.1344 -70.3133 38.8704ZM-77.8972 46.5503L-76.5914 47.8077C-77.834 49.0981 -79.0684 50.3963 -80.2947 51.7024L-81.6162 50.4615C-80.3847 49.15 -79.1451 47.8462 -77.8972 46.5503ZM-85.286 54.4195L-83.9489 55.6436C-85.1584 56.9647 -86.3596 58.2934 -87.5525 59.6298L-88.9049 58.4226C-87.7069 57.0806 -86.5006 55.7462 -85.286 54.4195ZM-92.4731 62.471L-91.1056 63.661C-92.2816 65.0123 -93.4492 66.3711 -94.6083 67.7374L-95.9906 66.5647C-94.8266 65.1926 -93.6541 63.828 -92.4731 62.471ZM-99.4569 70.7032L-98.0599 71.8584C-99.201 73.2383 -100.334 74.6256 -101.457 76.0202L-102.869 74.8826C-101.74 73.4822 -100.603 72.089 -99.4569 70.7032ZM-106.229 79.1056L-104.803 80.2252C-105.909 81.6341 -107.007 83.0502 -108.096 84.4734L-109.536 83.3718C-108.442 81.9426 -107.34 80.5205 -106.229 79.1056ZM-112.789 87.6801L-111.335 88.7633C-112.405 90.1987 -113.466 91.6411 -114.518 93.0904L-115.985 92.0256C-114.929 90.5701 -113.863 89.1216 -112.789 87.6801ZM-119.128 96.4128L-117.647 97.459C-118.681 98.922 -119.706 100.392 -120.722 101.869L-122.215 100.841C-121.195 99.3582 -120.166 97.882 -119.128 96.4128ZM-125.247 105.308L-123.74 106.316C-124.736 107.803 -125.723 109.297 -126.7 110.798L-128.219 109.809C-127.238 108.302 -126.247 106.801 -125.247 105.308ZM-131.136 114.349L-129.605 115.319C-130.563 116.833 -131.513 118.353 -132.453 119.88L-133.997 118.929C-133.052 117.396 -132.099 115.87 -131.136 114.349ZM-136.797 123.542L-135.242 124.473C-136.161 126.009 -137.07 127.551 -137.971 129.099L-139.538 128.188C-138.634 126.633 -137.72 125.084 -136.797 123.542ZM-142.221 132.871L-140.643 133.762C-141.524 135.323 -142.395 136.89 -143.257 138.462L-144.847 137.591C-143.981 136.012 -143.106 134.438 -142.221 132.871ZM-147.409 142.338L-145.808 143.189C-146.648 144.769 -147.478 146.355 -148.299 147.948L-149.91 147.117C-149.086 145.518 -148.252 143.925 -147.409 142.338ZM-152.352 151.931L-150.731 152.741C-151.531 154.345 -152.322 155.954 -153.104 157.57L-154.735 156.78C-153.951 155.158 -153.157 153.542 -152.352 151.931ZM-157.052 161.649L-155.41 162.417C-156.168 164.038 -156.917 165.664 -157.655 167.296L-159.307 166.549C-158.565 164.91 -157.813 163.277 -157.052 161.649ZM-161.502 171.482L-159.841 172.209C-160.559 173.851 -161.267 175.499 -161.965 177.152L-163.635 176.447C-162.934 174.787 -162.223 173.132 -161.502 171.482ZM-165.699 181.425L-164.02 182.109C-164.695 183.766 -165.36 185.429 -166.015 187.096L-167.702 186.434C-167.045 184.759 -166.377 183.089 -165.699 181.425ZM-169.643 191.474L-167.947 192.115C-168.581 193.791 -169.204 195.473 -169.816 197.159L-171.52 196.54C-170.905 194.847 -170.279 193.158 -169.643 191.474ZM-173.327 201.616L-171.616 202.213C-172.205 203.903 -172.784 205.598 -173.353 207.297L-175.072 206.722C-174.501 205.015 -173.919 203.313 -173.327 201.616ZM-176.754 211.856L-175.028 212.409C-175.574 214.115 -176.11 215.825 -176.636 217.54L-178.369 217.009C-177.841 215.287 -177.303 213.569 -176.754 211.856ZM-179.915 222.17L-178.175 222.679C-178.678 224.397 -179.17 226.119 -179.651 227.846L-181.397 227.359C-180.914 225.625 -180.42 223.895 -179.915 222.17ZM-182.815 232.574L-181.063 233.038C-181.521 234.769 -181.969 236.504 -182.406 238.243L-184.164 237.801C-183.725 236.054 -183.275 234.312 -182.815 232.574ZM-185.445 243.034L-183.681 243.453C-184.095 245.194 -184.499 246.94 -184.891 248.689L-186.66 248.292C-186.266 246.535 -185.861 244.782 -185.445 243.034ZM-187.811 253.575L-186.037 253.949C-186.407 255.7 -186.765 257.454 -187.113 259.213L-188.892 258.861C-188.542 257.095 -188.182 255.333 -187.811 253.575ZM-189.903 264.152L-188.121 264.481C-188.446 266.241 -188.76 268.005 -189.063 269.772L-190.85 269.466C-190.545 267.691 -190.23 265.919 -189.903 264.152ZM-191.73 274.802L-189.94 275.086C-190.22 276.852 -190.489 278.622 -190.747 280.396L-192.541 280.135C-192.281 278.354 -192.011 276.576 -191.73 274.802ZM-193.282 285.47L-191.485 285.708C-191.72 287.482 -191.945 289.26 -192.158 291.041L-193.958 290.825C-193.744 289.036 -193.518 287.251 -193.282 285.47ZM-194.567 296.201L-192.764 296.394C-192.954 298.171 -193.133 299.953 -193.301 301.737L-195.106 301.567C-194.937 299.775 -194.758 297.986 -194.567 296.201ZM-195.577 306.931L-193.77 307.078C-193.916 308.862 -194.05 310.648 -194.173 312.438L-195.982 312.314C-195.858 310.516 -195.723 308.722 -195.577 306.931ZM-196.319 317.715L-194.509 317.817C-194.61 319.602 -194.699 321.39 -194.777 323.181L-196.588 323.102C-196.51 321.303 -196.42 319.508 -196.319 317.715ZM-196.79 328.481L-194.978 328.537C-195.033 330.325 -195.078 332.116 -195.112 333.91L-196.924 333.876C-196.89 332.075 -196.846 330.276 -196.79 328.481ZM-196.992 339.289C-196.997 340.192 -197 341.096 -197 342C-197 342.905 -196.997 343.809 -196.992 344.712L-195.179 344.701C-195.184 343.801 -195.187 342.901 -195.187 342C-195.187 341.099 -195.184 340.199 -195.179 339.3L-196.992 339.289ZM-196.924 350.124L-195.112 350.09C-195.078 351.884 -195.033 353.675 -194.978 355.463L-196.79 355.52C-196.846 353.724 -196.89 351.926 -196.924 350.124ZM-196.588 360.899L-194.777 360.82C-194.699 362.611 -194.61 364.399 -194.509 366.184L-196.319 366.286C-196.42 364.493 -196.51 362.697 -196.588 360.899ZM-195.982 371.687L-194.173 371.562C-194.05 373.352 -193.916 375.139 -193.77 376.922L-195.577 377.069C-195.723 375.278 -195.858 373.484 -195.982 371.687ZM-195.106 382.433L-193.301 382.264C-193.133 384.048 -192.954 385.829 -192.764 387.607L-194.567 387.799C-194.758 386.014 -194.937 384.225 -195.106 382.433ZM-193.958 393.175L-192.158 392.96C-191.945 394.741 -191.72 396.518 -191.485 398.292L-193.282 398.531C-193.518 396.749 -193.744 394.964 -193.958 393.175ZM-192.54 403.865L-190.747 403.604C-190.489 405.378 -190.22 407.148 -189.94 408.914L-191.73 409.198C-192.011 407.424 -192.281 405.646 -192.54 403.865ZM-190.85 414.534L-189.063 414.228C-188.76 415.995 -188.446 417.759 -188.121 419.519L-189.903 419.848C-190.23 418.081 -190.545 416.309 -190.85 414.534ZM-188.891 425.139L-187.113 424.787C-186.765 426.546 -186.407 428.3 -186.037 430.051L-187.811 430.426C-188.182 428.667 -188.542 426.905 -188.891 425.139ZM-186.66 435.708L-184.891 435.311C-184.499 437.06 -184.095 438.806 -183.681 440.547L-185.445 440.966C-185.861 439.218 -186.266 437.465 -186.66 435.708ZM-184.164 446.199L-182.406 445.757C-181.969 447.496 -181.521 449.231 -181.063 450.962L-182.815 451.426C-183.275 449.688 -183.725 447.946 -184.164 446.199ZM-181.397 456.641L-179.651 456.154C-179.17 457.881 -178.678 459.603 -178.175 461.321L-179.915 461.83C-180.42 460.105 -180.914 458.375 -181.397 456.641ZM-178.369 466.991L-176.636 466.46C-176.11 468.175 -175.574 469.885 -175.028 471.591L-176.754 472.144C-177.303 470.431 -177.841 468.713 -178.369 466.991ZM-175.072 477.278L-173.353 476.703C-172.784 478.402 -172.205 480.097 -171.616 481.786L-173.327 482.384C-173.919 480.687 -174.501 478.985 -175.072 477.278ZM-171.52 487.46C-170.905 489.153 -170.279 490.842 -169.643 492.525L-167.947 491.885C-168.581 490.208 -169.204 488.527 -169.816 486.841L-171.52 487.46ZM-167.702 497.566L-166.015 496.903C-165.36 498.571 -164.695 500.234 -164.02 501.891L-165.699 502.575C-166.377 500.91 -167.045 499.241 -167.702 497.566ZM-163.635 507.552L-161.965 506.847C-161.267 508.501 -160.559 510.149 -159.841 511.791L-161.502 512.517C-162.223 510.868 -162.934 509.213 -163.635 507.552ZM-159.307 517.451L-157.655 516.703C-156.917 518.335 -156.168 519.962 -155.41 521.583L-157.052 522.351C-157.813 520.723 -158.565 519.09 -159.307 517.451ZM-154.736 527.219L-153.104 526.43C-152.323 528.045 -151.532 529.655 -150.731 531.258L-152.353 532.068C-153.157 530.458 -153.951 528.841 -154.736 527.219ZM-149.91 536.883L-148.299 536.052C-147.478 537.644 -146.648 539.23 -145.808 540.811L-147.409 541.661C-148.252 540.074 -149.086 538.481 -149.91 536.883ZM-144.847 546.408L-143.257 545.537C-142.395 547.11 -141.524 548.677 -140.643 550.237L-142.221 551.129C-143.106 549.561 -143.981 547.988 -144.847 546.408ZM-139.538 555.812L-137.971 554.901C-137.071 556.449 -136.161 557.991 -135.242 559.527L-136.797 560.458C-137.72 558.915 -138.634 557.367 -139.538 555.812ZM-133.997 565.07L-132.453 564.12C-131.513 565.646 -130.564 567.167 -129.605 568.68L-131.136 569.65C-132.099 568.13 -133.053 566.604 -133.997 565.07ZM-128.219 574.191C-127.238 575.698 -126.247 577.198 -125.247 578.692L-123.741 577.684C-124.736 576.196 -125.723 574.702 -126.7 573.202L-128.219 574.191ZM-122.216 583.159L-120.722 582.131C-119.706 583.608 -118.681 585.078 -117.647 586.541L-119.128 587.587C-120.166 586.118 -121.195 584.642 -122.216 583.159ZM-115.985 591.974L-114.518 590.909C-113.466 592.359 -112.405 593.801 -111.336 595.236L-112.789 596.32C-113.863 594.878 -114.929 593.43 -115.985 591.974ZM-109.536 600.628L-108.096 599.526C-107.007 600.95 -105.909 602.366 -104.803 603.774L-106.229 604.894C-107.34 603.479 -108.442 602.057 -109.536 600.628ZM-102.869 609.117L-101.458 607.98C-100.334 609.374 -99.2012 610.761 -98.0601 612.141L-99.4571 613.297C-100.603 611.911 -101.74 610.518 -102.869 609.117ZM-95.9908 617.435L-94.6085 616.262C-93.4494 617.629 -92.2818 618.987 -91.1058 620.339L-92.4733 621.529C-93.6543 620.172 -94.8268 618.807 -95.9908 617.435ZM-88.9051 625.577L-87.5527 624.37C-86.3598 625.706 -85.1586 627.035 -83.9491 628.356L-85.2862 629.58C-86.5008 628.254 -87.7071 626.919 -88.9051 625.577ZM-81.6164 633.538L-80.2949 632.297C-79.0686 633.603 -77.8342 634.902 -76.5916 636.192L-77.8974 637.449C-79.1453 636.154 -80.385 634.85 -81.6164 633.538ZM-74.1296 641.313L-72.8398 640.04C-71.5811 641.314 -70.3144 642.581 -69.0398 643.84L-70.3136 645.129C-71.5936 643.865 -72.8656 642.593 -74.1296 641.313ZM-66.4497 648.897L-65.1923 647.591C-63.9019 648.834 -62.6037 650.068 -61.2976 651.295L-62.5385 652.616C-63.85 651.385 -65.1538 650.145 -66.4497 648.897ZM-58.5805 656.286L-57.3564 654.949C-56.0353 656.158 -54.7066 657.36 -53.3702 658.552L-54.5774 659.905C-55.9194 658.707 -57.2538 657.501 -58.5805 656.286ZM-50.529 663.473L-49.339 662.106C-47.9877 663.282 -46.6289 664.449 -45.2626 665.608L-46.4353 666.991C-47.8074 665.827 -49.172 664.654 -50.529 663.473ZM-42.2968 670.457L-41.1416 669.06C-39.7617 670.201 -38.3744 671.333 -36.9798 672.457L-38.1173 673.869C-39.5178 672.74 -40.911 671.603 -42.2968 670.457ZM-33.8944 677.229L-32.7748 675.803C-31.3659 676.909 -29.9498 678.007 -28.5266 679.096L-29.6282 680.536C-31.0574 679.442 -32.4795 678.34 -33.8944 677.229ZM-25.3199 683.789L-24.2367 682.335C-22.8013 683.405 -21.3589 684.466 -19.9096 685.518L-20.9744 686.985C-22.4299 685.929 -23.8784 684.863 -25.3199 683.789ZM-16.5872 690.128L-15.541 688.647C-14.078 689.681 -12.6081 690.706 -11.1314 691.722L-12.1589 693.215C-13.6418 692.195 -15.118 691.166 -16.5872 690.128ZM-7.69249 696.247L-6.68402 694.74C-5.19661 695.736 -3.70259 696.723 -2.20198 697.7L-3.19131 699.219C-4.69833 698.238 -6.19875 697.247 -7.69249 696.247ZM1.34943 702.136L2.31946 700.604C3.83313 701.563 5.35327 702.513 6.87981 703.453L5.92924 704.996C4.39618 704.052 2.86955 703.099 1.34943 702.136ZM10.5421 707.797L11.473 706.242C13.0087 707.161 14.5507 708.07 16.099 708.971L15.1878 710.538C13.633 709.634 12.0844 708.72 10.5421 707.797ZM19.871 713.221L20.7622 711.643C22.3228 712.524 23.8896 713.395 25.4623 714.257L24.5913 715.847C23.0117 714.981 21.4383 714.106 19.871 713.221ZM29.3382 718.409L30.1891 716.808C31.7693 717.648 33.3555 718.478 34.9475 719.299L34.1171 720.91C32.5182 720.086 30.9252 719.252 29.3382 718.409ZM38.9314 723.352L39.7412 721.731C41.3449 722.531 42.9544 723.322 44.5696 724.104L43.7804 725.735C42.1583 724.951 40.5419 724.157 38.9314 723.352ZM48.6488 728.052L49.4171 726.41C51.038 727.168 52.6644 727.917 54.2963 728.655L53.549 730.307C51.91 729.565 50.2766 728.813 48.6488 728.052ZM58.4823 732.502L59.2086 730.841C60.8511 731.559 62.4991 732.267 64.1523 732.965L63.4473 734.635C61.7869 733.934 60.1319 733.223 58.4823 732.502ZM68.425 736.699L69.1087 735.02C70.7661 735.695 72.4286 736.36 74.0964 737.015L73.4342 738.702C71.7592 738.045 70.0895 737.377 68.425 736.699ZM78.4743 740.643L79.115 738.947C80.7913 739.581 82.4727 740.203 84.1591 740.816L83.5402 742.52C81.8465 741.905 80.1579 741.279 78.4743 740.643ZM88.6162 744.327L89.2134 742.616C90.903 743.205 92.5976 743.784 94.2969 744.353L93.7216 746.072C92.015 745.501 90.3132 744.919 88.6162 744.327ZM98.8559 747.754L99.4091 746.028C101.115 746.574 102.825 747.11 104.54 747.636L104.009 749.369C102.287 748.841 100.569 748.303 98.8559 747.754ZM109.17 750.915L109.679 749.175C111.397 749.678 113.119 750.169 114.846 750.651L114.359 752.397C112.625 751.914 110.895 751.42 109.17 750.915ZM119.574 753.815C121.312 754.275 123.054 754.725 124.801 755.164L125.243 753.406C123.504 752.969 121.769 752.521 120.038 752.063L119.574 753.815ZM130.034 756.445L130.453 754.681C132.194 755.095 133.94 755.499 135.689 755.891L135.292 757.66C133.535 757.266 131.782 756.861 130.034 756.445ZM140.575 758.811L140.949 757.037C142.7 757.407 144.454 757.765 146.213 758.113L145.861 759.892C144.095 759.542 142.333 759.182 140.575 758.811ZM151.152 760.903L151.481 759.121C153.241 759.446 155.005 759.76 156.772 760.063L156.466 761.85C154.691 761.545 152.919 761.23 151.152 760.903ZM161.802 762.73L162.086 760.94C163.852 761.22 165.622 761.489 167.396 761.747L167.135 763.541C165.354 763.281 163.576 763.011 161.802 762.73ZM172.47 764.282L172.708 762.485C174.482 762.72 176.26 762.945 178.041 763.158L177.825 764.958C176.036 764.744 174.251 764.518 172.47 764.282ZM183.201 765.567L183.394 763.764C185.171 763.954 186.953 764.133 188.737 764.301L188.567 766.106C186.775 765.938 184.986 765.758 183.201 765.567ZM193.931 766.577C195.722 766.723 197.516 766.858 199.314 766.982L199.438 765.173C197.648 765.05 195.862 764.916 194.078 764.77L193.931 766.577ZM204.715 767.319L204.817 765.509C206.602 765.61 208.39 765.699 210.181 765.777L210.102 767.588C208.303 767.51 206.507 767.42 204.715 767.319ZM215.481 767.79L215.537 765.978C217.325 766.033 219.116 766.078 220.91 766.112L220.876 767.924C219.075 767.89 217.276 767.846 215.481 767.79ZM226.288 767.992L226.3 766.179C227.199 766.184 228.099 766.187 229 766.187C229.901 766.187 230.801 766.184 231.701 766.179L231.712 767.992C230.809 767.997 229.905 768 229 768C228.096 768 227.192 767.997 226.288 767.992ZM237.124 767.924C238.926 767.89 240.724 767.846 242.52 767.79L242.463 765.978C240.675 766.033 238.884 766.078 237.09 766.112L237.124 767.924ZM247.899 767.588C249.697 767.51 251.493 767.42 253.286 767.319L253.184 765.509C251.399 765.61 249.611 765.699 247.82 765.777L247.899 767.588ZM258.687 766.982L258.562 765.173C260.352 765.05 262.139 764.916 263.922 764.77L264.069 766.577C262.278 766.723 260.484 766.858 258.687 766.982ZM269.433 766.106L269.264 764.301C271.048 764.133 272.829 763.954 274.607 763.764L274.799 765.567C273.014 765.758 271.225 765.937 269.433 766.106ZM280.175 764.958L279.96 763.158C281.741 762.945 283.518 762.72 285.292 762.485L285.531 764.282C283.749 764.518 281.964 764.744 280.175 764.958ZM290.865 763.54L290.604 761.747C292.378 761.489 294.148 761.22 295.914 760.94L296.198 762.73C294.424 763.011 292.646 763.281 290.865 763.54ZM301.534 761.85L301.228 760.063C302.995 759.76 304.759 759.446 306.519 759.121L306.848 760.903C305.081 761.23 303.309 761.545 301.534 761.85ZM312.139 759.891C313.905 759.542 315.667 759.182 317.426 758.811L317.051 757.037C315.3 757.406 313.546 757.765 311.787 758.113L312.139 759.891ZM322.708 757.66L322.311 755.891C324.06 755.499 325.806 755.095 327.547 754.681L327.966 756.445C326.218 756.861 324.465 757.266 322.708 757.66ZM333.199 755.164L332.757 753.406C334.496 752.969 336.231 752.521 337.962 752.063L338.426 753.815C336.688 754.275 334.946 754.725 333.199 755.164ZM343.641 752.397L343.154 750.651C344.881 750.169 346.603 749.678 348.321 749.175L348.83 750.915C347.105 751.42 345.375 751.914 343.641 752.397ZM353.991 749.369L353.46 747.636C355.175 747.11 356.885 746.574 358.591 746.028L359.144 747.754C357.431 748.303 355.713 748.841 353.991 749.369ZM364.278 746.072L363.703 744.353C365.402 743.784 367.097 743.205 368.786 742.616L369.384 744.327C367.687 744.919 365.985 745.501 364.278 746.072ZM374.46 742.52C376.153 741.905 377.842 741.279 379.525 740.643L378.885 738.947C377.208 739.581 375.527 740.204 373.841 740.816L374.46 742.52ZM384.566 738.702C386.241 738.045 387.91 737.377 389.575 736.699L388.891 735.02C387.234 735.695 385.571 736.36 383.903 737.015L384.566 738.702ZM394.552 734.635L393.847 732.965C395.501 732.267 397.149 731.559 398.791 730.841L399.517 732.502C397.868 733.223 396.213 733.934 394.552 734.635ZM404.451 730.307L403.703 728.655C405.335 727.917 406.962 727.168 408.583 726.41L409.351 728.052C407.723 728.813 406.09 729.565 404.451 730.307ZM414.219 725.736L413.43 724.104C415.045 723.323 416.655 722.532 418.258 721.731L419.068 723.353C417.458 724.157 415.841 724.951 414.219 725.736ZM423.883 720.91L423.052 719.299C424.644 718.478 426.23 717.648 427.811 716.808L428.661 718.409C427.074 719.252 425.481 720.086 423.883 720.91ZM433.408 715.847L432.537 714.257C434.11 713.395 435.677 712.524 437.237 711.643L438.129 713.221C436.561 714.106 434.988 714.981 433.408 715.847ZM442.812 710.538L441.901 708.971C443.449 708.071 444.991 707.161 446.527 706.242L447.458 707.797C445.915 708.72 444.367 709.634 442.812 710.538ZM452.07 704.997L451.12 703.453C452.646 702.513 454.167 701.564 455.68 700.605L456.65 702.136C455.13 703.099 453.604 704.053 452.07 704.997ZM461.191 699.219C462.698 698.238 464.198 697.247 465.692 696.247L464.684 694.741C463.196 695.736 461.702 696.723 460.202 697.7L461.191 699.219ZM470.159 693.216L469.131 691.722C470.608 690.706 472.078 689.681 473.541 688.647L474.587 690.128C473.118 691.166 471.642 692.195 470.159 693.216ZM478.974 686.985L477.909 685.518C479.359 684.466 480.801 683.405 482.236 682.336L483.32 683.789C481.878 684.863 480.43 685.929 478.974 686.985ZM487.628 680.536L486.526 679.096C487.95 678.007 489.366 676.909 490.774 675.803L491.894 677.229C490.479 678.34 489.057 679.442 487.628 680.536ZM496.117 673.869L494.98 672.458C496.374 671.334 497.761 670.201 499.141 669.06L500.297 670.457C498.911 671.603 497.518 672.74 496.117 673.869ZM504.435 666.991L503.262 665.608C504.629 664.449 505.987 663.282 507.339 662.106L508.529 663.473C507.172 664.654 505.807 665.827 504.435 666.991ZM512.577 659.905L511.37 658.553C512.706 657.36 514.035 656.159 515.356 654.949L516.58 656.286C515.254 657.501 513.919 658.707 512.577 659.905ZM520.538 652.616L519.297 651.295C520.603 650.069 521.902 648.834 523.192 647.592L524.449 648.897C523.154 650.145 521.85 651.385 520.538 652.616ZM528.313 645.13L527.04 643.84C528.314 642.581 529.581 641.314 530.84 640.04L532.129 641.313C530.865 642.594 529.593 643.866 528.313 645.13ZM535.897 637.45L534.591 636.192C535.834 634.902 537.068 633.604 538.295 632.298L539.616 633.539C538.385 634.85 537.145 636.154 535.897 637.45ZM543.286 629.58L541.949 628.356C543.158 627.035 544.36 625.707 545.552 624.37L546.905 625.577C545.707 626.919 544.501 628.254 543.286 629.58ZM550.473 621.529L549.106 620.339C550.282 618.988 551.449 617.629 552.608 616.263L553.991 617.435C552.827 618.807 551.654 620.172 550.473 621.529ZM557.457 613.297L556.06 612.142C557.201 610.762 558.333 609.374 559.457 607.98L560.869 609.117C559.74 610.518 558.603 611.911 557.457 613.297ZM564.228 604.894L562.803 603.775C563.909 602.366 565.007 600.95 566.096 599.527L567.536 600.628C566.442 602.057 565.34 603.479 564.228 604.894ZM570.789 596.32L569.335 595.237C570.405 593.801 571.466 592.359 572.518 590.91L573.985 591.974C572.929 593.43 571.863 594.878 570.789 596.32ZM577.128 587.587L575.647 586.541C576.681 585.078 577.706 583.608 578.722 582.131L580.215 583.159C579.195 584.642 578.166 586.118 577.128 587.587ZM583.247 578.692L581.74 577.684C582.736 576.197 583.723 574.703 584.7 573.202L586.219 574.191C585.238 575.698 584.247 577.199 583.247 578.692ZM589.136 569.651L587.604 568.681C588.563 567.167 589.513 565.647 590.453 564.12L591.996 565.071C591.052 566.604 590.099 568.13 589.136 569.651ZM594.797 560.458L593.242 559.527C594.161 557.991 595.07 556.449 595.971 554.901L597.538 555.812C596.634 557.367 595.72 558.916 594.797 560.458ZM600.221 551.129L598.643 550.238C599.524 548.677 600.395 547.11 601.257 545.538L602.847 546.409C601.981 547.988 601.106 549.562 600.221 551.129ZM605.409 541.662L603.808 540.811C604.648 539.231 605.478 537.645 606.299 536.052L607.91 536.883C607.086 538.482 606.252 540.075 605.409 541.662ZM610.352 532.069L608.731 531.259C609.531 529.655 610.322 528.046 611.104 526.43L612.735 527.22C611.951 528.842 611.157 530.458 610.352 532.069ZM615.052 522.351L613.41 521.583C614.168 519.962 614.917 518.336 615.655 516.704L617.307 517.451C616.565 519.09 615.813 520.723 615.052 522.351ZM619.502 512.518L617.841 511.791C618.559 510.149 619.267 508.501 619.965 506.848L621.635 507.553C620.934 509.213 620.223 510.868 619.502 512.518ZM623.699 502.575L622.02 501.891C622.695 500.234 623.36 498.571 624.015 496.904L625.702 497.566C625.045 499.241 624.377 500.911 623.699 502.575ZM627.643 492.526L625.947 491.885C626.581 490.209 627.203 488.527 627.816 486.841L629.52 487.46C628.905 489.153 628.279 490.842 627.643 492.526ZM631.327 482.384C631.919 480.687 632.501 478.985 633.072 477.278L631.353 476.703C630.784 478.402 630.205 480.097 629.616 481.787L631.327 482.384ZM634.754 472.144C635.303 470.431 635.841 468.713 636.369 466.991L634.636 466.46C634.11 468.175 633.574 469.885 633.028 471.591L634.754 472.144ZM637.915 461.83L636.175 461.321C636.678 459.603 637.169 457.881 637.651 456.154L639.397 456.641C638.914 458.375 638.42 460.105 637.915 461.83ZM640.815 451.426L639.063 450.962C639.521 449.231 639.969 447.496 640.406 445.757L642.164 446.199C641.725 447.946 641.275 449.688 640.815 451.426ZM643.445 440.966L641.681 440.547C642.095 438.806 642.499 437.06 642.891 435.311L644.66 435.708C644.266 437.465 643.861 439.218 643.445 440.966ZM645.811 430.425L644.037 430.051C644.407 428.3 644.765 426.546 645.113 424.787L646.892 425.139C646.542 426.905 646.182 428.667 645.811 430.425ZM647.903 419.848L646.121 419.519C646.446 417.759 646.76 415.995 647.063 414.228L648.85 414.534C648.545 416.309 648.23 418.08 647.903 419.848ZM649.73 409.198L647.94 408.914C648.22 407.148 648.489 405.378 648.747 403.604L650.541 403.865C650.281 405.646 650.011 407.424 649.73 409.198ZM651.282 398.53L649.485 398.292C649.72 396.518 649.945 394.74 650.158 392.959L651.958 393.175C651.744 394.964 651.518 396.749 651.282 398.53ZM652.567 387.799L650.764 387.606C650.954 385.829 651.133 384.047 651.301 382.263L653.106 382.433C652.938 384.225 652.758 386.014 652.567 387.799ZM653.577 377.069C653.723 375.278 653.858 373.484 653.982 371.686L652.173 371.562C652.05 373.352 651.916 375.138 651.77 376.922L653.577 377.069ZM654.319 366.285L652.509 366.183C652.61 364.398 652.699 362.61 652.777 360.819L654.588 360.898C654.51 362.697 654.42 364.492 654.319 366.285ZM654.79 355.519L652.978 355.463C653.033 353.675 653.078 351.884 653.112 350.09L654.924 350.124C654.89 351.925 654.846 353.724 654.79 355.519Z" fill="white"/>
<path fill-rule="evenodd" clip-rule="evenodd" d="M634.338 373.931L611.331 372.144C612.104 362.202 612.497 352.149 612.497 342C612.497 331.851 612.104 321.798 611.331 311.856L634.338 310.069C635.156 320.605 635.573 331.254 635.573 342C635.573 352.746 635.156 363.395 634.338 373.931ZM624.425 247.046L601.983 252.416C597.269 232.712 591.033 213.599 583.407 195.208L604.722 186.369C612.811 205.875 619.425 226.147 624.425 247.046ZM575.713 129.541L556.049 141.617C545.51 124.455 533.657 108.184 520.628 92.9434L538.168 77.9487C551.976 94.1006 564.541 111.348 575.713 129.541ZM493.051 32.8317L478.057 50.3717C462.816 37.3429 446.545 25.4895 429.383 14.9509L441.459 -4.71315C459.652 6.45934 476.899 19.0237 493.051 32.8317ZM384.631 -33.7223L375.792 -12.4066C357.401 -20.0332 338.288 -26.2689 318.584 -30.9831L323.954 -53.4255C344.853 -48.4253 365.125 -41.8112 384.631 -33.7223ZM260.931 -63.3379L259.144 -40.3315C249.202 -41.1038 239.149 -41.4976 229 -41.4976C218.851 -41.4976 208.798 -41.1038 198.856 -40.3315L197.069 -63.3379C207.605 -64.1564 218.254 -64.5734 229 -64.5734C239.746 -64.5734 250.395 -64.1564 260.931 -63.3379ZM134.046 -53.4255L139.416 -30.9831C119.712 -26.2689 100.599 -20.0332 82.2079 -12.4067L73.3686 -33.7224C92.8748 -41.8112 113.147 -48.4253 134.046 -53.4255ZM16.5411 -4.71317L28.6166 14.9509C11.4552 25.4895 -4.81615 37.3429 -20.0566 50.3717L-35.0513 32.8316C-18.8994 19.0237 -1.65247 6.4593 16.5411 -4.71317ZM-80.1683 77.9487L-62.6283 92.9433C-75.6571 108.184 -87.5105 124.455 -98.0491 141.617L-117.713 129.541C-106.541 111.347 -93.9763 94.1006 -80.1683 77.9487ZM-146.722 186.369L-125.407 195.208C-133.033 213.599 -139.269 232.712 -143.983 252.416L-166.426 247.046C-161.425 226.147 -154.811 205.875 -146.722 186.369ZM-176.338 310.069C-177.156 320.605 -177.573 331.254 -177.573 342C-177.573 352.746 -177.156 363.395 -176.338 373.931L-153.331 372.144C-154.104 362.201 -154.498 352.149 -154.498 342C-154.498 331.851 -154.104 321.798 -153.331 311.856L-176.338 310.069ZM-166.426 436.954L-143.983 431.584C-139.269 451.288 -133.033 470.401 -125.407 488.792L-146.722 497.631C-154.811 478.125 -161.425 457.853 -166.426 436.954ZM-117.713 554.459L-98.0491 542.383C-87.5105 559.545 -75.6571 575.816 -62.6283 591.057L-80.1684 606.051C-93.9763 589.899 -106.541 572.652 -117.713 554.459ZM-35.0513 651.168L-20.0567 633.628C-4.81621 646.657 11.4552 658.51 28.6165 669.049L16.5411 688.713C-1.65253 677.541 -18.8994 664.976 -35.0513 651.168ZM73.3685 717.722L82.2078 696.406C100.599 704.033 119.712 710.269 139.416 714.983L134.046 737.425C113.147 732.425 92.8747 725.811 73.3685 717.722ZM197.069 747.338L198.856 724.331C208.798 725.104 218.851 725.497 229 725.497C239.149 725.497 249.201 725.104 259.144 724.331L260.931 747.338C250.395 748.156 239.746 748.573 229 748.573C218.254 748.573 207.605 748.156 197.069 747.338ZM323.954 737.425L318.584 714.983C338.288 710.269 357.401 704.033 375.792 696.407L384.631 717.722C365.125 725.811 344.853 732.425 323.954 737.425ZM441.459 688.713L429.383 669.049C446.545 658.51 462.816 646.657 478.057 633.628L493.051 651.168C476.899 664.976 459.652 677.541 441.459 688.713ZM538.168 606.051L520.628 591.057C533.657 575.816 545.51 559.545 556.049 542.383L575.713 554.459C564.541 572.652 551.976 589.899 538.168 606.051ZM604.722 497.631C612.811 478.125 619.425 457.853 624.425 436.954L601.983 431.584C597.269 451.288 591.033 470.401 583.406 488.792L604.722 497.631Z" fill="white"/>
<path fill-rule="evenodd" clip-rule="evenodd" d="M586.122 343.672L541.069 343.465C541.072 342.977 541.073 342.489 541.073 342C541.073 341.511 541.072 341.023 541.069 340.535L586.122 340.328C586.124 340.885 586.125 341.442 586.125 342C586.125 342.558 586.124 343.115 586.122 343.672ZM585.414 319.268L540.449 322.092C540.388 321.121 540.323 320.152 540.253 319.183L585.189 315.943C585.269 317.05 585.344 318.158 585.414 319.268ZM583.059 294.99L538.391 300.863C538.265 299.904 538.134 298.945 537.999 297.988L582.611 291.699C582.765 292.795 582.914 293.891 583.059 294.99ZM579.057 270.948L534.895 279.863C534.703 278.912 534.507 277.963 534.307 277.016L578.383 267.687C578.612 268.772 578.837 269.859 579.057 270.948ZM573.41 247.213L529.966 259.143C529.709 258.209 529.448 257.276 529.183 256.345L572.514 244.008C572.818 245.075 573.116 246.143 573.41 247.213ZM566.148 223.934L523.626 238.823C523.307 237.911 522.983 237.001 522.656 236.092L565.035 220.805C565.411 221.845 565.781 222.888 566.148 223.934ZM557.303 201.212L515.905 218.988C515.523 218.097 515.136 217.208 514.745 216.322L555.974 198.158C556.422 199.174 556.864 200.192 557.303 201.212ZM546.915 179.142L506.834 199.716C506.392 198.854 505.945 197.995 505.495 197.138L545.383 176.191C545.898 177.172 546.408 178.156 546.915 179.142ZM535.044 157.844L496.464 181.109C495.963 180.279 495.459 179.451 494.951 178.626L533.313 155.003C533.894 155.947 534.471 156.894 535.044 157.844ZM521.744 137.399L484.839 163.24C484.283 162.446 483.723 161.655 483.16 160.866L519.823 134.683C520.467 135.585 521.108 136.491 521.744 137.399ZM507.084 117.91L472.022 146.2C471.413 145.446 470.801 144.694 470.185 143.946L504.984 115.332C505.688 116.188 506.388 117.047 507.084 117.91ZM491.135 99.461L458.073 130.066C457.414 129.354 456.752 128.646 456.087 127.94L488.864 97.0304C489.624 97.8371 490.381 98.6473 491.135 99.461ZM473.97 82.1366L443.06 114.914C442.354 114.248 441.646 113.586 440.934 112.927L471.539 79.8656C472.353 80.6189 473.163 81.3759 473.97 82.1366ZM455.669 66.0159L427.054 100.815C426.306 100.199 425.554 99.5873 424.8 98.9787L453.09 63.9159C453.953 64.612 454.813 65.312 455.669 66.0159ZM436.317 51.1771L410.134 87.8405C409.346 87.2772 408.554 86.7175 407.76 86.1614L433.601 49.2564C434.51 49.8925 435.415 50.5328 436.317 51.1771ZM415.998 37.6872C415.053 37.1058 414.106 36.5287 413.157 35.9559L389.891 74.5367C390.721 75.0372 391.549 75.5415 392.374 76.0496L415.998 37.6872ZM394.809 25.6177L373.862 65.5047C373.005 65.0547 372.146 64.6086 371.284 64.1664L391.858 24.0855C392.844 24.5918 393.828 25.1026 394.809 25.6177ZM372.842 15.0258L354.678 56.2548C353.792 55.8642 352.903 55.4776 352.012 55.0951L369.788 13.6976C370.809 14.1357 371.827 14.5785 372.842 15.0258ZM350.196 5.96493L334.908 48.3447C334 48.0169 333.089 47.6933 332.177 47.3738L347.066 4.85269C348.112 5.21872 349.155 5.58948 350.196 5.96493ZM326.992 -1.51371L314.655 41.8169C313.724 41.5519 312.791 41.2912 311.857 41.0346L323.787 -2.40997C324.857 -2.11607 325.925 -1.81731 326.992 -1.51371ZM303.313 -7.38263L293.985 36.6937C293.037 36.4931 292.088 36.2969 291.137 36.1049L300.052 -8.05692C301.141 -7.8371 302.228 -7.61234 303.313 -7.38263ZM279.301 -11.6105C278.206 -11.7648 277.109 -11.9143 276.01 -12.0587L270.137 32.6095C271.097 32.7357 272.055 32.8663 273.012 33.0012L279.301 -11.6105ZM255.057 -14.1891L251.817 30.7469C250.848 30.6771 249.879 30.6117 248.908 30.5507L251.733 -14.4134C252.842 -14.3437 253.95 -14.2689 255.057 -14.1891ZM230.672 -15.1214L230.465 29.9309C229.977 29.9286 229.489 29.9275 229 29.9275C228.512 29.9275 228.023 29.9286 227.535 29.9309L227.328 -15.1214C227.885 -15.1239 228.443 -15.1252 229 -15.1252C229.558 -15.1252 230.115 -15.1239 230.672 -15.1214ZM206.268 -14.4134L209.092 30.5507C208.121 30.6117 207.152 30.6771 206.184 30.7469L202.943 -14.1891C204.05 -14.2689 205.158 -14.3437 206.268 -14.4134ZM181.99 -12.0587L187.864 32.6095C186.904 32.7357 185.945 32.8663 184.988 33.0012L178.7 -11.6104C179.795 -11.7648 180.892 -11.9143 181.99 -12.0587ZM157.948 -8.05691L166.863 36.1049C165.913 36.2969 164.963 36.4931 164.016 36.6937L154.687 -7.38261C155.772 -7.61232 156.859 -7.83709 157.948 -8.05691ZM134.214 -2.40995L146.143 41.0346C145.209 41.2912 144.276 41.552 143.346 41.817L131.009 -1.51369C132.075 -1.81728 133.143 -2.11605 134.214 -2.40995ZM110.934 4.85271L125.824 47.3738C124.911 47.6933 124.001 48.017 123.092 48.3447L107.805 5.96495C108.846 5.58949 109.889 5.21873 110.934 4.85271ZM88.2121 13.6976L105.988 55.0951C105.097 55.4776 104.209 55.8642 103.322 56.2548L85.1584 15.0258C86.1739 14.5785 87.1918 14.1357 88.2121 13.6976ZM66.1426 24.0855L86.7161 64.1664C85.8546 64.6087 84.9954 65.0548 84.1385 65.5047L63.1916 25.6177C64.1726 25.1026 65.1562 24.5918 66.1426 24.0855ZM44.8439 35.9559L68.1091 74.5367C67.2791 75.0373 66.4515 75.5416 65.6265 76.0496L42.0029 37.6872C42.947 37.1058 43.894 36.5287 44.8439 35.9559ZM24.3992 49.2564L50.2404 86.1614C49.4463 86.7175 48.6548 87.2772 47.866 87.8405L21.6832 51.1771C22.5854 50.5328 23.4908 49.8925 24.3992 49.2564ZM4.90996 63.916L33.2005 98.9787C32.4461 99.5874 31.6946 100.199 30.946 100.815L2.33188 66.0159C3.18793 65.312 4.04729 64.612 4.90996 63.916ZM-13.5387 79.8656L17.0663 112.927C16.3546 113.586 15.6459 114.248 14.9404 114.914L-15.9694 82.1366C-15.1627 81.3759 -14.3525 80.6189 -13.5387 79.8656ZM-30.8632 97.0304L1.91383 127.94C1.24849 128.646 0.586411 129.354 -0.072403 130.066L-33.1342 99.461C-32.3809 98.6473 -31.6239 97.8371 -30.8632 97.0304ZM-46.9839 115.332L-12.1848 143.946C-12.8003 144.694 -13.4124 145.446 -14.0211 146.2L-49.0838 117.91C-48.3878 117.047 -47.6878 116.188 -46.9839 115.332ZM-61.8227 134.683L-25.1593 160.866C-25.7226 161.655 -26.2823 162.446 -26.8383 163.24L-63.7434 137.399C-63.1073 136.491 -62.467 135.585 -61.8227 134.683ZM-75.3126 155.003L-36.9502 178.626C-37.4582 179.451 -37.9625 180.279 -38.4631 181.109L-77.0439 157.844C-76.4711 156.894 -75.8939 155.947 -75.3126 155.003ZM-87.382 176.191L-47.495 197.138C-47.945 197.995 -48.3911 198.854 -48.8333 199.716L-88.9143 179.142C-88.408 178.156 -87.8972 177.172 -87.382 176.191ZM-97.974 198.158L-56.745 216.322C-57.1356 217.209 -57.5221 218.097 -57.9047 218.988L-99.3022 201.212C-98.8641 200.192 -98.4213 199.174 -97.974 198.158ZM-107.035 220.805L-64.6551 236.092C-64.9828 237.001 -65.3064 237.911 -65.6259 238.823L-108.147 223.934C-107.781 222.889 -107.41 221.845 -107.035 220.805ZM-114.513 244.008L-71.1828 256.346C-71.4478 257.276 -71.7086 258.209 -71.9651 259.143L-115.41 247.213C-115.116 246.143 -114.817 245.075 -114.513 244.008ZM-120.382 267.687L-76.3061 277.016C-76.5066 277.963 -76.7029 278.912 -76.8948 279.863L-121.057 270.948C-120.837 269.859 -120.612 268.772 -120.382 267.687ZM-124.61 291.699C-124.765 292.795 -124.914 293.892 -125.058 294.99L-80.3903 300.864C-80.264 299.904 -80.1335 298.945 -79.9986 297.988L-124.61 291.699ZM-127.189 315.943L-82.2528 319.184C-82.3227 320.152 -82.3881 321.121 -82.4491 322.092L-127.413 319.268C-127.343 318.158 -127.269 317.05 -127.189 315.943ZM-128.121 340.328C-128.124 340.885 -128.125 341.442 -128.125 342C-128.125 342.558 -128.124 343.115 -128.121 343.672L-83.0689 343.465C-83.0711 342.977 -83.0722 342.489 -83.0722 342C-83.0722 341.511 -83.0711 341.023 -83.0689 340.535L-128.121 340.328ZM-127.413 364.732L-82.4491 361.908C-82.3881 362.879 -82.3226 363.848 -82.2528 364.817L-127.189 368.057C-127.269 366.95 -127.343 365.842 -127.413 364.732ZM-125.058 389.01L-80.3903 383.137C-80.264 384.096 -80.1335 385.055 -79.9986 386.012L-124.61 392.301C-124.765 391.205 -124.914 390.109 -125.058 389.01ZM-121.057 413.052L-76.8948 404.137C-76.7029 405.088 -76.5066 406.037 -76.3061 406.984L-120.382 416.313C-120.612 415.228 -120.837 414.141 -121.057 413.052ZM-115.41 436.787L-71.9651 424.857C-71.7086 425.791 -71.4478 426.724 -71.1828 427.655L-114.513 439.992C-114.817 438.925 -115.116 437.857 -115.41 436.787ZM-108.147 460.066L-65.6259 445.177C-65.3064 446.089 -64.9828 447 -64.6551 447.908L-107.035 463.195C-107.41 462.155 -107.781 461.111 -108.147 460.066ZM-99.3022 482.788L-57.9047 465.012C-57.5221 465.903 -57.1355 466.792 -56.7449 467.678L-97.9739 485.842C-98.4213 484.826 -98.864 483.808 -99.3022 482.788ZM-88.9142 504.858L-48.8333 484.284C-48.3911 485.146 -47.945 486.005 -47.495 486.862L-87.382 507.809C-87.8972 506.828 -88.4079 505.844 -88.9142 504.858ZM-77.0438 526.156L-38.463 502.891C-37.9625 503.721 -37.4582 504.549 -36.9502 505.374L-75.3126 528.997C-75.8939 528.053 -76.471 527.106 -77.0438 526.156ZM-63.7433 546.601L-26.8383 520.76C-26.2823 521.554 -25.7225 522.345 -25.1593 523.134L-61.8227 549.317C-62.467 548.415 -63.1072 547.509 -63.7433 546.601ZM-49.0838 566.09L-14.0211 537.8C-13.4124 538.554 -12.8003 539.306 -12.1847 540.054L-46.9839 568.668C-47.6878 567.812 -48.3878 566.953 -49.0838 566.09ZM-33.1342 584.539L-0.0723877 553.934C0.586426 554.646 1.2485 555.354 1.91386 556.06L-30.8632 586.97C-31.6239 586.163 -32.3809 585.353 -33.1342 584.539ZM-15.9693 601.863L14.9404 569.086C15.646 569.752 16.3546 570.414 17.0663 571.073L-13.5387 604.134C-14.3525 603.381 -15.1627 602.624 -15.9693 601.863ZM2.33191 617.984L30.946 583.185C31.6946 583.801 32.4461 584.413 33.2005 585.021L4.91 620.084C4.04732 619.388 3.18796 618.688 2.33191 617.984ZM21.6832 632.823L47.866 596.159C48.6548 596.723 49.4463 597.283 50.2404 597.839L24.3993 634.744C23.4908 634.107 22.5854 633.467 21.6832 632.823ZM42.0029 646.313L65.6265 607.95C66.4515 608.458 67.2791 608.963 68.1091 609.463L44.8439 648.044C43.894 647.471 42.947 646.894 42.0029 646.313ZM63.1916 658.382L84.1385 618.495C84.9954 618.945 85.8546 619.391 86.7161 619.834L66.1426 659.914C65.1563 659.408 64.1726 658.897 63.1916 658.382ZM85.1585 668.974L103.322 627.745C104.209 628.136 105.098 628.522 105.988 628.905L88.2122 670.302C87.1918 669.864 86.1739 669.422 85.1585 668.974ZM107.805 678.035L123.092 635.655C124.001 635.983 124.911 636.307 125.824 636.626L110.934 679.147C109.889 678.781 108.846 678.411 107.805 678.035ZM131.009 685.514L143.346 642.183C144.276 642.448 145.209 642.709 146.143 642.965L134.214 686.41C133.143 686.116 132.075 685.817 131.009 685.514ZM154.687 691.383L164.016 647.306C164.963 647.507 165.913 647.703 166.863 647.895L157.948 692.057C156.859 691.837 155.772 691.612 154.687 691.383ZM178.7 695.61L184.988 650.999C185.945 651.134 186.904 651.264 187.864 651.391L181.99 696.059C180.892 695.914 179.795 695.765 178.7 695.61ZM202.944 698.189L206.184 653.253C207.152 653.323 208.122 653.388 209.092 653.449L206.268 698.413C205.158 698.344 204.05 698.269 202.944 698.189ZM227.329 699.121L227.535 654.069C228.023 654.071 228.512 654.073 229 654.073C229.193 654.073 229.386 654.072 229.579 654.072C229.874 654.071 230.17 654.07 230.466 654.069L230.672 699.121C230.115 699.124 229.558 699.125 229 699.125C228.443 699.125 227.885 699.124 227.329 699.121ZM251.733 698.413L248.908 653.449C249.879 653.388 250.849 653.323 251.817 653.253L255.057 698.189C253.95 698.269 252.842 698.344 251.733 698.413ZM276.01 696.059L270.137 651.391C270.593 651.33 271.05 651.269 271.505 651.207C272.008 651.139 272.51 651.07 273.012 650.999L279.301 695.61C278.206 695.765 277.109 695.914 276.01 696.059ZM300.052 692.057L291.137 647.895C292.088 647.703 293.037 647.507 293.985 647.306L303.314 691.383C302.228 691.612 301.141 691.837 300.052 692.057ZM323.787 686.41L311.857 642.965C312.792 642.709 313.724 642.448 314.655 642.183L326.992 685.514C325.926 685.817 324.857 686.116 323.787 686.41ZM347.066 679.147L332.177 636.626C333.089 636.307 334 635.983 334.908 635.655L350.196 678.035C349.155 678.41 348.112 678.781 347.066 679.147ZM369.788 670.302L352.012 628.905C352.903 628.522 353.792 628.136 354.678 627.745L372.842 668.974C371.827 669.422 370.809 669.864 369.788 670.302ZM391.858 659.914L371.284 619.834C372.146 619.391 373.005 618.945 373.862 618.495L394.809 658.382C393.828 658.897 392.844 659.408 391.858 659.914ZM413.157 648.044L389.891 609.463C390.382 609.167 390.872 608.87 391.362 608.571C391.7 608.365 392.037 608.158 392.374 607.95L415.998 646.313C415.053 646.894 414.106 647.471 413.157 648.044ZM433.601 634.744L407.76 597.839C408.554 597.282 409.346 596.723 410.134 596.159L436.317 632.823C435.415 633.467 434.51 634.107 433.601 634.744ZM453.09 620.084L424.8 585.021C425.554 584.413 426.306 583.801 427.055 583.185L455.669 617.984C454.813 618.688 453.953 619.388 453.09 620.084ZM471.539 604.134L440.934 571.073C441.646 570.414 442.354 569.752 443.06 569.086L473.97 601.863C473.163 602.624 472.353 603.381 471.539 604.134ZM488.864 586.97L456.087 556.06C456.752 555.354 457.414 554.646 458.073 553.934L491.135 584.539C490.381 585.353 489.624 586.163 488.864 586.97ZM504.984 568.668L470.185 540.054C470.801 539.306 471.413 538.554 472.022 537.8L507.084 566.09C506.388 566.953 505.688 567.812 504.984 568.668ZM519.823 549.317L483.16 523.134C483.723 522.345 484.283 521.554 484.839 520.76L521.744 546.601C521.108 547.509 520.467 548.415 519.823 549.317ZM533.313 528.997L494.951 505.374C495.459 504.549 495.963 503.721 496.464 502.891L535.044 526.156C534.471 527.106 533.894 528.053 533.313 528.997ZM545.383 507.809L505.495 486.862C505.945 486.005 506.392 485.146 506.834 484.284L546.915 504.858C546.408 505.844 545.898 506.828 545.383 507.809ZM555.974 485.842L514.745 467.678C515.136 466.791 515.523 465.903 515.905 465.012L557.303 482.788C556.865 483.808 556.422 484.826 555.974 485.842ZM565.035 463.195L522.656 447.908C522.983 446.999 523.307 446.089 523.626 445.177L566.148 460.066C565.781 461.111 565.411 462.155 565.035 463.195ZM572.514 439.992L529.183 427.654C529.448 426.724 529.709 425.791 529.966 424.857L573.41 436.786C573.116 437.857 572.818 438.925 572.514 439.992ZM578.383 416.313L534.307 406.984C534.507 406.037 534.703 405.088 534.895 404.137L579.057 413.052C578.837 414.141 578.612 415.228 578.383 416.313ZM582.611 392.301L537.999 386.012C538.134 385.055 538.265 384.096 538.391 383.136L583.059 389.01C582.915 390.108 582.765 391.205 582.611 392.301ZM585.189 368.057L540.253 364.816C540.323 363.848 540.388 362.879 540.45 361.908L585.414 364.732C585.344 365.842 585.269 366.95 585.189 368.057Z" fill="white"/>
</g>
</svg>
