<svg width="16" height="16" viewBox="0 0 16 16" fill="none" xmlns="http://www.w3.org/2000/svg">
<path fill-rule="evenodd" clip-rule="evenodd" d="M4.81093 0.311546C5.63575 0.273575 5.89874 0.265137 7.99983 0.265137C10.1009 0.265137 10.3639 0.274278 11.188 0.311546C12.0122 0.348815 12.5747 0.480309 13.0669 0.670869C13.5823 0.865649 14.05 1.17012 14.4367 1.5639C14.8305 1.94995 15.1343 2.41686 15.3283 2.93299C15.5196 3.42521 15.6504 3.98775 15.6884 4.81047C15.7263 5.6367 15.7348 5.89969 15.7348 8.00008C15.7348 10.1012 15.7256 10.3642 15.6884 11.189C15.6511 12.0117 15.5196 12.5742 15.3283 13.0665C15.1343 13.5827 14.83 14.0503 14.4367 14.437C14.05 14.8307 13.5823 15.1345 13.0669 15.3286C12.5747 15.5198 12.0122 15.6506 11.1894 15.6886C10.3639 15.7266 10.1009 15.735 7.99983 15.735C5.89874 15.735 5.63575 15.7259 4.81093 15.6886C3.98821 15.6513 3.42567 15.5198 2.93345 15.3286C2.41726 15.1345 1.94958 14.8302 1.56296 14.437C1.16944 14.0507 0.864923 13.5832 0.670625 13.0672C0.480065 12.5749 0.349274 12.0124 0.311302 11.1897C0.273331 10.3635 0.264893 10.1005 0.264893 8.00008C0.264893 5.89899 0.274034 5.636 0.311302 4.81188C0.348571 3.98775 0.480065 3.42521 0.670625 2.93299C0.86521 2.41691 1.16996 1.94946 1.56366 1.5632C1.94973 1.16977 2.41694 0.865258 2.93274 0.670869C3.42497 0.480309 3.98751 0.349518 4.81023 0.311546H4.81093ZM11.1255 1.70384C10.3098 1.66657 10.0651 1.65883 7.99983 1.65883C5.9346 1.65883 5.6899 1.66657 4.87421 1.70384C4.11971 1.73829 3.71046 1.86416 3.43762 1.97034C3.07689 2.11097 2.81883 2.27763 2.54811 2.54835C2.29148 2.79801 2.09398 3.10195 1.9701 3.43787C1.86392 3.7107 1.73805 4.11995 1.70359 4.87446C1.66632 5.69014 1.65859 5.93485 1.65859 8.00008C1.65859 10.0653 1.66632 10.31 1.70359 11.1257C1.73805 11.8802 1.86392 12.2895 1.9701 12.5623C2.09385 12.8977 2.29145 13.2022 2.54811 13.4518C2.79773 13.7085 3.10221 13.9061 3.43762 14.0298C3.71046 14.136 4.11971 14.2619 4.87421 14.2963C5.6899 14.3336 5.9339 14.3413 7.99983 14.3413C10.0658 14.3413 10.3098 14.3336 11.1255 14.2963C11.88 14.2619 12.2892 14.136 12.562 14.0298C12.9228 13.8892 13.1808 13.7225 13.4516 13.4518C13.7082 13.2022 13.9058 12.8977 14.0296 12.5623C14.1358 12.2895 14.2616 11.8802 14.2961 11.1257C14.3333 10.31 14.3411 10.0653 14.3411 8.00008C14.3411 5.93485 14.3333 5.69014 14.2961 4.87446C14.2616 4.11995 14.1358 3.7107 14.0296 3.43787C13.8889 3.07714 13.7223 2.81907 13.4516 2.54835C13.2019 2.29174 12.898 2.09425 12.562 1.97034C12.2892 1.86416 11.88 1.73829 11.1255 1.70384ZM7.01187 10.3845C7.56362 10.6142 8.178 10.6452 8.75007 10.4722C9.32214 10.2993 9.81641 9.93305 10.1485 9.43613C10.4805 8.93922 10.6298 8.34243 10.5707 7.74771C10.5116 7.15299 10.2479 6.59722 9.82458 6.17533C9.55472 5.90565 9.22843 5.69915 8.86919 5.57071C8.50995 5.44226 8.12671 5.39506 7.74704 5.43251C7.36737 5.46996 7.00073 5.59112 6.6735 5.78727C6.34628 5.98343 6.06662 6.24969 5.85465 6.5669C5.64269 6.88411 5.50369 7.24437 5.44767 7.62174C5.39164 7.99912 5.41998 8.38422 5.53066 8.74932C5.64133 9.11443 5.83158 9.45046 6.0877 9.73321C6.34382 10.016 6.65946 10.2384 7.01187 10.3845ZM5.18853 5.18878C5.55772 4.81959 5.99601 4.52674 6.47837 4.32694C6.96073 4.12714 7.47773 4.0243 7.99983 4.0243C8.52194 4.0243 9.03893 4.12714 9.5213 4.32694C10.0037 4.52674 10.4419 4.81959 10.8111 5.18878C11.1803 5.55796 11.4732 5.99625 11.673 6.47861C11.8728 6.96098 11.9756 7.47797 11.9756 8.00008C11.9756 8.52218 11.8728 9.03918 11.673 9.52154C11.4732 10.0039 11.1803 10.4422 10.8111 10.8114C10.0655 11.557 9.05427 11.9759 7.99983 11.9759C6.94539 11.9759 5.93414 11.557 5.18853 10.8114C4.44293 10.0658 4.02406 9.05452 4.02406 8.00008C4.02406 6.94564 4.44293 5.93438 5.18853 5.18878ZM12.8574 4.61639C12.9489 4.53009 13.0221 4.42631 13.0728 4.3112C13.1234 4.19608 13.1505 4.07197 13.1523 3.94622C13.1541 3.82046 13.1307 3.69562 13.0834 3.57907C13.0362 3.46253 12.966 3.35666 12.877 3.26773C12.7881 3.1788 12.6822 3.10861 12.5657 3.06133C12.4491 3.01405 12.3243 2.99063 12.1985 2.99246C12.0728 2.9943 11.9487 3.02134 11.8336 3.072C11.7185 3.12266 11.6147 3.1959 11.5284 3.28739C11.3605 3.46531 11.2686 3.70165 11.2722 3.94622C11.2758 4.19079 11.3745 4.42434 11.5475 4.5973C11.7204 4.77025 11.954 4.86899 12.1985 4.87256C12.4431 4.87612 12.6795 4.78423 12.8574 4.61639Z" fill="#1A4470"/>
</svg>
