<svg width="836" height="906" viewBox="0 0 836 906" fill="none" xmlns="http://www.w3.org/2000/svg">
<g style="mix-blend-mode:overlay" opacity="0.6">
<path fill-rule="evenodd" clip-rule="evenodd" d="M728.926 454.757L727.752 454.749C727.756 454.167 727.757 453.583 727.757 453C727.757 452.416 727.756 451.833 727.752 451.251L728.926 451.243C728.93 451.828 728.932 452.414 728.932 453C728.932 453.586 728.93 454.171 728.926 454.757ZM728.883 447.738L727.709 447.76C727.687 446.598 727.658 445.438 727.622 444.279L728.795 444.243C728.832 445.406 728.861 446.571 728.883 447.738ZM728.665 440.759L727.492 440.81C727.441 439.65 727.383 438.492 727.318 437.335L728.491 437.27C728.556 438.431 728.614 439.594 728.665 440.759ZM728.272 433.771L727.101 433.852C727.021 432.692 726.934 431.535 726.84 430.38L728.01 430.285C728.105 431.445 728.192 432.607 728.272 433.771ZM727.705 426.81L726.536 426.92C726.427 425.764 726.311 424.611 726.188 423.459L727.356 423.334C727.479 424.491 727.596 425.649 727.705 426.81ZM726.961 419.852L725.795 419.992C725.657 418.838 725.512 417.687 725.359 416.538L726.523 416.384C726.677 417.538 726.822 418.694 726.961 419.852ZM726.043 412.928L724.881 413.097C724.714 411.948 724.54 410.802 724.358 409.658L725.518 409.474C725.7 410.623 725.875 411.774 726.043 412.928ZM724.948 406.018L723.791 406.216C723.594 405.071 723.391 403.929 723.18 402.789L724.335 402.576C724.546 403.72 724.751 404.868 724.948 406.018ZM723.68 399.149L722.528 399.376C722.302 398.237 722.07 397.101 721.831 395.967L722.979 395.724C723.22 396.863 723.453 398.005 723.68 399.149ZM722.234 392.303L721.089 392.56C720.834 391.427 720.573 390.296 720.305 389.169L721.447 388.897C721.716 390.029 721.979 391.165 722.234 392.303ZM720.618 385.507L719.479 385.794C719.196 384.667 718.906 383.543 718.609 382.423L719.744 382.122C720.042 383.248 720.333 384.376 720.618 385.507ZM718.825 378.744L717.694 379.059C717.382 377.941 717.064 376.825 716.738 375.713L717.865 375.383C718.192 376.5 718.512 377.621 718.825 378.744ZM716.864 372.04L715.741 372.384C715.401 371.273 715.054 370.165 714.7 369.061L715.818 368.702C716.173 369.812 716.522 370.924 716.864 372.04ZM714.728 365.377L713.615 365.749C713.247 364.649 712.871 363.551 712.49 362.456L713.598 362.07C713.982 363.169 714.359 364.271 714.728 365.377ZM712.428 358.782L711.324 359.183C710.927 358.09 710.524 357.001 710.113 355.916L711.212 355.501C711.624 356.591 712.029 357.685 712.428 358.782ZM709.955 352.236L708.862 352.665C708.438 351.585 708.007 350.508 707.57 349.434L708.657 348.991C709.096 350.069 709.529 351.151 709.955 352.236ZM707.32 345.767L706.239 346.224C705.787 345.153 705.328 344.086 704.863 343.022L705.938 342.551C706.406 343.62 706.866 344.692 707.32 345.767ZM704.517 339.356L703.447 339.84C702.969 338.783 702.484 337.729 701.993 336.679L703.056 336.182C703.549 337.236 704.036 338.294 704.517 339.356ZM701.556 333.028L700.499 333.54C699.993 332.493 699.481 331.451 698.962 330.412L700.012 329.888C700.533 330.931 701.048 331.978 701.556 333.028ZM698.43 326.769L697.387 327.307C696.855 326.276 696.317 325.249 695.773 324.225L696.81 323.674C697.356 324.702 697.897 325.734 698.43 326.769ZM695.151 320.599L694.121 321.163C693.563 320.145 692.998 319.13 692.427 318.119L693.45 317.542C694.023 318.557 694.59 319.576 695.151 320.599ZM691.712 314.508L690.697 315.098C690.114 314.096 689.525 313.097 688.929 312.102L689.937 311.499C690.535 312.498 691.126 313.501 691.712 314.508ZM688.123 308.511L687.123 309.127C686.514 308.138 685.899 307.154 685.278 306.173L686.27 305.545C686.893 306.529 687.511 307.518 688.123 308.511ZM684.381 302.604L683.397 303.244C682.764 302.272 682.125 301.305 681.48 300.341L682.455 299.688C683.103 300.656 683.745 301.627 684.381 302.604ZM680.492 296.795L679.524 297.461C678.866 296.504 678.203 295.552 677.533 294.604L678.492 293.927C679.164 294.878 679.831 295.835 680.492 296.795ZM676.456 291.085L675.506 291.775C674.825 290.836 674.138 289.902 673.445 288.972L674.386 288.27C675.082 289.204 675.772 290.142 676.456 291.085ZM672.279 285.48L671.346 286.193C670.641 285.271 669.93 284.354 669.213 283.442L670.137 282.716C670.856 283.633 671.57 284.554 672.279 285.48ZM667.961 279.981L667.046 280.718C666.318 279.815 665.585 278.916 664.846 278.022L665.751 277.274C666.493 278.172 667.229 279.074 667.961 279.981ZM663.505 274.593L662.61 275.353C661.859 274.468 661.103 273.588 660.341 272.713L661.227 271.942C661.992 272.821 662.751 273.705 663.505 274.593ZM658.916 269.319L658.04 270.101C657.267 269.236 656.489 268.375 655.706 267.519L656.572 266.727C657.358 267.586 658.14 268.45 658.916 269.319ZM654.195 264.163C653.397 263.313 652.594 262.469 651.786 261.63L650.94 262.444C651.745 263.28 652.544 264.121 653.339 264.967L654.195 264.163ZM649.345 259.127L648.51 259.952C647.695 259.126 646.874 258.306 646.048 257.49L646.873 256.655C647.703 257.474 648.527 258.298 649.345 259.127ZM644.371 254.214L643.556 255.06C642.721 254.255 641.88 253.456 641.034 252.662L641.837 251.806C642.687 252.603 643.531 253.406 644.371 254.214ZM639.274 249.429L638.481 250.295C637.625 249.511 636.764 248.733 635.899 247.961L636.681 247.085C637.55 247.861 638.414 248.642 639.274 249.429ZM634.059 244.773L633.288 245.659C632.413 244.897 631.532 244.141 630.647 243.39L631.407 242.495C632.296 243.249 633.18 244.008 634.059 244.773ZM628.726 240.25L627.978 241.155C627.084 240.415 626.186 239.682 625.282 238.954L626.019 238.04C626.926 238.771 627.829 239.507 628.726 240.25ZM623.284 235.864L622.559 236.787C621.646 236.07 620.729 235.359 619.807 234.654L620.521 233.722C621.446 234.43 622.367 235.144 623.284 235.864ZM617.73 231.614L617.028 232.556C616.099 231.863 615.164 231.176 614.226 230.494L614.915 229.544C615.858 230.228 616.796 230.918 617.73 231.614ZM612.074 227.509L611.396 228.467C610.448 227.798 609.496 227.134 608.54 226.476L609.205 225.508C610.166 226.169 611.122 226.836 612.074 227.509ZM606.312 223.545L605.659 224.521C604.696 223.876 603.728 223.237 602.756 222.604L603.397 221.62C604.373 222.255 605.345 222.897 606.312 223.545ZM600.456 219.73L599.827 220.722C598.847 220.101 597.862 219.486 596.873 218.877L597.489 217.877C598.482 218.489 599.471 219.107 600.456 219.73ZM594.501 216.063L593.898 217.071C592.904 216.476 591.905 215.886 590.902 215.303L591.492 214.288C592.499 214.874 593.502 215.466 594.501 216.063ZM588.458 212.55L587.881 213.573C586.87 213.002 585.856 212.438 584.837 211.879L585.401 210.85C586.424 211.41 587.443 211.977 588.458 212.55ZM582.326 209.19L581.775 210.227C580.752 209.683 579.724 209.145 578.693 208.614L579.231 207.57C580.267 208.104 581.298 208.644 582.326 209.19ZM576.113 205.988L575.588 207.038C574.549 206.52 573.507 206.007 572.461 205.501L572.972 204.444C574.022 204.952 575.07 205.467 576.113 205.988ZM569.818 202.944L569.321 204.008C568.271 203.516 567.217 203.031 566.16 202.553L566.644 201.483C567.706 201.964 568.764 202.451 569.818 202.944ZM563.449 200.062L562.979 201.137C561.915 200.672 560.847 200.214 559.776 199.761L560.233 198.68C561.308 199.134 562.381 199.594 563.449 200.062ZM557.009 197.343L556.566 198.43C555.492 197.993 554.416 197.562 553.335 197.138L553.764 196.045C554.849 196.471 555.931 196.904 557.009 197.343ZM550.5 194.788L550.085 195.887C548.999 195.476 547.91 195.073 546.817 194.676L547.218 193.572C548.315 193.971 549.409 194.376 550.5 194.788ZM543.93 192.402L543.544 193.51C542.449 193.129 541.352 192.753 540.251 192.385L540.624 191.272C541.729 191.642 542.831 192.018 543.93 192.402ZM537.298 190.182C536.188 189.827 535.076 189.478 533.96 189.136L533.616 190.259C534.727 190.599 535.835 190.946 536.94 191.301L537.298 190.182ZM530.617 188.135L530.287 189.262C529.175 188.936 528.059 188.618 526.941 188.306L527.256 187.175C528.379 187.488 529.5 187.808 530.617 188.135ZM523.878 186.256L523.577 187.391C522.457 187.094 521.333 186.804 520.207 186.521L520.493 185.382C521.624 185.667 522.753 185.958 523.878 186.256ZM517.103 184.553L516.831 185.695C515.704 185.427 514.573 185.166 513.44 184.911L513.697 183.766C514.835 184.021 515.971 184.284 517.103 184.553ZM510.276 183.021L510.033 184.169C508.899 183.93 507.763 183.698 506.624 183.472L506.851 182.32C507.995 182.547 509.137 182.78 510.276 183.021ZM503.424 181.665L503.211 182.82C502.071 182.609 500.929 182.406 499.784 182.209L499.983 181.052C501.132 181.249 502.28 181.454 503.424 181.665ZM496.526 180.482L496.342 181.642C495.198 181.46 494.052 181.286 492.903 181.119L493.072 179.957C494.226 180.125 495.377 180.3 496.526 180.482ZM489.616 179.477L489.462 180.641C488.313 180.488 487.162 180.343 486.008 180.205L486.148 179.039C487.306 179.178 488.462 179.324 489.616 179.477ZM482.666 178.644L482.541 179.812C481.389 179.689 480.236 179.573 479.08 179.464L479.19 178.295C480.351 178.404 481.509 178.521 482.666 178.644ZM475.715 177.99L475.62 179.16C474.465 179.066 473.308 178.979 472.148 178.899L472.229 177.728C473.393 177.808 474.555 177.895 475.715 177.99ZM468.73 177.509L468.665 178.682C467.508 178.617 466.35 178.559 465.19 178.508L465.241 177.335C466.406 177.386 467.569 177.444 468.73 177.509ZM461.757 177.205L461.721 178.378C460.562 178.342 459.402 178.313 458.24 178.292L458.262 177.118C459.429 177.139 460.594 177.168 461.757 177.205ZM454.757 177.074C454.172 177.07 453.586 177.068 453 177.068C452.414 177.068 451.829 177.07 451.243 177.074L451.251 178.248C451.833 178.244 452.417 178.243 453 178.243C453.584 178.243 454.167 178.244 454.749 178.248L454.757 177.074ZM447.738 177.118L447.76 178.292C446.598 178.313 445.438 178.342 444.279 178.378L444.243 177.205C445.406 177.168 446.571 177.139 447.738 177.118ZM440.759 177.335L440.81 178.508C439.65 178.559 438.492 178.617 437.336 178.682L437.27 177.509C438.431 177.444 439.594 177.386 440.759 177.335ZM433.771 177.728L433.852 178.899C432.693 178.979 431.535 179.066 430.38 179.16L430.285 177.99C431.445 177.895 432.607 177.808 433.771 177.728ZM426.81 178.295L426.92 179.464C425.765 179.573 424.611 179.689 423.459 179.812L423.335 178.644C424.491 178.521 425.65 178.404 426.81 178.295ZM419.853 179.039L419.992 180.205C418.839 180.343 417.687 180.488 416.538 180.641L416.384 179.477C417.538 179.324 418.694 179.178 419.853 179.039ZM412.928 179.957L413.097 181.119C411.949 181.286 410.802 181.46 409.658 181.642L409.474 180.482C410.623 180.3 411.775 180.125 412.928 179.957ZM406.018 181.052L406.216 182.209C405.071 182.406 403.929 182.609 402.789 182.82L402.576 181.665C403.721 181.454 404.868 181.249 406.018 181.052ZM399.149 182.32L399.377 183.472C398.238 183.698 397.101 183.93 395.967 184.169L395.724 183.021C396.863 182.78 398.005 182.547 399.149 182.32ZM392.303 183.766L392.56 184.911C391.427 185.166 390.296 185.427 389.169 185.695L388.897 184.553C390.03 184.284 391.165 184.021 392.303 183.766ZM385.507 185.382L385.794 186.521C384.667 186.804 383.544 187.094 382.423 187.391L382.122 186.256C383.248 185.958 384.376 185.667 385.507 185.382ZM378.744 187.175L379.059 188.306C377.941 188.618 376.825 188.936 375.713 189.262L375.383 188.135C376.501 187.808 377.621 187.488 378.744 187.175ZM372.04 189.136L372.384 190.259C371.273 190.599 370.165 190.946 369.061 191.3L368.702 190.182C369.812 189.827 370.924 189.478 372.04 189.136ZM365.377 191.272L365.749 192.385C364.649 192.753 363.551 193.129 362.457 193.51L362.07 192.402C363.169 192.018 364.271 191.642 365.377 191.272ZM358.782 193.572L359.183 194.676C358.091 195.073 357.001 195.476 355.916 195.887L355.501 194.788C356.591 194.376 357.685 193.971 358.782 193.572ZM352.236 196.045L352.665 197.138C351.585 197.562 350.508 197.993 349.434 198.43L348.991 197.343C350.07 196.904 351.151 196.471 352.236 196.045ZM345.767 198.68L346.224 199.761C345.153 200.213 344.086 200.672 343.022 201.137L342.551 200.062C343.62 199.594 344.692 199.134 345.767 198.68ZM339.356 201.483C338.294 201.964 337.236 202.451 336.182 202.944L336.68 204.007C337.729 203.516 338.783 203.031 339.84 202.553L339.356 201.483ZM333.029 204.444L333.54 205.501C332.493 206.007 331.451 206.52 330.412 207.038L329.888 205.988C330.931 205.467 331.978 204.952 333.029 204.444ZM326.769 207.57L327.307 208.614C326.276 209.145 325.249 209.683 324.225 210.227L323.674 209.19C324.702 208.644 325.734 208.104 326.769 207.57ZM320.599 210.849L321.163 211.879C320.145 212.437 319.13 213.002 318.119 213.573L317.542 212.55C318.557 211.977 319.576 211.41 320.599 210.849ZM314.508 214.288L315.099 215.303C314.096 215.886 313.097 216.475 312.102 217.071L311.499 216.063C312.498 215.465 313.501 214.874 314.508 214.288ZM308.511 217.877C307.518 218.489 306.53 219.107 305.545 219.73L306.173 220.722C307.154 220.101 308.138 219.486 309.127 218.877L308.511 217.877ZM302.604 221.619L303.245 222.603C302.273 223.236 301.305 223.876 300.341 224.52L299.688 223.545C300.656 222.897 301.628 222.255 302.604 221.619ZM296.795 225.508L297.461 226.476C296.504 227.134 295.552 227.797 294.605 228.467L293.927 227.508C294.879 226.836 295.835 226.169 296.795 225.508ZM291.085 229.544L291.775 230.494C290.836 231.175 289.902 231.863 288.972 232.555L288.27 231.614C289.204 230.918 290.142 230.228 291.085 229.544ZM285.48 233.721L286.193 234.654C285.272 235.359 284.354 236.07 283.442 236.787L282.717 235.863C283.633 235.144 284.554 234.43 285.48 233.721ZM279.981 238.04L280.718 238.954C279.815 239.682 278.916 240.415 278.022 241.154L277.274 240.249C278.172 239.507 279.074 238.771 279.981 238.04ZM274.593 242.495L275.353 243.39C274.468 244.141 273.588 244.897 272.713 245.659L271.942 244.773C272.821 244.008 273.705 243.249 274.593 242.495ZM269.32 247.084L270.102 247.96C269.236 248.733 268.375 249.511 267.52 250.294L266.727 249.428C267.586 248.642 268.45 247.86 269.32 247.084ZM264.163 251.805L264.967 252.661C264.121 253.456 263.28 254.255 262.444 255.06L261.63 254.214C262.469 253.406 263.313 252.603 264.163 251.805ZM259.127 256.655L259.952 257.49C259.126 258.306 258.306 259.126 257.491 259.952L256.655 259.127C257.474 258.297 258.298 257.473 259.127 256.655ZM254.215 261.629L255.06 262.444C254.256 263.28 253.456 264.12 252.662 264.966L251.806 264.163C252.603 263.313 253.406 262.469 254.215 261.629ZM249.429 266.726L250.295 267.519C249.511 268.375 248.733 269.236 247.961 270.101L247.085 269.319C247.861 268.45 248.642 267.586 249.429 266.726ZM244.773 271.941L245.659 272.712C244.897 273.588 244.141 274.468 243.39 275.353L242.495 274.593C243.249 273.704 244.008 272.82 244.773 271.941ZM240.25 277.274C239.508 278.171 238.771 279.074 238.04 279.981L238.954 280.718C239.682 279.814 240.416 278.916 241.155 278.022L240.25 277.274ZM235.864 282.716L236.787 283.441C236.071 284.354 235.359 285.271 234.654 286.193L233.722 285.48C234.43 284.554 235.144 283.633 235.864 282.716ZM231.614 288.27L232.556 288.972C231.863 289.901 231.176 290.836 230.494 291.774L229.544 291.085C230.228 290.142 230.918 289.204 231.614 288.27ZM227.509 293.926L228.468 294.604C227.798 295.552 227.134 296.504 226.476 297.46L225.509 296.795C226.169 295.834 226.836 294.878 227.509 293.926ZM223.545 299.688L224.521 300.341C223.876 301.304 223.237 302.272 222.604 303.244L221.62 302.603C222.256 301.627 222.897 300.655 223.545 299.688ZM219.73 305.545L220.722 306.173C220.101 307.153 219.486 308.138 218.877 309.127L217.878 308.511C218.489 307.518 219.107 306.529 219.73 305.545ZM216.064 311.499L217.071 312.102C216.476 313.097 215.887 314.095 215.303 315.098L214.288 314.508C214.874 313.501 215.466 312.498 216.064 311.499ZM212.55 317.541L213.573 318.119C213.002 319.13 212.438 320.144 211.879 321.163L210.85 320.599C211.41 319.576 211.977 318.557 212.55 317.541ZM209.19 323.674L210.227 324.225C209.683 325.248 209.145 326.276 208.614 327.307L207.57 326.769C208.104 325.733 208.644 324.702 209.19 323.674ZM205.988 329.887L207.038 330.412C206.52 331.451 206.007 332.493 205.501 333.539L204.444 333.028C204.952 331.978 205.467 330.931 205.988 329.887ZM202.944 336.182L204.008 336.679C203.516 337.729 203.032 338.783 202.553 339.84L201.483 339.356C201.964 338.294 202.451 337.236 202.944 336.182ZM200.062 342.551L201.138 343.022C200.672 344.085 200.214 345.153 199.762 346.224L198.68 345.767C199.134 344.692 199.595 343.62 200.062 342.551ZM197.343 348.991L198.43 349.434C197.993 350.508 197.563 351.585 197.139 352.665L196.046 352.236C196.471 351.151 196.904 350.069 197.343 348.991ZM194.788 355.5L195.887 355.915C195.477 357.001 195.073 358.09 194.676 359.183L193.573 358.782C193.971 357.685 194.376 356.591 194.788 355.5ZM192.402 362.07L193.511 362.456C193.129 363.551 192.754 364.648 192.385 365.749L191.272 365.376C191.642 364.271 192.018 363.169 192.402 362.07ZM190.182 368.702L191.301 369.06C190.947 370.165 190.599 371.273 190.259 372.384L189.136 372.04C189.478 370.924 189.827 369.812 190.182 368.702ZM188.135 375.383L189.262 375.713C188.936 376.825 188.618 377.941 188.306 379.059L187.175 378.744C187.488 377.621 187.808 376.5 188.135 375.383ZM186.257 382.122L187.392 382.423C187.095 383.543 186.804 384.667 186.521 385.794L185.382 385.507C185.667 384.376 185.958 383.247 186.257 382.122ZM184.553 388.897L185.696 389.169C185.427 390.296 185.166 391.427 184.912 392.56L183.766 392.303C184.021 391.165 184.284 390.029 184.553 388.897ZM183.021 395.724L184.17 395.967C183.93 397.101 183.698 398.237 183.472 399.376L182.321 399.149C182.547 398.005 182.78 396.863 183.021 395.724ZM181.665 402.576L182.82 402.789C182.609 403.929 182.406 405.071 182.21 406.216L181.052 406.018C181.249 404.868 181.454 403.72 181.665 402.576ZM180.482 409.474L181.642 409.658C181.46 410.802 181.286 411.948 181.119 413.097L179.957 412.928C180.125 411.774 180.3 410.623 180.482 409.474ZM179.477 416.384L180.641 416.538C180.488 417.687 180.343 418.838 180.205 419.992L179.039 419.852C179.178 418.694 179.324 417.538 179.477 416.384ZM178.645 423.335L179.812 423.459C179.689 424.611 179.573 425.765 179.464 426.92L178.295 426.81C178.404 425.65 178.521 424.491 178.645 423.335ZM177.99 430.285L179.16 430.38C179.066 431.535 178.979 432.693 178.899 433.852L177.728 433.771C177.808 432.607 177.896 431.445 177.99 430.285ZM177.509 437.27L178.682 437.335C178.617 438.492 178.559 439.65 178.508 440.81L177.335 440.759C177.386 439.594 177.444 438.431 177.509 437.27ZM177.205 444.243L178.378 444.279C178.342 445.438 178.313 446.598 178.292 447.76L177.118 447.738C177.14 446.571 177.169 445.406 177.205 444.243ZM177.074 451.243C177.07 451.828 177.069 452.414 177.069 453C177.069 453.586 177.07 454.172 177.074 454.757L178.248 454.749C178.245 454.167 178.243 453.584 178.243 453C178.243 452.416 178.245 451.833 178.248 451.251L177.074 451.243ZM177.118 458.262L178.292 458.24C178.313 459.402 178.342 460.562 178.378 461.721L177.205 461.757C177.169 460.594 177.14 459.429 177.118 458.262ZM177.335 465.241L178.508 465.19C178.559 466.35 178.617 467.508 178.682 468.664L177.509 468.73C177.444 467.569 177.386 466.406 177.335 465.241ZM177.728 472.229L178.899 472.148C178.979 473.307 179.066 474.465 179.16 475.62L177.99 475.715C177.896 474.555 177.808 473.393 177.728 472.229ZM178.295 479.19L179.464 479.08C179.573 480.235 179.689 481.389 179.812 482.541L178.645 482.665C178.521 481.509 178.404 480.35 178.295 479.19ZM179.039 486.148L180.205 486.008C180.343 487.162 180.488 488.313 180.641 489.462L179.477 489.616C179.324 488.462 179.178 487.306 179.039 486.148ZM179.957 493.072L181.119 492.903C181.286 494.052 181.46 495.198 181.642 496.342L180.482 496.526C180.3 495.377 180.125 494.225 179.957 493.072ZM181.052 499.982L182.21 499.784C182.406 500.929 182.609 502.071 182.82 503.211L181.665 503.424C181.454 502.279 181.249 501.132 181.052 499.982ZM182.321 506.851L183.472 506.623C183.698 507.763 183.93 508.899 184.17 510.033L183.021 510.276C182.78 509.137 182.547 507.995 182.321 506.851ZM183.766 513.697C184.021 514.835 184.284 515.971 184.553 517.103L185.696 516.831C185.427 515.704 185.166 514.573 184.912 513.44L183.766 513.697ZM185.382 520.493L186.521 520.206C186.804 521.333 187.095 522.456 187.392 523.577L186.257 523.878C185.958 522.752 185.667 521.624 185.382 520.493ZM187.175 527.256L188.306 526.941C188.618 528.059 188.936 529.175 189.262 530.287L188.135 530.617C187.808 529.5 187.488 528.379 187.175 527.256ZM189.136 533.96L190.259 533.616C190.599 534.727 190.947 535.835 191.301 536.939L190.182 537.298C189.827 536.188 189.478 535.076 189.136 533.96ZM191.272 540.623L192.385 540.251C192.754 541.351 193.129 542.449 193.511 543.543L192.402 543.93C192.018 542.831 191.642 541.729 191.272 540.623ZM193.573 547.218L194.676 546.817C195.073 547.91 195.477 548.999 195.887 550.084L194.788 550.499C194.376 549.409 193.971 548.315 193.573 547.218ZM196.046 553.764L197.139 553.335C197.562 554.415 197.993 555.492 198.43 556.566L197.343 557.009C196.904 555.93 196.471 554.849 196.046 553.764ZM198.68 560.233L199.762 559.776C200.214 560.847 200.672 561.914 201.138 562.978L200.062 563.449C199.594 562.38 199.134 561.308 198.68 560.233ZM201.483 566.644C201.964 567.706 202.451 568.764 202.944 569.818L204.008 569.32C203.516 568.271 203.031 567.217 202.553 566.16L201.483 566.644ZM204.444 572.971L205.501 572.46C206.007 573.507 206.52 574.549 207.038 575.588L205.988 576.112C205.467 575.069 204.952 574.022 204.444 572.971ZM207.57 579.231C208.104 580.266 208.644 581.298 209.19 582.326L210.227 581.775C209.683 580.751 209.145 579.724 208.614 578.693L207.57 579.231ZM210.85 585.401L211.879 584.837C212.438 585.855 213.002 586.87 213.573 587.881L212.55 588.458C211.977 587.443 211.41 586.424 210.85 585.401ZM214.288 591.492L215.303 590.901C215.886 591.904 216.476 592.903 217.071 593.898L216.063 594.501C215.466 593.502 214.874 592.499 214.288 591.492ZM217.877 597.489L218.877 596.873C219.486 597.862 220.101 598.846 220.722 599.827L219.73 600.455C219.107 599.471 218.489 598.482 217.877 597.489ZM221.62 603.396L222.603 602.756C223.237 603.728 223.876 604.695 224.521 605.659L223.545 606.312C222.897 605.344 222.255 604.372 221.62 603.396ZM225.508 609.205L226.476 608.539C227.134 609.496 227.798 610.448 228.467 611.396L227.508 612.073C226.836 611.122 226.169 610.165 225.508 609.205ZM229.544 614.915L230.494 614.225C231.175 615.164 231.863 616.098 232.556 617.028L231.614 617.73C230.918 616.796 230.228 615.858 229.544 614.915ZM233.721 620.52L234.654 619.807C235.359 620.729 236.07 621.646 236.787 622.558L235.864 623.284C235.144 622.367 234.43 621.446 233.721 620.52ZM238.04 626.019L238.954 625.282C239.682 626.185 240.415 627.084 241.155 627.978L240.25 628.726C239.507 627.828 238.771 626.926 238.04 626.019ZM242.495 631.407L243.39 630.647C244.141 631.532 244.897 632.412 245.659 633.287L244.773 634.058C244.008 633.179 243.249 632.295 242.495 631.407ZM247.084 636.68L247.96 635.898C248.733 636.764 249.511 637.625 250.295 638.48L249.428 639.273C248.642 638.414 247.86 637.55 247.084 636.68ZM251.805 641.837L252.661 641.033C253.456 641.879 254.255 642.72 255.06 643.556L254.214 644.37C253.406 643.531 252.603 642.687 251.805 641.837ZM256.655 646.873L257.49 646.048C258.306 646.874 259.126 647.694 259.952 648.509L259.127 649.345C258.298 648.526 257.474 647.702 256.655 646.873ZM261.629 651.785L262.444 650.94C263.28 651.745 264.121 652.544 264.966 653.338L264.163 654.194C263.313 653.397 262.469 652.594 261.629 651.785ZM266.726 656.571L267.519 655.705C268.375 656.489 269.236 657.267 270.101 658.039L269.319 658.915C268.45 658.139 267.586 657.358 266.726 656.571ZM271.942 661.227L272.712 660.341C273.588 661.103 274.468 661.859 275.353 662.61L274.593 663.505C273.704 662.751 272.821 661.992 271.942 661.227ZM277.274 665.75L278.022 664.845C278.916 665.584 279.814 666.318 280.718 667.046L279.981 667.96C279.074 667.229 278.171 666.492 277.274 665.75ZM282.716 670.136L283.441 669.213C284.354 669.93 285.271 670.641 286.193 671.346L285.48 672.278C284.554 671.57 283.633 670.856 282.716 670.136ZM288.27 674.386L288.972 673.444C289.902 674.137 290.836 674.824 291.775 675.506L291.085 676.456C290.142 675.772 289.204 675.082 288.27 674.386ZM293.927 678.491L294.604 677.532C295.552 678.202 296.504 678.866 297.46 679.524L296.795 680.492C295.834 679.831 294.878 679.164 293.927 678.491ZM299.688 682.455L300.341 681.479C301.305 682.124 302.272 682.763 303.244 683.396L302.603 684.38C301.627 683.745 300.655 683.103 299.688 682.455ZM305.545 686.27L306.173 685.278C307.153 685.899 308.138 686.514 309.127 687.123L308.511 688.122C307.518 687.511 306.529 686.893 305.545 686.27ZM311.499 689.937L312.102 688.929C313.097 689.524 314.095 690.114 315.098 690.697L314.508 691.712C313.501 691.126 312.498 690.534 311.499 689.937ZM317.542 693.45L318.119 692.427C319.13 692.998 320.145 693.562 321.163 694.121L320.599 695.15C319.576 694.59 318.557 694.023 317.542 693.45ZM323.674 696.81L324.225 695.773C325.248 696.317 326.276 696.855 327.307 697.386L326.769 698.43C325.734 697.896 324.702 697.356 323.674 696.81ZM329.888 700.012L330.412 698.962C331.451 699.48 332.493 699.993 333.54 700.499L333.028 701.556C331.978 701.048 330.931 700.533 329.888 700.012ZM336.182 703.056C337.236 703.549 338.294 704.036 339.356 704.517L339.84 703.447C338.783 702.969 337.729 702.484 336.679 701.992L336.182 703.056ZM342.551 705.938L343.022 704.862C344.086 705.328 345.153 705.786 346.224 706.238L345.767 707.32C344.692 706.866 343.62 706.406 342.551 705.938ZM348.991 708.657L349.434 707.57C350.508 708.007 351.585 708.438 352.665 708.861L352.236 709.954C351.151 709.529 350.069 709.096 348.991 708.657ZM355.501 711.212L355.916 710.113C357.001 710.523 358.09 710.927 359.183 711.324L358.782 712.427C357.685 712.029 356.591 711.624 355.501 711.212ZM362.07 713.598L362.457 712.489C363.551 712.871 364.649 713.246 365.749 713.615L365.377 714.728C364.271 714.358 363.169 713.982 362.07 713.598ZM368.702 715.818L369.061 714.699C370.165 715.053 371.273 715.401 372.384 715.741L372.04 716.864C370.924 716.522 369.812 716.173 368.702 715.818ZM375.383 717.865L375.713 716.738C376.825 717.064 377.941 717.382 379.059 717.694L378.744 718.825C377.621 718.512 376.5 718.192 375.383 717.865ZM382.122 719.743L382.423 718.608C383.544 718.906 384.667 719.196 385.794 719.479L385.507 720.618C384.376 720.333 383.248 720.042 382.122 719.743ZM388.897 721.447L389.169 720.305C390.296 720.573 391.427 720.834 392.56 721.089L392.303 722.234C391.165 721.979 390.03 721.716 388.897 721.447ZM395.724 722.979L395.967 721.831C397.101 722.07 398.238 722.302 399.377 722.528L399.149 723.679C398.005 723.453 396.863 723.22 395.724 722.979ZM402.576 724.335L402.789 723.18C403.929 723.391 405.071 723.594 406.216 723.791L406.018 724.948C404.868 724.751 403.721 724.546 402.576 724.335ZM409.474 725.518L409.658 724.358C410.802 724.54 411.949 724.714 413.097 724.881L412.928 726.043C411.775 725.875 410.623 725.7 409.474 725.518ZM416.384 726.523L416.538 725.359C417.687 725.512 418.839 725.657 419.992 725.795L419.853 726.961C418.694 726.822 417.538 726.676 416.384 726.523ZM423.335 727.355L423.459 726.188C424.611 726.311 425.765 726.427 426.92 726.536L426.81 727.705C425.65 727.596 424.491 727.479 423.335 727.355ZM430.285 728.01L430.38 726.84C431.535 726.934 432.693 727.021 433.852 727.101L433.771 728.272C432.607 728.192 431.445 728.105 430.285 728.01ZM437.27 728.491L437.336 727.318C438.492 727.383 439.65 727.441 440.81 727.492L440.759 728.665C439.594 728.614 438.431 728.556 437.27 728.491ZM444.243 728.795L444.28 727.622C445.438 727.658 446.598 727.687 447.76 727.708L447.738 728.882C446.571 728.861 445.406 728.831 444.243 728.795ZM451.243 728.926L451.251 727.752C451.613 727.754 451.976 727.756 452.338 727.757C452.559 727.757 452.779 727.757 453 727.757C453.584 727.757 454.167 727.755 454.749 727.752L454.757 728.926C454.172 728.93 453.586 728.932 453 728.932C452.414 728.932 451.829 728.93 451.243 728.926ZM458.262 728.882L458.24 727.708C459.402 727.687 460.562 727.658 461.721 727.622L461.757 728.795C460.594 728.831 459.429 728.861 458.262 728.882ZM465.241 728.665L465.19 727.492C466.35 727.441 467.508 727.383 468.665 727.318L468.731 728.491C467.569 728.556 466.406 728.614 465.241 728.665ZM472.229 728.272L472.148 727.101C473.308 727.021 474.465 726.934 475.62 726.84L475.716 728.01C474.555 728.105 473.393 728.192 472.229 728.272ZM479.19 727.705L479.08 726.536C480.236 726.427 481.389 726.311 482.541 726.188L482.666 727.355C481.509 727.479 480.351 727.596 479.19 727.705ZM486.148 726.961L486.008 725.795C487.162 725.657 488.313 725.512 489.462 725.359L489.617 726.523C488.462 726.676 487.306 726.822 486.148 726.961ZM493.072 726.043L492.903 724.881C494.052 724.714 495.198 724.54 496.342 724.358L496.526 725.518C495.377 725.7 494.226 725.875 493.072 726.043ZM499.983 724.948L499.784 723.791C500.929 723.594 502.071 723.391 503.211 723.18L503.424 724.335C502.28 724.546 501.132 724.751 499.983 724.948ZM506.851 723.679L506.624 722.528C507.763 722.302 508.899 722.07 510.033 721.831L510.276 722.979C509.137 723.22 507.995 723.453 506.851 723.679ZM513.697 722.234L513.44 721.089C514.573 720.834 515.704 720.573 516.831 720.305L517.103 721.447C515.971 721.716 514.835 721.979 513.697 722.234ZM520.493 720.618L520.206 719.479C521.333 719.196 522.457 718.906 523.577 718.608L523.878 719.743C522.753 720.042 521.624 720.333 520.493 720.618ZM527.256 718.825L526.941 717.694C528.059 717.382 529.175 717.064 530.287 716.738L530.617 717.865C529.5 718.192 528.379 718.512 527.256 718.825ZM533.96 716.864C535.076 716.522 536.188 716.173 537.298 715.818L536.939 714.699C535.835 715.053 534.727 715.401 533.616 715.741L533.96 716.864ZM540.623 714.728L540.251 713.615C541.352 713.246 542.449 712.871 543.544 712.49L543.93 713.598C542.831 713.982 541.729 714.358 540.623 714.728ZM547.218 712.427L546.817 711.324C547.91 710.927 548.999 710.524 550.085 710.113L550.5 711.212C549.409 711.624 548.315 712.029 547.218 712.427ZM553.764 709.955L553.335 708.862C554.415 708.438 555.492 708.007 556.566 707.57L557.009 708.657C555.931 709.096 554.849 709.529 553.764 709.955ZM560.233 707.32L559.776 706.239C560.847 705.786 561.914 705.328 562.978 704.862L563.449 705.938C562.38 706.406 561.308 706.866 560.233 707.32ZM566.644 704.517L566.16 703.447C567.217 702.969 568.271 702.484 569.321 701.992L569.818 703.056C568.764 703.549 567.706 704.036 566.644 704.517ZM572.972 701.556L572.46 700.499C573.507 699.993 574.549 699.48 575.588 698.962L576.112 700.012C575.069 700.533 574.022 701.048 572.972 701.556ZM579.231 698.43L578.693 697.386C579.724 696.855 580.752 696.317 581.775 695.773L582.326 696.81C581.298 697.356 580.266 697.896 579.231 698.43ZM585.401 695.15L584.837 694.121C585.855 693.562 586.87 692.998 587.881 692.427L588.458 693.45C587.443 694.023 586.424 694.59 585.401 695.15ZM591.492 691.712L590.902 690.697C591.904 690.114 592.903 689.524 593.898 688.929L594.501 689.937C593.502 690.535 592.499 691.126 591.492 691.712ZM597.489 688.123L596.873 687.123C597.862 686.514 598.847 685.899 599.827 685.278L600.455 686.27C599.471 686.893 598.482 687.511 597.489 688.123ZM603.396 684.38L602.756 683.397C603.728 682.763 604.695 682.124 605.659 681.479L606.312 682.455C605.344 683.103 604.373 683.745 603.396 684.38ZM609.205 680.492L608.539 679.524C609.496 678.866 610.448 678.202 611.396 677.533L612.073 678.492C611.122 679.164 610.165 679.831 609.205 680.492ZM614.915 676.456L614.225 675.506C615.164 674.825 616.098 674.137 617.028 673.445L617.73 674.386C616.796 675.082 615.858 675.772 614.915 676.456ZM620.52 672.279L619.807 671.346C620.729 670.641 621.646 669.93 622.558 669.213L623.284 670.137C622.367 670.856 621.446 671.57 620.52 672.279ZM626.019 667.96L625.282 667.046C626.185 666.318 627.084 665.585 627.978 664.846L628.726 665.75C627.828 666.493 626.926 667.229 626.019 667.96ZM631.407 663.505L630.647 662.61C631.532 661.859 632.412 661.103 633.288 660.341L634.058 661.227C633.179 661.992 632.295 662.751 631.407 663.505ZM636.681 658.916L635.899 658.04C636.764 657.267 637.625 656.489 638.481 655.706L639.273 656.572C638.414 657.358 637.55 658.14 636.681 658.916ZM641.837 654.195L641.033 653.339C641.879 652.544 642.72 651.745 643.556 650.94L644.371 651.786C643.531 652.594 642.687 653.397 641.837 654.195ZM646.873 649.345L646.048 648.51C646.874 647.694 647.694 646.874 648.51 646.048L649.345 646.873C648.526 647.702 647.702 648.526 646.873 649.345ZM651.786 644.371L650.94 643.556C651.745 642.72 652.544 641.879 653.339 641.034L654.194 641.837C653.397 642.687 652.594 643.531 651.786 644.371ZM656.571 639.274L655.705 638.481C656.489 637.625 657.267 636.764 658.039 635.899L658.915 636.681C658.14 637.55 657.358 638.414 656.571 639.274ZM661.227 634.058L660.341 633.288C661.103 632.412 661.859 631.532 662.61 630.647L663.505 631.407C662.751 632.296 661.992 633.179 661.227 634.058ZM665.75 628.726L664.845 627.978C665.585 627.084 666.318 626.186 667.046 625.282L667.96 626.019C667.229 626.926 666.493 627.829 665.75 628.726ZM670.136 623.284L669.213 622.559C669.93 621.646 670.641 620.729 671.346 619.807L672.279 620.52C671.57 621.446 670.856 622.367 670.136 623.284ZM674.386 617.73L673.444 617.028C674.137 616.099 674.825 615.164 675.506 614.225L676.456 614.915C675.772 615.858 675.082 616.796 674.386 617.73ZM678.492 612.073L677.533 611.396C678.202 610.448 678.866 609.496 679.524 608.54L680.492 609.205C679.831 610.166 679.164 611.122 678.492 612.073ZM682.455 606.312L681.479 605.659C682.124 604.695 682.763 603.728 683.397 602.756L684.38 603.396C683.745 604.373 683.103 605.345 682.455 606.312ZM686.27 600.455L685.278 599.827C685.899 598.847 686.514 597.862 687.123 596.873L688.123 597.489C687.511 598.482 686.893 599.471 686.27 600.455ZM689.937 594.501L688.929 593.898C689.524 592.903 690.114 591.905 690.697 590.902L691.712 591.492C691.126 592.499 690.535 593.502 689.937 594.501ZM693.45 588.458L692.427 587.881C692.998 586.87 693.563 585.856 694.121 584.837L695.15 585.401C694.59 586.424 694.023 587.443 693.45 588.458ZM696.81 582.326L695.773 581.775C696.317 580.752 696.855 579.724 697.386 578.693L698.43 579.231C697.896 580.266 697.356 581.298 696.81 582.326ZM700.012 576.113C700.533 575.069 701.048 574.022 701.556 572.972L700.499 572.461C699.993 573.507 699.48 574.549 698.962 575.588L700.012 576.113ZM703.056 569.818C703.549 568.764 704.036 567.706 704.517 566.644L703.447 566.16C702.969 567.217 702.484 568.271 701.992 569.321L703.056 569.818ZM705.938 563.449L704.863 562.978C705.328 561.914 705.786 560.847 706.239 559.776L707.32 560.233C706.866 561.308 706.406 562.38 705.938 563.449ZM708.657 557.009L707.57 556.566C708.007 555.492 708.438 554.415 708.862 553.335L709.955 553.764C709.529 554.849 709.096 555.931 708.657 557.009ZM711.212 550.499L710.113 550.085C710.524 548.999 710.927 547.91 711.324 546.817L712.428 547.218C712.029 548.315 711.624 549.409 711.212 550.499ZM713.598 543.93L712.49 543.544C712.871 542.449 713.247 541.352 713.615 540.251L714.728 540.623C714.358 541.729 713.982 542.831 713.598 543.93ZM715.818 537.298L714.7 536.939C715.054 535.835 715.401 534.727 715.741 533.616L716.864 533.96C716.522 535.076 716.173 536.188 715.818 537.298ZM717.865 530.617L716.738 530.287C717.064 529.175 717.382 528.059 717.694 526.941L718.825 527.256C718.512 528.379 718.192 529.5 717.865 530.617ZM719.744 523.878C720.042 522.752 720.333 521.624 720.618 520.493L719.479 520.206C719.196 521.333 718.906 522.456 718.609 523.577L719.744 523.878ZM721.447 517.103C721.716 515.971 721.979 514.835 722.234 513.697L721.089 513.44C720.834 514.573 720.573 515.704 720.305 516.831L721.447 517.103ZM722.979 510.276L721.831 510.033C722.07 508.899 722.302 507.763 722.528 506.623L723.68 506.851C723.453 507.995 723.22 509.137 722.979 510.276ZM724.335 503.424L723.18 503.211C723.391 502.071 723.594 500.929 723.791 499.784L724.948 499.982C724.751 501.132 724.546 502.279 724.335 503.424ZM725.518 496.526L724.358 496.342C724.54 495.198 724.714 494.051 724.881 492.903L726.043 493.072C725.875 494.225 725.7 495.377 725.518 496.526ZM726.523 489.616L725.359 489.462C725.512 488.313 725.657 487.161 725.795 486.008L726.961 486.147C726.822 487.306 726.677 488.462 726.523 489.616ZM727.356 482.665L726.188 482.541C726.311 481.389 726.427 480.235 726.536 479.08L727.705 479.19C727.596 480.35 727.479 481.509 727.356 482.665ZM728.01 475.715L726.84 475.62C726.934 474.465 727.021 473.307 727.101 472.148L728.272 472.229C728.192 473.393 728.105 474.555 728.01 475.715ZM728.491 468.73L727.318 468.664C727.383 467.508 727.441 466.35 727.492 465.19L728.665 465.241C728.614 466.406 728.556 467.569 728.491 468.73ZM728.795 461.757L727.622 461.721C727.658 460.562 727.687 459.402 727.709 458.24L728.883 458.262C728.861 459.429 728.832 460.594 728.795 461.757Z" fill="white"/>
<path fill-rule="evenodd" clip-rule="evenodd" d="M905.991 455.883L904.063 455.871C904.069 454.915 904.072 453.958 904.072 453C904.072 452.042 904.069 451.085 904.063 450.128L905.991 450.116C905.997 451.077 906 452.038 906 453C906 453.962 905.997 454.923 905.991 455.883ZM905.919 444.361C905.883 442.445 905.836 440.533 905.776 438.623L903.849 438.683C903.909 440.585 903.956 442.489 903.992 444.397L905.919 444.361ZM905.562 432.903C905.479 430.991 905.383 429.081 905.276 427.175L903.352 427.283C903.458 429.182 903.553 431.083 903.636 432.987L905.562 432.903ZM904.917 421.432L902.994 421.564C902.863 419.661 902.72 417.761 902.566 415.864L904.487 415.708C904.642 417.612 904.786 419.52 904.917 421.432ZM903.986 410.004L902.067 410.185C901.888 408.287 901.698 406.393 901.496 404.503L903.413 404.298C903.615 406.196 903.807 408.098 903.986 410.004ZM902.765 398.581L900.851 398.81C900.624 396.917 900.386 395.026 900.135 393.14L902.047 392.886C902.298 394.781 902.537 396.679 902.765 398.581ZM901.258 387.214L899.35 387.491C899.076 385.605 898.79 383.723 898.492 381.845L900.396 381.543C900.695 383.429 900.982 385.32 901.258 387.214ZM899.46 375.868L897.56 376.194C897.237 374.315 896.904 372.439 896.558 370.568L898.453 370.218C898.801 372.097 899.136 373.981 899.46 375.868ZM897.378 364.592L895.487 364.966C895.117 363.096 894.735 361.23 894.342 359.368L896.228 358.97C896.623 360.84 897.006 362.714 897.378 364.592ZM895.005 353.353L893.124 353.775C892.706 351.915 892.277 350.059 891.837 348.207L893.712 347.761C894.155 349.621 894.586 351.484 895.005 353.353ZM892.351 342.197L890.481 342.667C890.017 340.817 889.54 338.973 889.052 337.132L890.916 336.639C891.406 338.487 891.884 340.339 892.351 342.197ZM889.408 331.093L887.551 331.61C887.039 329.774 886.516 327.943 885.982 326.117L887.832 325.576C888.369 327.41 888.894 329.249 889.408 331.093ZM886.188 320.087L884.345 320.652C883.786 318.828 883.216 317.009 882.635 315.196L884.471 314.607C885.055 316.429 885.627 318.256 886.188 320.087ZM882.682 309.148L880.854 309.759C880.25 307.952 879.634 306.151 879.007 304.354L880.827 303.719C881.457 305.523 882.075 307.333 882.682 309.148ZM878.905 298.321L877.093 298.979C876.442 297.186 875.779 295.398 875.106 293.615L876.909 292.934C877.586 294.724 878.251 296.52 878.905 298.321ZM874.845 287.575C874.146 285.793 873.436 284.018 872.715 282.248L870.93 282.975C871.648 284.737 872.355 286.505 873.051 288.279L874.845 287.575ZM870.521 276.955L868.745 277.704C868.003 275.946 867.249 274.194 866.486 272.447L868.252 271.675C869.019 273.429 869.775 275.189 870.521 276.955ZM865.918 266.429L864.162 267.224C863.376 265.489 862.58 263.759 861.774 262.035L863.52 261.218C864.33 262.949 865.129 264.686 865.918 266.429ZM861.057 256.041L859.321 256.881C858.491 255.163 857.65 253.452 856.798 251.746L858.523 250.885C859.378 252.598 860.223 254.317 861.057 256.041ZM855.926 245.766L854.212 246.649C853.34 244.956 852.457 243.269 851.563 241.589L853.266 240.684C854.163 242.371 855.049 244.065 855.926 245.766ZM850.541 235.636L848.851 236.562C847.934 234.89 847.008 233.224 846.071 231.564L847.749 230.617C848.69 232.283 849.621 233.956 850.541 235.636ZM844.896 225.637L843.229 226.606C842.272 224.959 841.305 223.319 840.328 221.686L841.982 220.696C842.963 222.336 843.935 223.983 844.896 225.637ZM839.004 215.791L837.362 216.802C836.362 215.179 835.353 213.562 834.333 211.953L835.962 210.921C836.986 212.538 838 214.161 839.004 215.791ZM832.86 206.093L831.245 207.145C830.205 205.549 829.156 203.96 828.097 202.379L829.699 201.306C830.763 202.895 831.816 204.49 832.86 206.093ZM826.476 196.557L824.888 197.649C823.807 196.079 822.718 194.516 821.618 192.96L823.192 191.848C824.296 193.41 825.391 194.98 826.476 196.557ZM819.851 187.182L818.291 188.315C817.172 186.774 816.044 185.24 814.906 183.713L816.452 182.561C817.594 184.094 818.727 185.635 819.851 187.182ZM812.992 177.98L811.461 179.152C810.303 177.638 809.136 176.132 807.96 174.634L809.476 173.444C810.657 174.948 811.829 176.46 812.992 177.98ZM805.903 168.953L804.402 170.163C803.207 168.68 802.003 167.204 800.789 165.737L802.275 164.509C803.493 165.982 804.703 167.464 805.903 168.953ZM798.589 160.108L797.119 161.355C795.886 159.902 794.645 158.457 793.394 157.02L794.848 155.755C796.104 157.198 797.351 158.649 798.589 160.108ZM791.054 151.45L789.616 152.733C788.347 151.312 787.07 149.899 785.784 148.495L787.206 147.193C788.497 148.604 789.78 150.023 791.054 151.45ZM783.303 142.984L781.898 144.303C780.594 142.915 779.281 141.534 777.96 140.162L779.349 138.825C780.676 140.203 781.994 141.589 783.303 142.984ZM775.342 134.716L773.97 136.071C772.632 134.715 771.285 133.368 769.93 132.03L771.284 130.658C772.645 132.002 773.998 133.355 775.342 134.716ZM767.175 126.652L765.838 128.04C764.466 126.719 763.086 125.406 761.697 124.102L763.016 122.697C764.411 124.006 765.797 125.325 767.175 126.652ZM758.807 118.795L757.506 120.216C756.101 118.93 754.688 117.653 753.267 116.384L754.551 114.946C755.978 116.22 757.397 117.503 758.807 118.795ZM750.246 111.152L748.98 112.606C747.543 111.355 746.098 110.114 744.645 108.881L745.892 107.411C747.351 108.649 748.803 109.896 750.246 111.152ZM741.492 103.725L740.263 105.211C738.796 103.998 737.321 102.793 735.838 101.598L737.047 100.097C738.537 101.297 740.018 102.507 741.492 103.725ZM732.557 96.5246L731.366 98.0407C729.868 96.8641 728.362 95.6968 726.849 94.5389L728.02 93.008C729.54 94.1708 731.052 95.3431 732.557 96.5246ZM723.439 89.5484L722.287 91.094C720.76 89.9564 719.227 88.8282 717.686 87.7096L718.818 86.1496C720.366 87.273 721.906 88.4059 723.439 89.5484ZM714.153 82.808L713.04 84.3822C711.484 83.2827 709.921 82.1928 708.351 81.1125L709.444 79.5244C711.021 80.6092 712.59 81.7038 714.153 82.808ZM704.694 76.301L703.622 77.9028C702.04 76.8439 700.451 75.7948 698.856 74.7554L699.908 73.1402C701.51 74.184 703.106 75.2376 704.694 76.301ZM695.079 70.0386L694.048 71.667C692.438 70.6474 690.822 69.6377 689.198 68.638L690.209 66.9967C691.839 68.0006 693.463 69.0146 695.079 70.0386ZM685.304 64.0186L684.314 65.6726C682.681 64.6952 681.041 63.7279 679.395 62.7707L680.364 61.1042C682.017 62.0655 683.664 63.037 685.304 64.0186ZM675.384 58.2508L674.436 59.9294C672.776 58.9925 671.11 58.0659 669.438 57.1494L670.364 55.4589C672.044 56.3793 673.717 57.3099 675.384 58.2508ZM665.316 52.7346L664.412 54.4367C662.731 53.5435 661.044 52.6606 659.352 51.7881L660.235 50.0746C661.935 50.9509 663.629 51.8375 665.316 52.7346ZM655.115 47.4774L654.254 49.2019C652.549 48.3503 650.837 47.5092 649.12 46.6787L649.959 44.9433C651.684 45.7774 653.403 46.6221 655.115 47.4774ZM644.782 42.4804L643.965 44.2263C642.241 43.4197 640.512 42.6237 638.776 41.8384L639.571 40.0822C641.314 40.8709 643.051 41.6703 644.782 42.4804ZM634.325 37.7483L633.553 39.5144C631.806 38.7507 630.054 37.9977 628.296 37.2555L629.045 35.4796C630.811 36.225 632.571 36.9812 634.325 37.7483ZM623.752 33.2846L623.025 35.0699C621.263 34.3522 619.495 33.6453 617.721 32.9493L618.426 31.1549C620.207 31.8538 621.982 32.5638 623.752 33.2846ZM613.066 29.0908L612.385 30.8941C610.602 30.2207 608.814 29.5582 607.021 28.9068L607.679 27.095C609.48 27.7492 611.276 28.4145 613.066 29.0908ZM602.281 25.173L601.646 26.9931C599.85 26.3662 598.048 25.7504 596.241 25.1457L596.852 23.3176C598.667 23.925 600.477 24.5434 602.281 25.173ZM591.393 21.5293C589.571 20.9455 587.744 20.373 585.913 19.8117L585.348 21.6547C587.172 22.2136 588.991 22.7837 590.804 23.365L591.393 21.5293ZM580.424 18.1679L579.883 20.018C578.057 19.4837 576.226 18.9606 574.39 18.4488L574.907 16.5919C576.751 17.1059 578.59 17.6313 580.424 18.1679ZM569.361 15.0842L568.868 16.9475C567.027 16.4598 565.183 15.9835 563.333 15.5186L563.803 13.6491C565.661 14.116 567.513 14.5944 569.361 15.0842ZM558.239 12.2877L557.793 14.163C555.941 13.7226 554.085 13.2935 552.225 12.876L552.647 10.9951C554.516 11.4145 556.379 11.8454 558.239 12.2877ZM547.03 9.77175L546.632 11.6578C544.77 11.2649 542.904 10.8833 541.034 10.5134L541.408 8.62239C543.286 8.99393 545.16 9.37708 547.03 9.77175ZM535.782 7.54645L535.432 9.44206C533.56 9.09648 531.685 8.76245 529.805 8.44004L530.131 6.54013C532.019 6.86392 533.903 7.19938 535.782 7.54645ZM524.457 5.60389L524.155 7.50779C522.277 7.21014 520.395 6.92409 518.508 6.64971L518.786 4.74213C520.68 5.01769 522.57 5.30496 524.457 5.60389ZM513.113 3.95347L512.86 5.86441C510.973 5.61427 509.083 5.3758 507.189 5.14906L507.418 3.23507C509.32 3.46278 511.219 3.70227 513.113 3.95347ZM501.702 2.58737L501.497 4.50412C499.606 4.30204 497.712 4.11165 495.815 3.93301L495.996 2.01383C497.901 2.19324 499.803 2.38444 501.702 2.58737ZM490.292 1.51296L490.135 3.43426C488.239 3.27971 486.339 3.1369 484.435 3.0059L484.568 1.08279C486.479 1.21435 488.387 1.35777 490.292 1.51296ZM478.824 0.723748L478.716 2.64837C476.818 2.54169 474.917 2.44674 473.012 2.3636L473.096 0.437778C475.009 0.521267 476.918 0.616614 478.824 0.723748ZM467.376 0.223793L467.316 2.15052C465.415 2.09123 463.51 2.04372 461.603 2.00804L461.639 0.0807197C463.554 0.116545 465.467 0.164259 467.376 0.223793ZM455.883 0.00898387L455.871 1.93661C454.915 1.93064 453.958 1.92766 453 1.92766C452.042 1.92766 451.085 1.93065 450.128 1.93661L450.116 0.0089878C451.077 0.00299888 452.038 0 453 0C453.962 0 454.923 0.00299757 455.883 0.00898387ZM444.361 0.0807303L444.397 2.00805C442.489 2.04373 440.585 2.09125 438.683 2.15053L438.623 0.223809C440.533 0.164274 442.445 0.116558 444.361 0.0807303ZM432.903 0.437801L432.987 2.36363C431.083 2.44677 429.182 2.54171 427.283 2.6484L427.175 0.723774C429.081 0.616639 430.991 0.521291 432.903 0.437801ZM421.432 1.08282L421.564 3.00593C419.661 3.13694 417.761 3.27975 415.864 3.43429L415.708 1.513C417.612 1.3578 419.52 1.21438 421.432 1.08282ZM410.004 2.01387L410.185 3.93305C408.287 4.11169 406.393 4.30208 404.503 4.50416L404.298 2.58742C406.196 2.38448 408.098 2.19328 410.004 2.01387ZM398.581 3.23511L398.81 5.1491C396.917 5.37584 395.026 5.61431 393.14 5.86445L392.886 3.95351C394.781 3.70231 396.679 3.46282 398.581 3.23511ZM387.214 4.74217L387.491 6.64975C385.605 6.92413 383.723 7.21018 381.845 7.50783L381.543 5.60392C383.429 5.305 385.32 5.01773 387.214 4.74217ZM375.868 6.54017L376.194 8.44008C374.315 8.76248 372.439 9.09652 370.568 9.4421L370.218 7.54649C372.097 7.19942 373.981 6.86396 375.868 6.54017ZM364.592 8.62242L364.966 10.5134C363.096 10.8834 361.23 11.2649 359.368 11.6579L358.97 9.77178C360.84 9.37711 362.714 8.99396 364.592 8.62242ZM353.353 10.9951L353.775 12.876C351.915 13.2935 350.059 13.7226 348.207 14.163L347.761 12.2877C349.621 11.8454 351.484 11.4145 353.353 10.9951ZM342.197 13.6491L342.667 15.5186C340.817 15.9835 338.973 16.4598 337.132 16.9475L336.639 15.0842C338.487 14.5944 340.339 14.116 342.197 13.6491ZM331.093 16.5919L331.61 18.4488C329.774 18.9606 327.943 19.4837 326.117 20.018L325.576 18.1679C327.41 17.6313 329.249 17.1059 331.093 16.5919ZM320.087 19.8116L320.652 21.6547C318.828 22.2136 317.009 22.7837 315.196 23.365L314.607 21.5293C316.429 20.9455 318.256 20.3729 320.087 19.8116ZM309.148 23.3176L309.759 25.1456C307.952 25.7503 306.151 26.3662 304.354 26.993L303.719 25.173C305.523 24.5434 307.333 23.9249 309.148 23.3176ZM298.321 27.0949L298.979 28.9067C297.186 29.5581 295.398 30.2206 293.615 30.894L292.934 29.0908C294.724 28.4144 296.52 27.7491 298.321 27.0949ZM287.575 31.1548L288.279 32.9492C286.505 33.6452 284.737 34.3521 282.975 35.0698L282.248 33.2845C284.018 32.5637 285.793 31.8538 287.575 31.1548ZM276.955 35.4795L277.704 37.2554C275.946 37.9975 274.194 38.7506 272.447 39.5143L271.675 37.7481C273.429 36.9811 275.189 36.2248 276.955 35.4795ZM266.429 40.082L267.224 41.8382C265.489 42.6236 263.759 43.4196 262.035 44.2262L261.218 42.4802C262.949 41.6702 264.686 40.8708 266.429 40.082ZM256.041 44.9431L256.881 46.6785C255.163 47.5091 253.452 48.3502 251.746 49.2018L250.885 47.4772C252.598 46.6219 254.317 45.7772 256.041 44.9431ZM245.766 50.0745L246.649 51.788C244.956 52.6605 243.269 53.5433 241.589 54.4366L240.684 52.7344C242.371 51.8374 244.065 50.9507 245.766 50.0745ZM235.636 55.4588L236.562 57.1493C234.89 58.0657 233.224 58.9924 231.564 59.9293L230.617 58.2507C232.283 57.3097 233.956 56.3791 235.636 55.4588ZM225.637 61.104L226.606 62.7705C224.959 63.7277 223.319 64.695 221.686 65.6724L220.696 64.0184C222.336 63.0368 223.983 62.0653 225.637 61.104ZM215.791 66.9965L216.802 68.6378C215.179 69.6375 213.562 70.6472 211.953 71.6668L210.921 70.0384C212.538 69.0144 214.161 68.0004 215.791 66.9965ZM206.093 73.14L207.145 74.7552C205.549 75.7946 203.96 76.8437 202.379 77.9026L201.306 76.3008C202.895 75.2374 204.49 74.1838 206.093 73.14ZM196.557 79.5242L197.649 81.1123C196.079 82.1926 194.516 83.2825 192.96 84.382L191.848 82.8078C193.41 81.7036 194.98 80.609 196.557 79.5242ZM187.182 86.1493L188.315 87.7094C186.774 88.828 185.24 89.9562 183.713 91.0938L182.561 89.5482C184.094 88.4057 185.635 87.2727 187.182 86.1493ZM177.98 93.0078L179.152 94.5387C177.638 95.6966 176.132 96.8639 174.634 98.0405L173.444 96.5244C174.948 95.3428 176.46 94.1706 177.98 93.0078ZM168.953 100.097L170.163 101.598C168.68 102.793 167.204 103.997 165.737 105.211L164.509 103.725C165.982 102.507 167.464 101.297 168.953 100.097ZM160.108 107.411L161.355 108.881C159.902 110.114 158.457 111.355 157.02 112.606L155.755 111.152C157.198 109.896 158.649 108.649 160.108 107.411ZM151.45 114.946L152.733 116.384C151.312 117.653 149.899 118.93 148.495 120.216L147.193 118.794C148.604 117.503 150.023 116.22 151.45 114.946ZM142.984 122.697L144.303 124.102C142.915 125.406 141.534 126.719 140.162 128.04L138.825 126.651C140.203 125.324 141.589 124.006 142.984 122.697ZM134.716 130.658L136.071 132.03C134.715 133.368 133.368 134.715 132.03 136.07L130.658 134.716C132.002 133.355 133.355 132.002 134.716 130.658ZM126.652 138.825L128.04 140.162C126.719 141.534 125.406 142.914 124.102 144.303L122.697 142.984C124.006 141.589 125.325 140.203 126.652 138.825ZM118.794 147.193L120.216 148.494C118.93 149.899 117.653 151.312 116.384 152.733L114.946 151.449C116.22 150.022 117.503 148.603 118.794 147.193ZM111.152 155.754L112.606 157.02C111.355 158.457 110.114 159.902 108.881 161.355L107.411 160.108C108.649 158.648 109.896 157.197 111.152 155.754ZM103.725 164.508L105.211 165.737C103.998 167.204 102.793 168.679 101.598 170.162L100.097 168.953C101.297 167.463 102.507 165.982 103.725 164.508ZM96.5246 173.443L98.0407 174.634C96.8641 176.132 95.6968 177.638 94.5389 179.151L93.008 177.98C94.1708 176.46 95.3431 174.948 96.5246 173.443ZM89.5484 182.561L91.094 183.713C89.9564 185.24 88.8282 186.773 87.7096 188.314L86.1495 187.182C87.273 185.634 88.4059 184.094 89.5484 182.561ZM82.808 191.847L84.3822 192.96C83.2827 194.516 82.1928 196.079 81.1125 197.649L79.5244 196.556C80.6092 194.979 81.7038 193.41 82.808 191.847ZM76.301 201.306L77.9028 202.378C76.8439 203.96 75.7948 205.549 74.7554 207.144L73.1402 206.092C74.184 204.49 75.2376 202.894 76.301 201.306ZM70.0386 210.921L71.667 211.952C70.6474 213.562 69.6377 215.178 68.638 216.802L66.9967 215.791C68.0006 214.161 69.0146 212.537 70.0386 210.921ZM64.0186 220.696L65.6726 221.686C64.6952 223.319 63.7279 224.959 62.7707 226.605L61.1042 225.636C62.0655 223.983 63.037 222.336 64.0186 220.696ZM58.2508 230.616L59.9294 231.564C58.9925 233.224 58.0659 234.89 57.1494 236.562L55.4589 235.636C56.3793 233.956 57.3099 232.283 58.2508 230.616ZM52.7346 240.684L54.4367 241.588C53.5435 243.269 52.6606 244.955 51.7881 246.648L50.0746 245.765C50.9509 244.065 51.8375 242.371 52.7346 240.684ZM47.4773 250.885L49.2019 251.746C48.3503 253.451 47.5092 255.163 46.6787 256.88L44.9433 256.041C45.7774 254.316 46.6221 252.597 47.4773 250.885ZM42.4804 261.218L44.2263 262.035C43.4197 263.759 42.6237 265.488 41.8384 267.224L40.0822 266.429C40.8709 264.686 41.6703 262.949 42.4804 261.218ZM37.7483 271.675L39.5144 272.447C38.7507 274.194 37.9977 275.946 37.2555 277.704L35.4796 276.955C36.225 275.189 36.9812 273.429 37.7483 271.675ZM33.2846 282.248L35.0699 282.975C34.3522 284.737 33.6453 286.505 32.9493 288.279L31.1549 287.574C31.8538 285.793 32.5638 284.018 33.2846 282.248ZM29.0909 292.934L30.8941 293.615C30.2207 295.398 29.5582 297.186 28.9068 298.979L27.095 298.321C27.7492 296.52 28.4145 294.724 29.0909 292.934ZM25.173 303.719L26.9931 304.354C26.3662 306.15 25.7504 307.952 25.1457 309.759L23.3176 309.148C23.925 307.333 24.5434 305.523 25.173 303.719ZM21.5293 314.607L23.365 315.196C22.7837 317.009 22.2136 318.828 21.6547 320.652L19.8117 320.087C20.373 318.255 20.9455 316.429 21.5293 314.607ZM18.1679 325.575L20.018 326.117C19.4837 327.943 18.9606 329.774 18.4488 331.61L16.5919 331.093C17.1059 329.249 17.6313 327.41 18.1679 325.575ZM15.0842 336.639L16.9475 337.132C16.4598 338.973 15.9835 340.817 15.5186 342.667L13.6491 342.197C14.116 340.339 14.5944 338.487 15.0842 336.639ZM12.2877 347.761L14.163 348.207C13.7226 350.059 13.2935 351.915 12.876 353.775L10.9951 353.353C11.4145 351.484 11.8454 349.621 12.2877 347.761ZM9.77175 358.97L11.6578 359.368C11.2649 361.23 10.8833 363.096 10.5134 364.966L8.62239 364.592C8.99393 362.714 9.37707 360.84 9.77175 358.97ZM7.54645 370.218L9.44206 370.568C9.09648 372.44 8.76245 374.315 8.44004 376.194L6.54013 375.869C6.86392 373.981 7.19939 372.098 7.54645 370.218ZM5.60389 381.543L7.50779 381.845C7.21014 383.723 6.92409 385.605 6.64971 387.492L4.74213 387.214C5.01769 385.32 5.30496 383.43 5.60389 381.543ZM3.95347 392.887L5.86441 393.14C5.61427 395.027 5.3758 396.917 5.14906 398.811L3.23507 398.582C3.46278 396.68 3.70227 394.781 3.95347 392.887ZM2.58737 404.298L4.50412 404.503C4.30204 406.394 4.11165 408.288 3.93301 410.185L2.01383 410.004C2.19324 408.099 2.38444 406.197 2.58737 404.298ZM1.51296 415.708L3.43426 415.865C3.27971 417.761 3.1369 419.661 3.0059 421.565L1.08279 421.432C1.21435 419.521 1.35777 417.613 1.51296 415.708ZM0.723748 427.176L2.64837 427.284C2.54169 429.182 2.44674 431.083 2.3636 432.988L0.437778 432.904C0.521267 430.991 0.616614 429.082 0.723748 427.176ZM0.223793 438.624L2.15052 438.684C2.09123 440.585 2.04372 442.49 2.00804 444.397L0.0807197 444.361C0.116545 442.446 0.164259 440.533 0.223793 438.624ZM0.00898387 450.117C0.00299757 451.077 0 452.038 0 453C0 453.962 0.00299888 454.923 0.00898781 455.884L1.93661 455.872C1.93065 454.915 1.92766 453.958 1.92766 453C1.92766 452.042 1.93064 451.085 1.93661 450.129L0.00898387 450.117ZM0.0807304 461.639L2.00805 461.603C2.04373 463.511 2.09125 465.415 2.15053 467.317L0.223809 467.377C0.164274 465.467 0.116558 463.555 0.0807304 461.639ZM0.437801 473.097L2.36363 473.013C2.44677 474.917 2.54171 476.818 2.6484 478.717L0.723774 478.825C0.61664 476.919 0.521291 475.009 0.437801 473.097ZM1.08282 484.568L3.00593 484.436C3.13694 486.339 3.27975 488.239 3.43429 490.136L1.513 490.292C1.3578 488.388 1.21438 486.48 1.08282 484.568ZM2.01387 495.996L3.93305 495.815C4.11169 497.713 4.30208 499.607 4.50416 501.497L2.58742 501.702C2.38448 499.804 2.19328 497.902 2.01387 495.996ZM3.23511 507.419L5.1491 507.19C5.37584 509.083 5.61431 510.974 5.86445 512.86L3.95351 513.114C3.70231 511.219 3.46282 509.321 3.23511 507.419ZM4.74217 518.786L6.64975 518.509C6.92413 520.395 7.21018 522.277 7.50783 524.155L5.60392 524.457C5.305 522.571 5.01773 520.68 4.74217 518.786ZM6.54017 530.132L8.44008 529.806C8.76248 531.685 9.09652 533.561 9.4421 535.432L7.54649 535.782C7.19942 533.903 6.86396 532.019 6.54017 530.132ZM8.62243 541.408L10.5134 541.034C10.8834 542.904 11.2649 544.77 11.6579 546.632L9.77179 547.03C9.37711 545.16 8.99396 543.286 8.62243 541.408ZM10.9951 552.647L12.876 552.225C13.2935 554.085 13.7226 555.941 14.163 557.793L12.2877 558.239C11.8454 556.379 11.4145 554.516 10.9951 552.647ZM13.6491 563.803L15.5186 563.333C15.9835 565.183 16.4598 567.027 16.9475 568.868L15.0842 569.361C14.5944 567.513 14.116 565.661 13.6491 563.803ZM16.5919 574.907L18.4488 574.39C18.9606 576.226 19.4837 578.057 20.018 579.883L18.1679 580.424C17.6313 578.59 17.1059 576.751 16.5919 574.907ZM19.8116 585.913L21.6547 585.348C22.2136 587.172 22.7837 588.99 23.365 590.804L21.5293 591.393C20.9455 589.571 20.3729 587.744 19.8116 585.913ZM23.3176 596.852L25.1456 596.241C25.7503 598.048 26.3662 599.849 26.993 601.646L25.173 602.281C24.5434 600.477 23.9249 598.667 23.3176 596.852ZM27.0949 607.679C27.7491 609.48 28.4144 611.276 29.0908 613.066L30.894 612.385C30.2206 610.602 29.5581 608.814 28.9067 607.021L27.0949 607.679ZM31.1548 618.425L32.9492 617.721C33.6452 619.495 34.3521 621.263 35.0698 623.025L33.2845 623.752C32.5637 621.982 31.8538 620.207 31.1548 618.425ZM35.4795 629.045L37.2554 628.295C37.9975 630.054 38.7506 631.806 39.5143 633.553L37.7481 634.325C36.9811 632.571 36.2248 630.811 35.4795 629.045ZM40.0821 639.571L41.8382 638.776C42.6236 640.511 43.4196 642.241 44.2262 643.965L42.4802 644.782C41.6702 643.051 40.8708 641.314 40.0821 639.571ZM44.9431 649.958L46.6785 649.119C47.5091 650.837 48.3502 652.548 49.2018 654.254L47.4772 655.115C46.6219 653.402 45.7772 651.683 44.9431 649.958ZM50.0745 660.234L51.788 659.351C52.6605 661.044 53.5433 662.731 54.4366 664.411L52.7344 665.316C51.8374 663.628 50.9507 661.935 50.0745 660.234ZM55.4588 670.364L57.1493 669.438C58.0657 671.11 58.9924 672.776 59.9293 674.436L58.2507 675.383C57.3098 673.717 56.3791 672.044 55.4588 670.364ZM61.104 680.363L62.7705 679.394C63.7277 681.041 64.695 682.681 65.6724 684.314L64.0184 685.304C63.0368 683.664 62.0653 682.017 61.104 680.363ZM66.9965 690.209L68.6378 689.198C69.6375 690.821 70.6472 692.438 71.6668 694.047L70.0384 695.079C69.0144 693.462 68.0004 691.839 66.9965 690.209ZM73.14 699.907C74.1838 701.51 75.2374 703.105 76.3008 704.694L77.9026 703.621C76.8437 702.04 75.7946 700.451 74.7552 698.855L73.14 699.907ZM79.5242 709.443L81.1123 708.351C82.1926 709.921 83.2825 711.484 84.382 713.04L82.8078 714.152C81.7036 712.59 80.609 711.02 79.5242 709.443ZM86.1493 718.818L87.7094 717.685C88.828 719.226 89.9562 720.76 91.0938 722.287L89.5482 723.438C88.4057 721.906 87.2728 720.365 86.1493 718.818ZM93.0078 728.02L94.5387 726.848C95.6966 728.362 96.8639 729.868 98.0405 731.366L96.5244 732.556C95.3429 731.052 94.1706 729.54 93.0078 728.02ZM100.097 737.047L101.598 735.837C102.793 737.32 103.997 738.796 105.211 740.263L103.725 741.491C102.507 740.018 101.297 738.536 100.097 737.047ZM107.411 745.892L108.881 744.645C110.114 746.098 111.355 747.543 112.606 748.98L111.152 750.245C109.896 748.802 108.649 747.351 107.411 745.892ZM114.946 754.55L116.384 753.267C117.653 754.688 118.93 756.101 120.216 757.505L118.794 758.807C117.503 757.396 116.22 755.977 114.946 754.55ZM122.697 763.016L124.102 761.697C125.406 763.085 126.719 764.466 128.04 765.838L126.651 767.175C125.324 765.797 124.006 764.411 122.697 763.016ZM130.658 771.284L132.03 769.929C133.368 771.285 134.715 772.632 136.07 773.97L134.716 775.342C133.355 773.998 132.002 772.645 130.658 771.284ZM138.825 779.348L140.162 777.96C141.534 779.281 142.914 780.594 144.303 781.898L142.984 783.303C141.589 781.994 140.203 780.675 138.825 779.348ZM147.193 787.206L148.494 785.784C149.899 787.07 151.312 788.347 152.733 789.616L151.449 791.054C150.022 789.78 148.603 788.497 147.193 787.206ZM155.754 794.848L157.02 793.394C158.457 794.645 159.902 795.886 161.355 797.119L160.108 798.589C158.648 797.351 157.197 796.104 155.754 794.848ZM164.508 802.275L165.737 800.789C167.204 802.002 168.679 803.207 170.162 804.402L168.953 805.903C167.463 804.703 165.982 803.493 164.508 802.275ZM173.443 809.475L174.634 807.959C176.132 809.136 177.638 810.303 179.151 811.461L177.98 812.992C176.46 811.829 174.948 810.657 173.443 809.475ZM182.561 816.452L183.713 814.906C185.24 816.044 186.773 817.172 188.314 818.29L187.182 819.85C185.634 818.727 184.094 817.594 182.561 816.452ZM191.847 823.192L192.96 821.618C194.516 822.717 196.079 823.807 197.649 824.887L196.556 826.476C194.979 825.391 193.41 824.296 191.847 823.192ZM201.306 829.699L202.378 828.097C203.96 829.156 205.549 830.205 207.144 831.245L206.092 832.86C204.49 831.816 202.894 830.762 201.306 829.699ZM210.921 835.961L211.952 834.333C213.562 835.353 215.178 836.362 216.802 837.362L215.791 839.003C214.161 837.999 212.537 836.985 210.921 835.961ZM220.696 841.981L221.686 840.327C223.319 841.305 224.959 842.272 226.605 843.229L225.636 844.896C223.983 843.934 222.336 842.963 220.696 841.981ZM230.616 847.749L231.564 846.071C233.224 847.007 234.89 847.934 236.562 848.851L235.636 850.541C233.956 849.621 232.283 848.69 230.616 847.749ZM240.684 853.265L241.588 851.563C243.269 852.456 244.955 853.339 246.648 854.212L245.765 855.925C244.065 855.049 242.371 854.162 240.684 853.265ZM250.885 858.523L251.746 856.798C253.451 857.65 255.163 858.491 256.88 859.321L256.041 861.057C254.316 860.223 252.597 859.378 250.885 858.523ZM261.218 863.52L262.035 861.774C263.759 862.58 265.488 863.376 267.224 864.162L266.429 865.918C264.686 865.129 262.949 864.33 261.218 863.52ZM271.675 868.252L272.447 866.486C274.194 867.249 275.946 868.002 277.704 868.745L276.955 870.52C275.189 869.775 273.429 869.019 271.675 868.252ZM282.248 872.715L282.975 870.93C284.737 871.648 286.505 872.355 288.279 873.051L287.574 874.845C285.793 874.146 284.018 873.436 282.248 872.715ZM292.934 876.909L293.615 875.106C295.398 875.779 297.186 876.442 298.979 877.093L298.321 878.905C296.52 878.251 294.724 877.585 292.934 876.909ZM303.719 880.827L304.354 879.007C306.15 879.634 307.952 880.25 309.759 880.854L309.148 882.682C307.333 882.075 305.523 881.457 303.719 880.827ZM314.607 884.471L315.196 882.635C317.009 883.216 318.828 883.786 320.652 884.345L320.087 886.188C318.255 885.627 316.429 885.055 314.607 884.471ZM325.575 887.832L326.117 885.982C327.943 886.516 329.774 887.039 331.61 887.551L331.093 889.408C329.249 888.894 327.41 888.369 325.575 887.832ZM336.639 890.916C338.487 891.406 340.339 891.884 342.197 892.351L342.667 890.481C340.817 890.017 338.973 889.54 337.132 889.052L336.639 890.916ZM347.761 893.712L348.207 891.837C350.059 892.277 351.915 892.706 353.775 893.124L353.353 895.005C351.484 894.586 349.621 894.155 347.761 893.712ZM358.97 896.228L359.368 894.342C361.23 894.735 363.096 895.117 364.966 895.487L364.592 897.378C362.714 897.006 360.84 896.623 358.97 896.228ZM370.218 898.454L370.568 896.558C372.44 896.904 374.315 897.238 376.194 897.56L375.869 899.46C373.981 899.136 372.098 898.801 370.218 898.454ZM381.543 900.396L381.845 898.492C383.723 898.79 385.605 899.076 387.492 899.35L387.214 901.258C385.32 900.982 383.43 900.695 381.543 900.396ZM392.887 902.047L393.14 900.136C395.027 900.386 396.917 900.624 398.811 900.851L398.582 902.765C396.68 902.537 394.781 902.298 392.887 902.047ZM404.298 903.413L404.503 901.496C406.394 901.698 408.288 901.888 410.185 902.067L410.004 903.986C408.099 903.807 406.197 903.616 404.298 903.413ZM415.708 904.487C417.613 904.642 419.521 904.786 421.432 904.917L421.565 902.994C419.661 902.863 417.761 902.72 415.865 902.566L415.708 904.487ZM427.176 905.276L427.284 903.352C429.182 903.458 431.083 903.553 432.988 903.636L432.904 905.562C430.991 905.479 429.082 905.383 427.176 905.276ZM438.624 905.776L438.684 903.849C440.585 903.909 442.49 903.956 444.397 903.992L444.361 905.919C442.446 905.883 440.533 905.836 438.624 905.776ZM450.117 905.991L450.129 904.063C451.085 904.069 452.042 904.072 453 904.072C453.958 904.072 454.915 904.069 455.872 904.063L455.884 905.991C454.923 905.997 453.962 906 453 906C452.038 906 451.077 905.997 450.117 905.991ZM461.639 905.919C463.555 905.883 465.467 905.836 467.377 905.776L467.317 903.849C465.415 903.909 463.511 903.956 461.603 903.992L461.639 905.919ZM473.097 905.562C475.009 905.479 476.919 905.383 478.825 905.276L478.717 903.352C476.818 903.458 474.917 903.553 473.013 903.636L473.097 905.562ZM484.568 904.917L484.436 902.994C486.339 902.863 488.239 902.72 490.136 902.566L490.292 904.487C488.388 904.642 486.48 904.786 484.568 904.917ZM495.996 903.986L495.815 902.067C497.713 901.888 499.607 901.698 501.497 901.496L501.702 903.413C499.804 903.615 497.902 903.807 495.996 903.986ZM507.419 902.765L507.19 900.851C509.083 900.624 510.974 900.386 512.86 900.135L513.114 902.046C511.219 902.298 509.321 902.537 507.419 902.765ZM518.786 901.258L518.509 899.35C520.395 899.076 522.277 898.79 524.155 898.492L524.457 900.396C522.571 900.695 520.68 900.982 518.786 901.258ZM530.132 899.46L529.806 897.56C531.685 897.237 533.561 896.904 535.432 896.558L535.782 898.453C533.903 898.801 532.019 899.136 530.132 899.46ZM541.408 897.378C543.286 897.006 545.16 896.623 547.03 896.228L546.632 894.342C544.77 894.735 542.904 895.117 541.034 895.487L541.408 897.378ZM552.647 895.005L552.225 893.124C554.085 892.706 555.941 892.277 557.793 891.837L558.239 893.712C556.379 894.155 554.516 894.586 552.647 895.005ZM563.803 892.351L563.333 890.481C565.183 890.017 567.027 889.54 568.868 889.052L569.361 890.916C567.513 891.406 565.661 891.884 563.803 892.351ZM574.907 889.408L574.39 887.551C576.226 887.039 578.057 886.516 579.883 885.982L580.424 887.832C578.59 888.369 576.751 888.894 574.907 889.408ZM585.913 886.188L585.348 884.345C587.172 883.786 588.99 883.216 590.804 882.635L591.393 884.471C589.571 885.055 587.744 885.627 585.913 886.188ZM596.852 882.682L596.241 880.854C598.048 880.25 599.849 879.634 601.646 879.007L602.281 880.827C600.477 881.457 598.667 882.075 596.852 882.682ZM607.679 878.905C609.48 878.251 611.276 877.586 613.066 876.909L612.385 875.106C610.602 875.779 608.814 876.442 607.021 877.093L607.679 878.905ZM618.425 874.845C620.207 874.146 621.982 873.436 623.752 872.715L623.025 870.93C621.263 871.648 619.495 872.355 617.721 873.051L618.425 874.845ZM629.045 870.521L628.295 868.745C630.054 868.003 631.806 867.249 633.553 866.486L634.325 868.252C632.571 869.019 630.811 869.775 629.045 870.521ZM639.571 865.918L638.776 864.162C640.511 863.376 642.241 862.58 643.965 861.774L644.782 863.52C643.051 864.33 641.314 865.129 639.571 865.918ZM649.958 861.057L649.119 859.321C650.837 858.491 652.548 857.65 654.254 856.798L655.115 858.523C653.402 859.378 651.683 860.223 649.958 861.057ZM660.234 855.926L659.351 854.212C661.044 853.34 662.731 852.457 664.411 851.563L665.316 853.266C663.628 854.163 661.935 855.049 660.234 855.926ZM670.364 850.541L669.438 848.851C671.11 847.934 672.776 847.008 674.436 846.071L675.383 847.749C673.717 848.69 672.044 849.621 670.364 850.541ZM680.363 844.896L679.394 843.229C681.041 842.272 682.681 841.305 684.314 840.328L685.304 841.982C683.664 842.963 682.017 843.935 680.363 844.896ZM690.209 839.004L689.198 837.362C690.821 836.362 692.438 835.353 694.047 834.333L695.079 835.962C693.462 836.986 691.839 838 690.209 839.004ZM699.907 832.86C701.51 831.816 703.105 830.763 704.694 829.699L703.621 828.097C702.04 829.156 700.451 830.205 698.855 831.245L699.907 832.86ZM709.443 826.476L708.351 824.888C709.921 823.807 711.484 822.718 713.04 821.618L714.152 823.192C712.59 824.296 711.02 825.391 709.443 826.476ZM718.818 819.851L717.685 818.291C719.226 817.172 720.76 816.044 722.287 814.906L723.438 816.452C721.906 817.594 720.365 818.727 718.818 819.851ZM728.02 812.992L726.848 811.461C728.362 810.303 729.868 809.136 731.366 807.96L732.556 809.476C731.052 810.657 729.54 811.829 728.02 812.992ZM737.047 805.903L735.837 804.402C737.32 803.207 738.796 802.003 740.263 800.789L741.491 802.275C740.018 803.493 738.536 804.703 737.047 805.903ZM745.892 798.589L744.645 797.119C746.098 795.886 747.543 794.645 748.98 793.394L750.245 794.848C748.802 796.104 747.351 797.351 745.892 798.589ZM754.55 791.054L753.267 789.616C754.688 788.347 756.101 787.07 757.505 785.784L758.807 787.206C757.396 788.497 755.977 789.78 754.55 791.054ZM763.016 783.303L761.697 781.898C763.085 780.594 764.466 779.281 765.838 777.96L767.175 779.349C765.797 780.676 764.411 781.994 763.016 783.303ZM771.284 775.342L769.929 773.97C771.285 772.632 772.632 771.285 773.97 769.93L775.342 771.284C773.998 772.645 772.645 773.998 771.284 775.342ZM779.348 767.175L777.96 765.838C779.281 764.466 780.594 763.086 781.898 761.697L783.303 763.016C781.994 764.411 780.675 765.797 779.348 767.175ZM787.206 758.807L785.784 757.506C787.07 756.101 788.347 754.688 789.616 753.267L791.054 754.551C789.78 755.978 788.497 757.397 787.206 758.807ZM794.848 750.246L793.394 748.98C794.645 747.543 795.886 746.098 797.119 744.645L798.589 745.892C797.351 747.351 796.104 748.803 794.848 750.246ZM802.275 741.492L800.789 740.263C802.002 738.796 803.207 737.321 804.402 735.838L805.903 737.047C804.703 738.537 803.493 740.018 802.275 741.492ZM809.475 732.557L807.959 731.366C809.136 729.868 810.303 728.362 811.461 726.849L812.992 728.02C811.829 729.54 810.657 731.052 809.475 732.557ZM816.452 723.439L814.906 722.287C816.044 720.76 817.172 719.227 818.29 717.686L819.85 718.818C818.727 720.366 817.594 721.906 816.452 723.439ZM823.192 714.153L821.618 713.04C822.717 711.484 823.807 709.921 824.887 708.351L826.476 709.444C825.391 711.021 824.296 712.59 823.192 714.153ZM829.699 704.694L828.097 703.622C829.156 702.04 830.205 700.451 831.245 698.856L832.86 699.908C831.816 701.51 830.762 703.106 829.699 704.694ZM835.961 695.079L834.333 694.048C835.353 692.438 836.362 690.822 837.362 689.198L839.003 690.209C837.999 691.839 836.985 693.463 835.961 695.079ZM841.981 685.304L840.327 684.314C841.305 682.681 842.272 681.041 843.229 679.395L844.896 680.364C843.934 682.017 842.963 683.664 841.981 685.304ZM847.749 675.384L846.071 674.436C847.007 672.776 847.934 671.11 848.851 669.438L850.541 670.364C849.621 672.044 848.69 673.717 847.749 675.384ZM853.265 665.316L851.563 664.412C852.456 662.731 853.339 661.044 854.212 659.352L855.925 660.235C855.049 661.935 854.162 663.629 853.265 665.316ZM858.523 655.115L856.798 654.254C857.65 652.549 858.491 650.837 859.321 649.12L861.057 649.959C860.223 651.684 859.378 653.403 858.523 655.115ZM863.52 644.782L861.774 643.965C862.58 642.241 863.376 640.512 864.162 638.776L865.918 639.571C865.129 641.314 864.33 643.051 863.52 644.782ZM868.252 634.325L866.486 633.553C867.249 631.806 868.002 630.054 868.745 628.296L870.52 629.045C869.775 630.811 869.019 632.571 868.252 634.325ZM872.715 623.752L870.93 623.025C871.648 621.263 872.355 619.495 873.051 617.721L874.845 618.426C874.146 620.207 873.436 621.982 872.715 623.752ZM876.909 613.066L875.106 612.385C875.779 610.602 876.442 608.814 877.093 607.021L878.905 607.679C878.251 609.48 877.585 611.276 876.909 613.066ZM880.827 602.281C881.457 600.477 882.075 598.667 882.682 596.852L880.854 596.241C880.25 598.048 879.634 599.85 879.007 601.646L880.827 602.281ZM884.471 591.393C885.055 589.571 885.627 587.745 886.188 585.913L884.345 585.348C883.786 587.172 883.216 588.991 882.635 590.804L884.471 591.393ZM887.832 580.424L885.982 579.883C886.516 578.057 887.039 576.226 887.551 574.39L889.408 574.907C888.894 576.751 888.369 578.59 887.832 580.424ZM890.916 569.361L889.052 568.868C889.54 567.027 890.017 565.183 890.481 563.333L892.351 563.803C891.884 565.661 891.406 567.513 890.916 569.361ZM893.712 558.239L891.837 557.793C892.277 555.941 892.706 554.085 893.124 552.225L895.005 552.647C894.586 554.516 894.155 556.379 893.712 558.239ZM896.228 547.03L894.342 546.632C894.735 544.77 895.117 542.904 895.487 541.034L897.378 541.408C897.006 543.286 896.623 545.16 896.228 547.03ZM898.454 535.782L896.558 535.432C896.904 533.56 897.238 531.685 897.56 529.805L899.46 530.131C899.136 532.019 898.801 533.902 898.454 535.782ZM900.396 524.457L898.492 524.155C898.79 522.277 899.076 520.395 899.35 518.508L901.258 518.786C900.982 520.68 900.695 522.57 900.396 524.457ZM902.047 513.113L900.136 512.86C900.386 510.973 900.624 509.083 900.851 507.189L902.765 507.418C902.537 509.32 902.298 511.219 902.047 513.113ZM903.413 501.702L901.496 501.497C901.698 499.606 901.888 497.712 902.067 495.815L903.986 495.996C903.807 497.901 903.616 499.803 903.413 501.702ZM904.487 490.292C904.642 488.387 904.786 486.479 904.917 484.568L902.994 484.435C902.863 486.339 902.72 488.239 902.566 490.135L904.487 490.292ZM905.276 478.824L903.352 478.716C903.458 476.818 903.553 474.917 903.636 473.012L905.562 473.096C905.479 475.009 905.383 476.918 905.276 478.824ZM905.776 467.376L903.849 467.316C903.909 465.415 903.956 463.51 903.992 461.603L905.919 461.639C905.883 463.554 905.836 465.467 905.776 467.376Z" fill="white"/>
<path fill-rule="evenodd" clip-rule="evenodd" d="M884.028 486.955L859.564 485.054C860.385 474.482 860.804 463.792 860.804 453C860.804 442.208 860.385 431.518 859.564 420.946L884.028 419.045C884.899 430.249 885.342 441.573 885.342 453C885.342 464.427 884.899 475.751 884.028 486.955ZM873.488 352.028L849.623 357.738C844.61 336.785 837.979 316.461 829.869 296.904L852.536 287.505C861.137 308.247 868.17 329.804 873.488 352.028ZM821.688 227.075L800.777 239.916C789.571 221.667 776.966 204.365 763.112 188.158L781.763 172.213C796.447 189.389 809.807 207.729 821.688 227.075ZM733.787 124.237L717.842 142.888C701.635 129.034 684.333 116.429 666.084 105.222L678.924 84.3121C698.271 96.1927 716.611 109.553 733.787 124.237ZM618.495 53.4643L609.096 76.131C589.539 68.021 569.215 61.3901 548.262 56.3771L553.972 32.5123C576.196 37.8294 597.753 44.8627 618.495 53.4643ZM486.955 21.9716L485.054 46.4363C474.482 45.6149 463.792 45.1962 453 45.1962C442.208 45.1962 431.518 45.6149 420.946 46.4363L419.045 21.9716C430.249 21.1012 441.573 20.6579 453 20.6579C464.427 20.6579 475.751 21.1012 486.955 21.9716ZM352.028 32.5123L357.738 56.3771C336.785 61.3901 316.461 68.021 296.904 76.131L287.505 53.4643C308.247 44.8627 329.804 37.8294 352.028 32.5123ZM227.075 84.312L239.916 105.222C221.667 116.429 204.365 129.034 188.158 142.888L172.213 124.236C189.389 109.553 207.729 96.1926 227.075 84.312ZM124.237 172.213L142.888 188.158C129.034 204.364 116.429 221.667 105.222 239.916L84.3121 227.075C96.1927 207.729 109.553 189.389 124.237 172.213ZM53.4643 287.505L76.131 296.904C68.021 316.461 61.3901 336.785 56.3771 357.738L32.5123 352.028C37.8294 329.804 44.8627 308.247 53.4643 287.505ZM21.9716 419.045C21.1012 430.249 20.6579 441.573 20.6579 453C20.6579 464.427 21.1012 475.751 21.9716 486.955L46.4363 485.054C45.6149 474.482 45.1962 463.792 45.1962 453C45.1962 442.208 45.6149 431.518 46.4363 420.946L21.9716 419.045ZM32.5123 553.972L56.3771 548.262C61.3901 569.215 68.021 589.539 76.131 609.096L53.4643 618.495C44.8627 597.753 37.8294 576.196 32.5123 553.972ZM84.312 678.924L105.222 666.084C116.429 684.333 129.034 701.635 142.888 717.842L124.236 733.787C109.553 716.611 96.1926 698.271 84.312 678.924ZM172.213 781.763L188.158 763.112C204.364 776.966 221.667 789.571 239.916 800.777L227.075 821.688C207.729 809.807 189.389 796.446 172.213 781.763ZM287.505 852.536L296.904 829.869C316.461 837.979 336.785 844.61 357.738 849.623L352.028 873.488C329.804 868.17 308.247 861.137 287.505 852.536ZM419.045 884.028L420.946 859.564C431.518 860.385 442.208 860.804 453 860.804C463.792 860.804 474.482 860.385 485.054 859.564L486.955 884.028C475.751 884.899 464.427 885.342 453 885.342C441.573 885.342 430.249 884.899 419.045 884.028ZM553.972 873.488L548.262 849.623C569.215 844.61 589.539 837.979 609.096 829.869L618.495 852.536C597.753 861.137 576.196 868.17 553.972 873.488ZM678.924 821.688L666.084 800.777C684.333 789.571 701.635 776.966 717.842 763.112L733.787 781.763C716.611 796.447 698.271 809.807 678.924 821.688ZM781.763 733.787L763.112 717.842C776.966 701.635 789.571 684.333 800.777 666.084L821.688 678.924C809.807 698.271 796.446 716.611 781.763 733.787ZM852.536 618.495C861.137 597.753 868.17 576.196 873.488 553.972L849.623 548.262C844.61 569.215 837.979 589.539 829.869 609.096L852.536 618.495Z" fill="white"/>
<path fill-rule="evenodd" clip-rule="evenodd" d="M832.756 454.778L784.848 454.558C784.851 454.039 784.852 453.52 784.852 453C784.852 452.48 784.851 451.961 784.848 451.442L832.756 451.222C832.759 451.815 832.76 452.407 832.76 453C832.76 453.593 832.759 454.185 832.756 454.778ZM832.003 428.827L784.189 431.83C784.124 430.798 784.055 429.767 783.981 428.737L831.765 425.292C831.85 426.469 831.929 427.647 832.003 428.827ZM829.499 403.01L782 409.256C781.866 408.236 781.727 407.216 781.583 406.199L829.023 399.511C829.187 400.676 829.346 401.842 829.499 403.01ZM825.244 377.445L778.283 386.925C778.079 385.914 777.87 384.904 777.657 383.897L824.527 373.977C824.771 375.131 825.01 376.287 825.244 377.445ZM819.239 352.206L773.041 364.891C772.768 363.898 772.491 362.906 772.209 361.917L818.286 348.798C818.609 349.932 818.926 351.068 819.239 352.206ZM811.516 327.451L766.3 343.284C765.96 342.314 765.616 341.346 765.268 340.38L810.333 324.123C810.733 325.23 811.127 326.339 811.516 327.451ZM802.111 303.289L758.089 322.192C757.682 321.244 757.271 320.299 756.856 319.356L800.698 300.041C801.174 301.121 801.645 302.204 802.111 303.289ZM791.064 279.82L748.443 301.698C747.973 300.782 747.498 299.868 747.02 298.957L789.435 276.682C789.983 277.725 790.526 278.772 791.064 279.82ZM778.441 257.172L737.415 281.911C736.883 281.029 736.347 280.149 735.807 279.272L776.6 254.151C777.219 255.155 777.832 256.162 778.441 257.172ZM764.298 235.431L725.054 262.91C724.463 262.066 723.867 261.224 723.268 260.385L762.256 232.543C762.941 233.503 763.622 234.465 764.298 235.431ZM748.709 214.707L711.424 244.79C710.777 243.988 710.126 243.189 709.472 242.393L746.476 211.965C747.225 212.876 747.969 213.789 748.709 214.707ZM731.749 195.089L696.592 227.634C695.891 226.877 695.187 226.123 694.479 225.373L729.334 192.504C730.143 193.362 730.948 194.224 731.749 195.089ZM713.496 176.666L680.627 211.521C679.877 210.813 679.123 210.109 678.367 209.409L710.911 174.251C711.777 175.052 712.638 175.857 713.496 176.666ZM694.035 159.524L663.607 196.529C662.811 195.874 662.012 195.223 661.21 194.576L691.293 157.291C692.211 158.031 693.125 158.775 694.035 159.524ZM673.457 143.745L645.615 182.732C644.776 182.133 643.934 181.538 643.09 180.946L670.569 141.702C671.535 142.379 672.498 143.059 673.457 143.745ZM651.849 129.4C650.846 128.782 649.839 128.168 648.828 127.559L624.089 168.585C624.971 169.117 625.851 169.653 626.729 170.194L651.849 129.4ZM629.318 116.565L607.043 158.98C606.132 158.502 605.219 158.027 604.302 157.557L626.18 114.936C627.229 115.474 628.275 116.018 629.318 116.565ZM605.959 105.302L586.644 149.144C585.701 148.729 584.756 148.318 583.809 147.911L602.711 103.89C603.797 104.356 604.879 104.826 605.959 105.302ZM581.877 95.6669L565.621 140.733C564.655 140.384 563.686 140.04 562.716 139.7L578.549 94.4842C579.661 94.8734 580.77 95.2677 581.877 95.6669ZM557.202 87.7143L544.083 133.791C543.094 133.509 542.102 133.232 541.109 132.959L553.794 86.7612C554.932 87.0738 556.069 87.3915 557.202 87.7143ZM532.023 81.4734L522.103 128.343C521.096 128.13 520.086 127.921 519.075 127.717L528.556 80.7564C529.713 80.9901 530.869 81.2291 532.023 81.4734ZM506.489 76.9776C505.324 76.8134 504.158 76.6545 502.99 76.5009L496.744 124C497.765 124.134 498.784 124.273 499.802 124.417L506.489 76.9776ZM480.708 74.2355L477.263 122.02C476.233 121.945 475.202 121.876 474.17 121.811L477.173 73.997C478.353 74.0712 479.532 74.1507 480.708 74.2355ZM454.778 73.2442L454.558 121.152C454.039 121.149 453.52 121.148 453 121.148C452.481 121.148 451.961 121.149 451.442 121.152L451.222 73.2442C451.815 73.2415 452.407 73.2401 453 73.2401C453.593 73.2401 454.186 73.2415 454.778 73.2442ZM428.827 73.997L431.831 121.811C430.798 121.876 429.767 121.945 428.738 122.02L425.292 74.2355C426.469 74.1507 427.647 74.0712 428.827 73.997ZM403.011 76.5009L409.257 124C408.236 124.134 407.217 124.273 406.199 124.417L399.512 76.9776C400.676 76.8134 401.843 76.6545 403.011 76.5009ZM377.445 80.7564L386.925 127.717C385.914 127.921 384.905 128.13 383.897 128.343L373.977 81.4734C375.131 81.2292 376.287 80.9901 377.445 80.7564ZM352.206 86.7612L364.892 132.959C363.898 133.232 362.907 133.509 361.917 133.791L348.798 87.7143C349.932 87.3915 351.068 87.0738 352.206 86.7612ZM327.451 94.4842L343.284 139.7C342.314 140.04 341.346 140.384 340.38 140.733L324.123 95.667C325.23 95.2677 326.339 94.8734 327.451 94.4842ZM303.289 103.89L322.192 147.911C321.244 148.318 320.299 148.729 319.357 149.144L300.042 105.302C301.122 104.826 302.204 104.356 303.289 103.89ZM279.821 114.936L301.698 157.557C300.782 158.028 299.868 158.502 298.957 158.98L276.683 116.565C277.726 116.018 278.772 115.474 279.821 114.936ZM257.172 127.559L281.912 168.585C281.029 169.117 280.149 169.653 279.272 170.194L254.151 129.4C255.155 128.782 256.162 128.168 257.172 127.559ZM235.432 141.702L262.911 180.946C262.066 181.538 261.224 182.133 260.386 182.732L232.543 143.745C233.503 143.059 234.466 142.379 235.432 141.702ZM214.707 157.291L244.791 194.576C243.988 195.223 243.189 195.874 242.393 196.529L211.966 159.524C212.876 158.775 213.79 158.031 214.707 157.291ZM195.089 174.251L227.634 209.409C226.877 210.109 226.124 210.813 225.373 211.521L192.504 176.666C193.362 175.857 194.224 175.052 195.089 174.251ZM176.667 192.504L211.521 225.373C210.814 226.123 210.109 226.877 209.409 227.634L174.252 195.089C175.053 194.224 175.858 193.362 176.667 192.504ZM159.524 211.965L196.529 242.393C195.874 243.189 195.223 243.988 194.576 244.79L157.291 214.707C158.031 213.789 158.776 212.876 159.524 211.965ZM143.745 232.543L182.732 260.385C182.133 261.224 181.538 262.066 180.947 262.91L141.702 235.431C142.379 234.465 143.06 233.503 143.745 232.543ZM129.4 254.151L170.194 279.272C169.654 280.149 169.117 281.029 168.585 281.912L127.559 257.172C128.168 256.162 128.782 255.155 129.4 254.151ZM116.566 276.682L158.981 298.957C158.502 299.868 158.028 300.782 157.557 301.698L114.936 279.82C115.475 278.772 116.018 277.726 116.566 276.682ZM105.302 300.042L149.144 319.356C148.729 320.299 148.318 321.244 147.911 322.192L103.89 303.289C104.356 302.204 104.827 301.121 105.302 300.042ZM95.6672 324.123L140.733 340.38C140.384 341.346 140.04 342.314 139.701 343.284L94.4845 327.451C94.8737 326.339 95.2679 325.23 95.6672 324.123ZM87.7145 348.798L133.792 361.917C133.51 362.906 133.232 363.898 132.96 364.892L86.7615 352.206C87.074 351.068 87.3917 349.932 87.7145 348.798ZM81.4736 373.977L128.344 383.897C128.13 384.905 127.922 385.914 127.717 386.925L80.7566 377.445C80.9904 376.287 81.2294 375.131 81.4736 373.977ZM76.9779 399.511C76.8137 400.676 76.6548 401.842 76.5012 403.01L124 409.256C124.135 408.236 124.274 407.216 124.417 406.199L76.9779 399.511ZM74.2358 425.292L122.02 428.737C121.946 429.767 121.876 430.798 121.811 431.83L73.9973 428.827C74.0714 427.647 74.1509 426.469 74.2358 425.292ZM73.2444 451.222C73.2417 451.815 73.2404 452.407 73.2404 453C73.2404 453.593 73.2417 454.185 73.2444 454.778L121.152 454.558C121.15 454.039 121.149 453.52 121.149 453C121.149 452.48 121.15 451.961 121.152 451.442L73.2444 451.222ZM73.9973 477.173L121.811 474.17C121.876 475.202 121.946 476.233 122.02 477.263L74.2358 480.708C74.1509 479.531 74.0714 478.353 73.9973 477.173ZM76.5012 502.99L124 496.744C124.135 497.764 124.274 498.784 124.417 499.801L76.9779 506.489C76.8137 505.324 76.6548 504.158 76.5012 502.99ZM80.7566 528.555L127.717 519.075C127.922 520.086 128.13 521.096 128.344 522.103L81.4737 532.023C81.2294 530.869 80.9904 529.713 80.7566 528.555ZM86.7615 553.794L132.96 541.109C133.232 542.102 133.51 543.094 133.792 544.083L87.7146 557.202C87.3917 556.068 87.074 554.932 86.7615 553.794ZM94.4845 578.549L139.701 562.716C140.04 563.686 140.384 564.654 140.733 565.62L95.6672 581.877C95.268 580.77 94.8737 579.661 94.4845 578.549ZM103.89 602.711L147.911 583.808C148.318 584.756 148.729 585.701 149.144 586.644L105.302 605.958C104.827 604.879 104.356 603.796 103.89 602.711ZM114.936 626.18L157.558 604.302C158.028 605.218 158.502 606.132 158.981 607.043L116.566 629.318C116.018 628.275 115.475 627.229 114.936 626.18ZM127.559 648.828L168.585 624.089C169.117 624.971 169.654 625.851 170.194 626.728L129.4 651.849C128.782 650.845 128.168 649.838 127.559 648.828ZM141.703 670.569L180.947 643.09C181.538 643.934 182.133 644.776 182.732 645.615L143.745 673.457C143.06 672.497 142.379 671.535 141.703 670.569ZM157.291 691.293L194.576 661.21C195.223 662.012 195.874 662.811 196.529 663.607L159.524 694.035C158.776 693.124 158.031 692.211 157.291 691.293ZM174.252 710.911L209.409 678.366C210.109 679.123 210.814 679.877 211.521 680.627L176.667 713.496C175.858 712.638 175.053 711.776 174.252 710.911ZM192.504 729.334L225.373 694.479C226.124 695.187 226.877 695.891 227.634 696.591L195.089 731.749C194.224 730.948 193.362 730.143 192.504 729.334ZM211.966 746.476L242.393 709.471C243.189 710.126 243.988 710.777 244.791 711.424L214.707 748.709C213.79 747.969 212.876 747.225 211.966 746.476ZM232.543 762.255L260.386 723.268C261.224 723.867 262.066 724.462 262.911 725.054L235.432 764.298C234.466 763.621 233.503 762.941 232.543 762.255ZM254.151 776.6L279.272 735.806C280.149 736.347 281.029 736.883 281.912 737.415L257.172 778.441C256.162 777.832 255.155 777.218 254.151 776.6ZM276.683 789.435L298.957 747.02C299.868 747.498 300.782 747.972 301.698 748.443L279.821 791.064C278.772 790.526 277.726 789.982 276.683 789.435ZM300.042 800.698L319.357 756.856C320.299 757.271 321.245 757.682 322.192 758.089L303.289 802.11C302.204 801.644 301.122 801.174 300.042 800.698ZM324.124 810.333L340.38 765.267C341.346 765.616 342.314 765.96 343.284 766.3L327.451 811.516C326.339 811.127 325.23 810.732 324.124 810.333ZM348.798 818.286L361.917 772.209C362.907 772.491 363.898 772.768 364.892 773.041L352.206 819.239C351.068 818.926 349.932 818.609 348.798 818.286ZM373.977 824.527L383.897 777.657C384.905 777.87 385.914 778.079 386.925 778.283L377.445 825.244C376.287 825.01 375.131 824.771 373.977 824.527ZM399.512 829.022L406.199 781.583C407.217 781.727 408.236 781.866 409.257 782L403.011 829.499C401.843 829.346 400.676 829.187 399.512 829.022ZM425.292 831.764L428.738 783.98C429.767 784.055 430.798 784.124 431.831 784.189L428.827 832.003C427.647 831.929 426.469 831.849 425.292 831.764ZM451.223 832.756L451.442 784.848C451.961 784.851 452.481 784.852 453 784.852C453.205 784.852 453.41 784.852 453.615 784.851C453.93 784.851 454.244 784.85 454.558 784.848L454.778 832.756C454.186 832.758 453.593 832.76 453 832.76C452.407 832.76 451.815 832.758 451.223 832.756ZM477.173 832.003L474.17 784.189C475.202 784.124 476.233 784.055 477.263 783.98L480.708 831.764C479.532 831.849 478.353 831.929 477.173 832.003ZM502.99 829.499L496.744 782C497.23 781.936 497.715 781.871 498.199 781.805C498.734 781.732 499.268 781.658 499.802 781.583L506.489 829.022C505.324 829.187 504.158 829.345 502.99 829.499ZM528.556 825.244L519.075 778.283C520.086 778.079 521.096 777.87 522.103 777.657L532.023 824.527C530.869 824.771 529.714 825.01 528.556 825.244ZM553.794 819.239L541.109 773.041C542.102 772.768 543.094 772.491 544.084 772.209L557.203 818.286C556.069 818.609 554.933 818.926 553.794 819.239ZM578.549 811.516L562.716 766.3C563.686 765.96 564.655 765.616 565.621 765.267L581.877 810.333C580.77 810.732 579.661 811.127 578.549 811.516ZM602.711 802.11L583.809 758.089C584.756 757.682 585.701 757.271 586.644 756.856L605.959 800.698C604.879 801.174 603.797 801.644 602.711 802.11ZM626.18 791.064L604.302 748.443C605.219 747.972 606.132 747.498 607.043 747.02L629.318 789.435C628.275 789.982 627.229 790.526 626.18 791.064ZM648.828 778.441L624.089 737.415C624.611 737.1 625.132 736.784 625.652 736.466C626.011 736.247 626.37 736.027 626.729 735.806L651.85 776.6C650.846 777.218 649.839 777.832 648.828 778.441ZM670.569 764.298L643.09 725.054C643.934 724.462 644.776 723.867 645.615 723.268L673.457 762.255C672.498 762.94 671.535 763.621 670.569 764.298ZM691.293 748.709L661.21 711.424C662.012 710.777 662.811 710.126 663.607 709.471L694.035 746.476C693.125 747.225 692.211 747.969 691.293 748.709ZM710.911 731.749L678.367 696.591C679.123 695.891 679.877 695.187 680.627 694.479L713.496 729.334C712.638 730.143 711.777 730.948 710.911 731.749ZM729.334 713.496L694.479 680.627C695.187 679.877 695.891 679.123 696.592 678.366L731.749 710.911C730.948 711.776 730.143 712.638 729.334 713.496ZM746.476 694.035L709.472 663.607C710.126 662.811 710.777 662.012 711.424 661.21L748.709 691.293C747.969 692.211 747.225 693.124 746.476 694.035ZM762.256 673.457L723.268 645.615C723.867 644.776 724.463 643.934 725.054 643.09L764.298 670.569C763.622 671.535 762.941 672.497 762.256 673.457ZM776.6 651.849L735.807 626.728C736.347 625.851 736.883 624.971 737.415 624.088L778.441 648.828C777.832 649.838 777.219 650.845 776.6 651.849ZM789.435 629.318L747.02 607.043C747.498 606.132 747.973 605.218 748.443 604.302L791.064 626.18C790.526 627.228 789.983 628.274 789.435 629.318ZM800.698 605.958L756.856 586.644C757.271 585.701 757.682 584.756 758.089 583.808L802.111 602.711C801.645 603.796 801.174 604.879 800.698 605.958ZM810.333 581.877L765.268 565.62C765.616 564.654 765.96 563.686 766.3 562.716L811.516 578.549C811.127 579.661 810.733 580.77 810.333 581.877ZM818.286 557.202L772.209 544.083C772.491 543.094 772.768 542.102 773.041 541.108L819.239 553.794C818.927 554.932 818.609 556.068 818.286 557.202ZM824.527 532.023L777.657 522.103C777.87 521.095 778.079 520.086 778.283 519.075L825.244 528.555C825.01 529.713 824.771 530.869 824.527 532.023ZM829.023 506.489L781.583 499.801C781.727 498.784 781.866 497.764 782 496.744L829.499 502.99C829.346 504.158 829.187 505.324 829.023 506.489ZM831.765 480.708L783.981 477.263C784.055 476.233 784.124 475.202 784.189 474.17L832.003 477.173C831.929 478.353 831.85 479.531 831.765 480.708Z" fill="white"/>
</g>
</svg>
