<?xml version="1.0" encoding="utf-8"?>
<!-- Generator: Adobe Illustrator 27.0.1, SVG Export Plug-In . SVG Version: 6.00 Build 0)  -->
<svg version="1.1" id="Calque_1" xmlns="http://www.w3.org/2000/svg" xmlns:xlink="http://www.w3.org/1999/xlink" x="0px" y="0px"
	 viewBox="0 0 24 24" style="enable-background:new 0 0 24 24;" xml:space="preserve">
<style type="text/css">
	.st0{fill:#1A4470;}
</style>
<path class="st0" d="M22,5.9c-0.7,0.3-1.5,0.5-2.4,0.6c0.9-0.5,1.5-1.3,1.8-2.2c-0.8,0.5-1.7,0.8-2.6,1C18.1,4.5,17,4,15.8,4
	c-2.3,0-4.1,1.8-4.1,4c0,0.3,0,0.6,0.1,0.9C8.6,8.8,5.5,7.3,3.4,4.8C3,5.4,2.8,6.1,2.8,6.8c0,1.4,0.7,2.6,1.8,3.4
	C4,10.1,3.4,10,2.8,9.6v0.1c0,2,1.4,3.6,3.3,4c-0.4,0.1-0.7,0.1-1.1,0.1c-0.3,0-0.5,0-0.8-0.1c0.5,1.7,2.1,2.8,3.8,2.8
	c-1.5,1.1-3.3,1.7-5.1,1.7c-0.3,0-0.7,0-1-0.1C3.9,19.4,6.1,20,8.3,20C15.8,20,20,13.9,20,8.5l0-0.5C20.8,7.4,21.4,6.7,22,5.9z"/>
</svg>
