<?xml version="1.0" encoding="utf-8"?>
<!-- Generator: Adobe Illustrator 27.0.1, SVG Export Plug-In . SVG Version: 6.00 Build 0)  -->
<svg version="1.1" id="Calque_1" xmlns="http://www.w3.org/2000/svg" xmlns:xlink="http://www.w3.org/1999/xlink" x="0px" y="0px"
	 viewBox="0 0 24 24" style="enable-background:new 0 0 24 24;" xml:space="preserve">
<style type="text/css">
	.st0{fill:#1A4470;}
</style>
<path class="st0" d="M17.8,5H6.1C3.9,5,2,6.9,2,9.1v5.8C2,17.1,3.9,19,6.1,19h11.7c2.3,0,4.1-1.8,4.1-4.1V9.1C22,6.9,20.1,5,17.8,5
	L17.8,5z M15,12.3l-5.5,2.6c-0.1,0.1-0.2,0-0.3-0.1c0,0,0-0.1,0-0.1V9.4c0-0.2,0.2-0.3,0.3-0.2l5.5,2.7c0.1,0.1,0.2,0.2,0.1,0.3
	C15.1,12.2,15.1,12.3,15,12.3L15,12.3z"/>
</svg>
